<svg xmlns="http://www.w3.org/2000/svg" width="67" height="80" viewBox="0 0 67 80" fill="none">
  <path d="M10 2.00012C10 0.895554 10.8954 0.00012207 12 0.00012207H55C56.1046 0.00012207 57 0.895553 57 2.00012V69.0001C57 70.1047 56.1046 71.0001 55 71.0001H12C10.8954 71.0001 10 70.1047 10 69.0001V2.00012Z" fill="#F3F5F6"/>
  <path d="M10 2.00012C10 0.895554 10.8954 0.00012207 12 0.00012207H32C33.1046 0.00012207 34 0.895553 34 2.00012V69.0001C34 70.1047 33.1046 71.0001 32 71.0001H12C10.8954 71.0001 10 70.1047 10 69.0001V2.00012Z" fill="#E5E9EB"/>
  <path d="M0 72.0001C0 70.8956 0.895431 70.0001 2 70.0001H65C66.1046 70.0001 67 70.8956 67 72.0001V78.0001C67 79.1047 66.1046 80.0001 65 80.0001H2C0.895429 80.0001 0 79.1047 0 78.0001V72.0001Z" fill="#90D3FF"/>
  <path d="M10 16.0001H57V18.0001H10V16.0001Z" fill="#232D33"/>
  <path d="M10 5.00012H57V7.00012H10V5.00012Z" fill="#232D33"/>
  <path d="M10 27.0001H57V29.0001H10V27.0001Z" fill="#232D33"/>
  <path d="M10 38.0001H57V40.0001H10V38.0001Z" fill="#232D33"/>
  <path d="M10 49.0001H57V51.0001H10V49.0001Z" fill="#232D33"/>
  <path d="M10 60.0001H57V62.0001H10V60.0001Z" fill="#4D5C66"/>
  <path d="M55 1.00012C55 0.447838 55.4477 0.00012207 56 0.00012207C56.5523 0.00012207 57 0.447837 57 1.00012V70.0001C57 70.5524 56.5523 71.0001 56 71.0001C55.4477 71.0001 55 70.5524 55 70.0001V1.00012Z" fill="#232D33"/>
  <path d="M10 1.00012C10 0.447838 10.4477 0.00012207 11 0.00012207C11.5523 0.00012207 12 0.447837 12 1.00012V70.0001C12 70.5524 11.5523 71.0001 11 71.0001C10.4477 71.0001 10 70.5524 10 70.0001V1.00012Z" fill="#232D33"/>
  <path d="M50 42.0001C51.6569 42.0001 53 40.657 53 39.0001C53 37.3433 51.6569 36.0001 50 36.0001C48.3431 36.0001 47 37.3433 47 39.0001C47 40.657 48.3431 42.0001 50 42.0001Z" fill="#0F1214"/>
  <path d="M42 42.0001C43.6569 42.0001 45 40.657 45 39.0001C45 37.3433 43.6569 36.0001 42 36.0001C40.3431 36.0001 39 37.3433 39 39.0001C39 40.657 40.3431 42.0001 42 42.0001Z" fill="#0F1214"/>
  <path d="M17 42.0001C18.6569 42.0001 20 40.657 20 39.0001C20 37.3433 18.6569 36.0001 17 36.0001C15.3431 36.0001 14 37.3433 14 39.0001C14 40.657 15.3431 42.0001 17 42.0001Z" fill="#0F1214"/>
  <path d="M25 42.0001C26.6569 42.0001 28 40.657 28 39.0001C28 37.3433 26.6569 36.0001 25 36.0001C23.3431 36.0001 22 37.3433 22 39.0001C22 40.657 23.3431 42.0001 25 42.0001Z" fill="#0F1214"/>
  <path d="M50 31.0001C51.6569 31.0001 53 29.657 53 28.0001C53 26.3433 51.6569 25.0001 50 25.0001C48.3431 25.0001 47 26.3433 47 28.0001C47 29.657 48.3431 31.0001 50 31.0001Z" fill="#149EF6"/>
  <path d="M50 20.0001C51.6569 20.0001 53 18.657 53 17.0001C53 15.3433 51.6569 14.0001 50 14.0001C48.3431 14.0001 47 15.3433 47 17.0001C47 18.657 48.3431 20.0001 50 20.0001Z" fill="#151B1F"/>
  <path d="M44 9.00012C45.6569 9.00012 47 7.65698 47 6.00012C47 4.34327 45.6569 3.00012 44 3.00012C42.3431 3.00012 41 4.34327 41 6.00012C41 7.65698 42.3431 9.00012 44 9.00012Z" fill="#6CC4FD"/>
  <path d="M50 53.0001C51.6569 53.0001 53 51.657 53 50.0001C53 48.3433 51.6569 47.0001 50 47.0001C48.3431 47.0001 47 48.3433 47 50.0001C47 51.657 48.3431 53.0001 50 53.0001Z" fill="#43B3FB"/>
  <path d="M41 64.0001C42.6569 64.0001 44 62.657 44 61.0001C44 59.3433 42.6569 58.0001 41 58.0001C39.3431 58.0001 38 59.3433 38 61.0001C38 62.657 39.3431 64.0001 41 64.0001Z" fill="#151B1F"/>
  <path d="M42 31.0001C43.6569 31.0001 45 29.657 45 28.0001C45 26.3433 43.6569 25.0001 42 25.0001C40.3431 25.0001 39 26.3433 39 28.0001C39 29.657 40.3431 31.0001 42 31.0001Z" fill="#149EF6"/>
  <path d="M42 20.0001C43.6569 20.0001 45 18.657 45 17.0001C45 15.3433 43.6569 14.0001 42 14.0001C40.3431 14.0001 39 15.3433 39 17.0001C39 18.657 40.3431 20.0001 42 20.0001Z" fill="#151B1F"/>
  <path d="M36 9.00012C37.6569 9.00012 39 7.65698 39 6.00012C39 4.34327 37.6569 3.00012 36 3.00012C34.3431 3.00012 33 4.34327 33 6.00012C33 7.65698 34.3431 9.00012 36 9.00012Z" fill="#6CC4FD"/>
  <path d="M33 53.0001C34.6569 53.0001 36 51.657 36 50.0001C36 48.3433 34.6569 47.0001 33 47.0001C31.3431 47.0001 30 48.3433 30 50.0001C30 51.657 31.3431 53.0001 33 53.0001Z" fill="#43B3FB"/>
  <path d="M33 64.0001C34.6569 64.0001 36 62.657 36 61.0001C36 59.3433 34.6569 58.0001 33 58.0001C31.3431 58.0001 30 59.3433 30 61.0001C30 62.657 31.3431 64.0001 33 64.0001Z" fill="#151B1F"/>
  <path d="M17 31.0001C18.6569 31.0001 20 29.657 20 28.0001C20 26.3433 18.6569 25.0001 17 25.0001C15.3431 25.0001 14 26.3433 14 28.0001C14 29.657 15.3431 31.0001 17 31.0001Z" fill="#149EF6"/>
  <path d="M34 31.0001C35.6569 31.0001 37 29.657 37 28.0001C37 26.3433 35.6569 25.0001 34 25.0001C32.3431 25.0001 31 26.3433 31 28.0001C31 29.657 32.3431 31.0001 34 31.0001Z" fill="#149EF6"/>
  <path d="M34 20.0001C35.6569 20.0001 37 18.657 37 17.0001C37 15.3433 35.6569 14.0001 34 14.0001C32.3431 14.0001 31 15.3433 31 17.0001C31 18.657 32.3431 20.0001 34 20.0001Z" fill="#151B1F"/>
  <path d="M28 9.00012C29.6569 9.00012 31 7.65698 31 6.00012C31 4.34327 29.6569 3.00012 28 3.00012C26.3431 3.00012 25 4.34327 25 6.00012C25 7.65698 26.3431 9.00012 28 9.00012Z" fill="#6CC4FD"/>
  <path d="M25 53.0001C26.6569 53.0001 28 51.657 28 50.0001C28 48.3433 26.6569 47.0001 25 47.0001C23.3431 47.0001 22 48.3433 22 50.0001C22 51.657 23.3431 53.0001 25 53.0001Z" fill="#43B3FB"/>
  <path d="M25 64.0001C26.6569 64.0001 28 62.657 28 61.0001C28 59.3433 26.6569 58.0001 25 58.0001C23.3431 58.0001 22 59.3433 22 61.0001C22 62.657 23.3431 64.0001 25 64.0001Z" fill="#151B1F"/>
  <path d="M26 20.0001C27.6569 20.0001 29 18.657 29 17.0001C29 15.3433 27.6569 14.0001 26 14.0001C24.3431 14.0001 23 15.3433 23 17.0001C23 18.657 24.3431 20.0001 26 20.0001Z" fill="#151B1F"/>
  <path d="M20 9.00012C21.6569 9.00012 23 7.65698 23 6.00012C23 4.34327 21.6569 3.00012 20 3.00012C18.3431 3.00012 17 4.34327 17 6.00012C17 7.65698 18.3431 9.00012 20 9.00012Z" fill="#6CC4FD"/>
  <path d="M17 53.0001C18.6569 53.0001 20 51.657 20 50.0001C20 48.3433 18.6569 47.0001 17 47.0001C15.3431 47.0001 14 48.3433 14 50.0001C14 51.657 15.3431 53.0001 17 53.0001Z" fill="#43B3FB"/>
  <path d="M17 64.0001C18.6569 64.0001 20 62.657 20 61.0001C20 59.3433 18.6569 58.0001 17 58.0001C15.3431 58.0001 14 59.3433 14 61.0001C14 62.657 15.3431 64.0001 17 64.0001Z" fill="#151B1F"/>
  <path fill-rule="evenodd" clip-rule="evenodd" d="M65 78.5001H2C1.72386 78.5001 1.5 78.2763 1.5 78.0001V72.0001C1.5 71.724 1.72386 71.5001 2 71.5001H65C65.2761 71.5001 65.5 71.724 65.5 72.0001V78.0001C65.5 78.2763 65.2761 78.5001 65 78.5001ZM2 80.0001C0.895431 80.0001 0 79.1047 0 78.0001V72.0001C0 70.8956 0.895429 70.0001 2 70.0001H65C66.1046 70.0001 67 70.8956 67 72.0001V78.0001C67 79.1047 66.1046 80.0001 65 80.0001H2Z" fill="#232D33"/>
  <path d="M3 76.0001C3 76.5524 3.44772 77.0001 4 77.0001H26C26.5523 77.0001 27 76.5524 27 76.0001C27 75.4478 26.5523 75.0001 26 75.0001H4C3.44772 75.0001 3 75.4478 3 76.0001Z" fill="#232D33"/>
  <path d="M42 76.0001C42 76.5524 42.4477 77.0001 43 77.0001H63C63.5523 77.0001 64 76.5524 64 76.0001C64 75.4478 63.5523 75.0001 63 75.0001H43C42.4477 75.0001 42 75.4478 42 76.0001Z" fill="#232D33"/>
  <path d="M34 76.0001C34 76.5524 34.4477 77.0001 35 77.0001H39C39.5523 77.0001 40 76.5524 40 76.0001C40 75.4478 39.5523 75.0001 39 75.0001H35C34.4477 75.0001 34 75.4478 34 76.0001Z" fill="#232D33"/>
</svg>