<svg width="64" height="64" viewBox="0 0 64 64" fill="none" xmlns="http://www.w3.org/2000/svg">
<g id="illustration-icon-benchmarking" clip-path="url(#clip0_422_10424)">
<g id="Group">
<path id="Vector" d="M48.843 58.3164V63.1512H6.07959V58.3164H11.2979H28.1223H43.6246H48.843Z" fill="#149EF6"/>
<path id="Vector_2" d="M32.2563 26.5114C40.7244 34.9779 51.1866 38.2752 55.7635 33.9596C50.3364 39.3036 42.9153 41.3672 36.0321 40.1249C33.2524 39.626 30.5592 38.5857 28.1223 37.0024C26.8767 36.198 25.6989 35.2494 24.6094 34.1599C23.8101 33.3606 23.0855 32.5121 22.4389 31.6262C16.1973 23.0834 17.0135 10.9208 24.808 3.00586C20.4925 7.58274 23.7898 18.0432 32.2563 26.5114Z" fill="#149EF6"/>
<path id="Vector_3" opacity="0.25" d="M53.0241 36.2652C47.9822 39.8765 41.8169 41.1679 36.0318 40.1242C33.252 39.6253 30.5589 38.585 28.1219 37.0017C26.8763 36.1973 25.6986 35.2487 24.6091 34.1592C23.8098 33.3599 23.0852 32.5114 22.4386 31.6255C16.8791 24.016 16.9199 13.5369 22.5031 5.74414C20.7246 12.9226 22.0635 20.6593 26.5403 26.7856C27.2887 27.8106 28.127 28.7915 29.0519 29.7164C30.3128 30.9772 31.6755 32.0752 33.1163 33.0052C35.9351 34.838 39.0508 36.0412 42.2684 36.6182C45.8168 37.2579 49.4875 37.1393 53.0241 36.2652Z" fill="black"/>
<path id="Vector_4" d="M48.5732 10.1964C57.1211 18.7444 60.3997 29.327 55.8941 33.8326C55.85 33.8767 55.8076 33.9192 55.7635 33.9599C51.1866 38.2754 40.7244 34.9781 32.2563 26.5116C23.7898 18.0435 20.4925 7.583 24.808 3.00612C24.8487 2.96199 24.8912 2.91957 24.9353 2.87545C29.4409 -1.63016 40.0235 1.6468 48.5732 10.1964ZM44.5987 19.6081C46.1006 18.1063 46.1006 15.6727 44.5987 14.1709C43.0969 12.669 40.6616 12.669 39.1598 14.1709C37.6579 15.6727 37.6579 18.1063 39.1598 19.6081C40.6616 21.11 43.0969 21.11 44.5987 19.6081Z" fill="#149EF6"/>
<path id="Vector_5" opacity="0.25" d="M48.5732 10.1964C40.0236 1.6468 29.4409 -1.63016 24.9353 2.87545C24.8912 2.91957 24.8487 2.962 24.808 3.00612C23.5641 4.32471 22.9532 6.13204 22.9158 8.23805C28.124 8.14302 35.1633 11.549 41.1928 17.5785C47.2207 23.6063 50.6283 30.6456 50.5333 35.8521C52.6393 35.8131 54.4449 35.2021 55.7635 33.9599C55.8076 33.9192 55.85 33.8767 55.8942 33.8326C60.3998 29.327 57.1211 18.7442 48.5732 10.1964Z" fill="white"/>
<path id="Vector_6" d="M43.6246 58.3166H28.1223V37.002C30.5592 38.5853 33.2524 39.6256 36.0321 40.1245L39.1461 47.5863L43.6246 58.3166Z" fill="#4A7984"/>
<path id="Vector_7" d="M28.1223 37.0029V58.3158H11.298L22.439 31.625C23.0855 32.5108 23.8102 33.3594 24.6095 34.1587C25.6989 35.2482 26.8767 36.1968 28.1223 37.0012V37.0029Z" fill="#23464F"/>
<path id="Vector_8" d="M44.5987 14.1694C46.1006 15.6712 46.1006 18.1048 44.5987 19.6066C43.0969 21.1085 40.6616 21.1085 39.1598 19.6066C37.6579 18.1048 37.6579 15.6712 39.1598 14.1694C40.6616 12.6675 43.0969 12.6675 44.5987 14.1694Z" fill="#149EF6"/>
<path id="Vector_9" d="M50.3033 36.7084C44.8757 36.7084 37.7948 33.2477 31.6563 27.1106C22.7841 18.2365 19.5049 7.39229 24.1908 2.42272C24.5124 2.08178 25.049 2.06583 25.3902 2.38742C25.7312 2.70883 25.7469 3.24594 25.4254 3.58688C23.5573 5.56816 23.2455 8.92606 24.5478 13.0424C25.9082 17.3421 28.8588 21.9121 32.8563 25.9104C36.8545 29.9078 41.4246 32.8584 45.725 34.2187C49.8415 35.5212 53.2003 35.2095 55.1815 33.3414C55.5226 33.02 56.0596 33.0356 56.3808 33.3767C56.7024 33.7176 56.6866 34.2547 56.3455 34.5761C54.8135 36.0206 52.7224 36.7084 50.3033 36.7084Z" fill="#333333"/>
<path id="Vector_10" d="M55.8941 34.6804C55.6771 34.6804 55.4597 34.5976 55.2942 34.4319C54.9628 34.1005 54.9628 33.5632 55.2942 33.232C57.2397 31.2865 57.6034 27.93 56.3182 23.7809C54.9755 19.446 52.0119 14.8345 47.9733 10.7959C43.934 6.75683 39.322 3.7928 34.9868 2.45028C30.8379 1.16547 27.4813 1.52914 25.5353 3.47495C25.2043 3.80621 24.6666 3.80621 24.3355 3.47495C24.0041 3.14352 24.0041 2.60624 24.3355 2.27498C26.7479 -0.137512 30.7091 -0.651202 35.4889 0.829285C40.0829 2.25207 44.9429 5.36544 49.1734 9.59596C53.4036 13.826 56.5166 18.6854 57.9396 23.2789C59.4201 28.0588 58.9069 32.0196 56.4942 34.4321C56.3286 34.5976 56.1112 34.6804 55.8941 34.6804Z" fill="#333333"/>
<path id="Vector_11" d="M39.1461 47.5863C38.1008 47.549 37.0605 47.4387 36.0321 47.252C33.2524 46.7531 30.5592 45.7128 28.1223 44.1295V37.002C30.5592 38.5853 33.2524 39.6256 36.0321 40.1245L39.1461 47.5863Z" fill="#23464F"/>
<path id="Vector_12" d="M39.9463 41.3239C38.5926 41.3239 37.2331 41.2042 35.8814 40.9604C32.9245 40.4297 30.1581 39.3375 27.66 37.7145C26.3559 36.8724 25.127 35.8779 24.0096 34.7604C23.1892 33.9401 22.4301 33.0541 21.7535 32.1268C18.5962 27.8053 17.0903 22.4385 17.514 17.015C17.9412 11.548 20.3134 6.36527 24.1949 2.41968C24.2388 2.3725 24.2843 2.32668 24.3318 2.27917C24.6626 1.9474 25.2015 1.94553 25.5333 2.27645C25.8649 2.60754 25.8669 3.14312 25.536 3.47489C25.4977 3.51324 25.4637 3.54702 25.4312 3.58231C25.4252 3.58876 25.4191 3.59521 25.4128 3.60149C21.8065 7.26351 19.6024 12.0741 19.2061 17.1468C18.8139 22.1665 20.2057 27.1311 23.1244 31.1259C23.7497 31.9827 24.4511 32.8017 25.2097 33.5601C26.2427 34.5931 27.3775 35.5115 28.5829 36.2898C30.8922 37.7903 33.4484 38.7992 36.1823 39.29C43.0388 40.5275 50.1373 38.3089 55.1685 33.3551C55.175 33.3487 55.1816 33.3424 55.1884 33.3363C55.224 33.3034 55.2581 33.2689 55.2937 33.2331C55.6247 32.9013 56.1621 32.9008 56.4937 33.2319C56.8253 33.563 56.8258 34.1003 56.4949 34.4319C56.446 34.4809 56.3987 34.528 56.35 34.5733C51.9182 38.9326 45.9984 41.3237 39.9463 41.3239Z" fill="#333333"/>
<path id="Vector_13" d="M41.8792 21.5799C40.6771 21.5799 39.4749 21.1224 38.5597 20.2072C36.7298 18.3773 36.7298 15.3999 38.5597 13.5699C40.3899 11.7397 43.3684 11.7397 45.1986 13.5699C47.0285 15.3999 47.0285 18.3773 45.1986 20.2072C44.2836 21.1224 43.0814 21.5799 41.8792 21.5799ZM41.8792 13.8934C41.1117 13.8934 40.3439 14.1856 39.7597 14.7699C38.5916 15.9382 38.5916 17.839 39.7597 19.0072C40.9284 20.1758 42.8299 20.176 43.9988 19.0072C45.1669 17.839 45.1669 15.9382 43.9988 14.7699C43.4145 14.1856 42.647 13.8934 41.8792 13.8934Z" fill="#333333"/>
<path id="Vector_14" d="M43.0386 18.8969C42.8214 18.8969 42.6042 18.8141 42.4386 18.6483C42.1073 18.3169 42.1073 17.7796 42.4387 17.4483C42.5904 17.2968 42.6704 17.1037 42.6704 16.8898C42.6704 16.676 42.5901 16.4827 42.4387 16.3312C42.287 16.1795 42.0937 16.0994 41.8792 16.0994C41.4105 16.0994 41.0307 15.7194 41.0307 15.2509C41.0307 14.7823 41.4105 14.4023 41.8792 14.4023C42.5438 14.4023 43.1688 14.6611 43.6385 15.131C44.1086 15.6011 44.3674 16.2256 44.3674 16.8897C44.3674 17.5539 44.1086 18.1784 43.6385 18.6483C43.4729 18.8139 43.2557 18.8969 43.0386 18.8969Z" fill="white"/>
<path id="Vector_15" d="M11.2976 59.1656C11.1885 59.1656 11.0779 59.1443 10.9711 59.0999C10.5385 58.9193 10.3344 58.4224 10.515 57.99L21.6559 31.2992C21.8363 30.8666 22.3339 30.6626 22.7658 30.843C23.1984 31.0236 23.4025 31.5205 23.222 31.9529L12.081 58.6437C11.945 58.9692 11.6297 59.1656 11.2976 59.1656Z" fill="#333333"/>
<path id="Vector_16" d="M43.625 59.165C43.2929 59.165 42.9776 58.9687 42.8416 58.643L35.2491 40.4509C35.0687 40.0185 35.2729 39.5214 35.7053 39.341C36.1375 39.1606 36.6347 39.3649 36.8151 39.7972L44.4076 57.9893C44.588 58.4217 44.3839 58.9188 43.9515 59.0992C43.8447 59.144 43.7339 59.165 43.625 59.165Z" fill="#333333"/>
<path id="Vector_17" d="M28.1223 59.1662C27.6535 59.1662 27.2737 58.7863 27.2737 58.3177V37.0048C27.2737 36.5362 27.6535 36.1562 28.1223 36.1562C28.591 36.1562 28.9708 36.5362 28.9708 37.0048V58.3177C28.9708 58.7863 28.5908 59.1662 28.1223 59.1662Z" fill="#333333"/>
<path id="Vector_18" d="M48.843 64.0006H6.07959C5.61087 64.0006 5.23108 63.6206 5.23108 63.1521V58.3173C5.23108 57.8487 5.61087 57.4688 6.07959 57.4688H48.843C49.3117 57.4688 49.6915 57.8487 49.6915 58.3173V63.1521C49.6915 63.6208 49.3117 64.0006 48.843 64.0006ZM6.92811 62.3036H47.9945V59.1658H6.92811V62.3036Z" fill="#333333"/>
<path id="Vector_19" d="M32.5118 27.1044C32.2947 27.1044 32.0774 27.0216 31.9119 26.8559C31.5805 26.5245 31.5805 25.9872 31.9119 25.656L38.5597 19.0082C38.8908 18.677 39.4284 18.677 39.7595 19.0082C40.0909 19.3396 40.0909 19.8769 39.7595 20.2082L33.1117 26.8559C32.9461 27.0214 32.7288 27.1044 32.5118 27.1044Z" fill="#333333"/>
<path id="Vector_20" d="M24.378 15.9102C23.9327 15.9102 23.559 15.5634 23.5318 15.1128C23.5037 14.6451 23.86 14.2431 24.3276 14.2147L39.1083 13.3221C39.5742 13.2919 39.9784 13.6501 40.0066 14.1178C40.0347 14.5855 39.6784 14.9876 39.2108 15.0159L24.4301 15.9085C24.4126 15.9097 24.3953 15.9102 24.378 15.9102Z" fill="#333333"/>
<path id="Vector_21" d="M43.7063 35.2376C43.689 35.2376 43.6717 35.2371 43.6542 35.2361C43.1865 35.2077 42.8303 34.8057 42.8584 34.338L43.7512 19.5572C43.7794 19.0895 44.1833 18.7316 44.6495 18.7615C45.1172 18.7898 45.4734 19.1919 45.4452 19.6596L44.5524 34.4403C44.5253 34.8906 44.1514 35.2376 43.7063 35.2376Z" fill="#333333"/>
<path id="Vector_22" d="M48.843 58.3164H33.1889V63.1512H48.843V58.3164Z" fill="#149EF6"/>
<g id="Group_2">
<path id="Vector_23" d="M48.843 58.3164H33.1889V63.1512H48.843V58.3164Z" fill="#149EF6"/>
<path id="Vector_24" d="M48.843 64.0006H33.1889C32.7202 64.0006 32.3404 63.6206 32.3404 63.1521V58.3173C32.3404 57.8487 32.7202 57.4688 33.1889 57.4688H48.843C49.3117 57.4688 49.6915 57.8487 49.6915 58.3173V63.1521C49.6915 63.6208 49.3117 64.0006 48.843 64.0006ZM34.0374 62.3036H47.9945V59.1658H34.0374V62.3036Z" fill="#333333"/>
</g>
<path id="Vector_25" d="M46.8726 61.1709C46.6488 61.1709 46.4298 61.081 46.2718 60.9231C46.233 60.8841 46.1973 60.84 46.1668 60.7942C46.1361 60.7483 46.1089 60.6991 46.0887 60.6482C46.0665 60.5956 46.0512 60.543 46.0395 60.4887C46.0292 60.4344 46.0241 60.3784 46.0241 60.3224C46.0241 60.2681 46.0292 60.2121 46.0395 60.1578C46.0512 60.1035 46.0665 60.0492 46.0887 59.9983C46.1089 59.9473 46.1361 59.8981 46.1668 59.8523C46.1973 59.8048 46.233 59.7624 46.2718 59.7233C46.4687 59.5265 46.7625 59.4348 47.0374 59.4908C47.0915 59.5027 47.146 59.518 47.1967 59.5401C47.2476 59.5604 47.2968 59.5876 47.3427 59.6181C47.3902 59.6487 47.4326 59.6843 47.4716 59.7233C47.5107 59.7624 47.5463 59.8048 47.5786 59.8523C47.6074 59.8981 47.6346 59.9473 47.6566 59.9983C47.677 60.0492 47.6941 60.1035 47.7041 60.1578C47.7143 60.2121 47.7211 60.2681 47.7211 60.3224C47.7211 60.3784 47.7143 60.4344 47.7041 60.4887C47.694 60.543 47.677 60.5956 47.6566 60.6482C47.6346 60.6991 47.6093 60.7483 47.5786 60.7942C47.5465 60.84 47.5108 60.8841 47.4716 60.9231C47.4328 60.9622 47.3904 60.9978 47.3427 61.0284C47.2967 61.0589 47.2475 61.0844 47.1967 61.1064C47.1458 61.1268 47.0915 61.1438 47.0374 61.1556C46.9829 61.1658 46.9269 61.1709 46.8726 61.1709Z" fill="white"/>
<path id="Vector_26" d="M37.8392 51.5937C37.507 51.5937 37.1917 51.3974 37.0558 51.0717L36.5767 49.9235C36.3963 49.4911 36.6007 48.9942 37.0329 48.8137C37.466 48.6333 37.9624 48.8376 38.1427 49.27L38.6218 50.4182C38.8022 50.8506 38.5979 51.3475 38.1657 51.5281C38.0587 51.5727 37.9481 51.5937 37.8392 51.5937Z" fill="white"/>
<path id="Vector_27" d="M39.8114 56.3201C39.4793 56.3201 39.164 56.1238 39.0281 55.7981L38.0518 53.4588C37.8714 53.0264 38.0755 52.5293 38.508 52.3489C38.9404 52.1683 39.4376 52.3728 39.6178 52.8051L40.5941 55.1444C40.7745 55.5768 40.5704 56.0739 40.1379 56.2543C40.031 56.2991 39.9202 56.3201 39.8114 56.3201Z" fill="white"/>
</g>
</g>
<defs>
<clipPath id="clip0_422_10424">
<rect width="64" height="64" fill="white"/>
</clipPath>
</defs>
</svg>
