<svg width="40" height="40" viewBox="0 0 40 40" fill="none" xmlns="http://www.w3.org/2000/svg">
<g id="chart">
<g id="Vector">
<path fill-rule="evenodd" clip-rule="evenodd" d="M23.9498 3.33203C25.5569 3.33203 26.8665 4.64168 26.8665 6.2487V8.91532C26.8665 10.5223 25.5569 11.832 23.9498 11.832H9.58317C7.97615 11.832 6.6665 10.5223 6.6665 8.91532V6.2487C6.6665 4.64168 7.97615 3.33203 9.58317 3.33203H23.9498ZM24.3665 6.2487C24.3665 6.02239 24.1761 5.83203 23.9498 5.83203H9.58317C9.35686 5.83203 9.1665 6.02239 9.1665 6.2487V8.91532C9.1665 9.14163 9.35686 9.33199 9.58317 9.33199H23.9498C24.1761 9.33199 24.3665 9.14163 24.3665 8.91532V6.2487Z" fill="#4D5C66"/>
<path fill-rule="evenodd" clip-rule="evenodd" d="M29.2665 15.3321C30.8735 15.3321 32.1832 16.6417 32.1832 18.2487V20.9153C32.1832 22.5224 30.8735 23.832 29.2665 23.832H9.58317C7.97615 23.832 6.6665 22.5224 6.6665 20.9153V18.2487C6.6665 16.6417 7.97615 15.3321 9.58317 15.3321H29.2665ZM29.6832 18.2487C29.6832 18.0224 29.4928 17.8321 29.2665 17.8321H9.58317C9.35686 17.8321 9.1665 18.0224 9.1665 18.2487V20.9153C9.1665 21.1417 9.35686 21.332 9.58317 21.332H29.2665C29.4928 21.332 29.6832 21.1417 29.6832 20.9153V18.2487Z" fill="#4D5C66"/>
<path fill-rule="evenodd" clip-rule="evenodd" d="M34.5832 27.3321C36.1902 27.3321 37.4998 28.6417 37.4998 30.2487V32.9154C37.4998 34.5224 36.1902 35.832 34.5832 35.832H9.58317C7.97615 35.832 6.6665 34.5224 6.6665 32.9154V30.2487C6.6665 28.6417 7.97615 27.3321 9.58317 27.3321H34.5832ZM34.9998 30.2487C34.9998 30.0224 34.8095 29.8321 34.5832 29.8321H9.58317C9.35686 29.8321 9.1665 30.0224 9.1665 30.2487V32.9154C9.1665 33.1417 9.35686 33.332 9.58317 33.332H34.5832C34.8095 33.332 34.9998 33.1417 34.9998 32.9154V30.2487Z" fill="#4D5C66"/>
<path fill-rule="evenodd" clip-rule="evenodd" d="M2.9165 35.832C2.22615 35.832 1.6665 35.2724 1.6665 34.582V4.58203C1.6665 3.89168 2.22615 3.33203 2.9165 3.33203C3.60686 3.33203 4.1665 3.89168 4.1665 4.58203V34.582C4.1665 35.2724 3.60686 35.832 2.9165 35.832Z" fill="#4D5C66"/>
</g>
</g>
</svg>
