<svg width="24" height="24" viewBox="0 0 24 24" fill="none" xmlns="http://www.w3.org/2000/svg">
<path d="M22.75 12C22.75 14.1261 22.1195 16.2046 20.9383 17.9724C19.7571 19.7402 18.0782 21.1181 16.1139 21.9317C14.1495 22.7453 11.9881 22.9582 9.90278 22.5434C7.81749 22.1287 5.90202 21.1048 4.39861 19.6014C2.89519 18.098 1.87135 16.1825 1.45656 14.0972C1.04177 12.0119 1.25466 9.85046 2.0683 7.88615C2.88194 5.92185 4.2598 4.24293 6.02762 3.0617C7.79545 1.88048 9.87386 1.25 12 1.25" stroke="#1575F3" stroke-linecap="round" stroke-linejoin="round"/>
<path d="M17.375 12C17.375 13.0631 17.0598 14.1023 16.4692 14.9862C15.8785 15.8701 15.0391 16.559 14.0569 16.9659C13.0748 17.3727 11.994 17.4791 10.9514 17.2717C9.90874 17.0643 8.95101 16.5524 8.1993 15.8007C7.4476 15.049 6.93568 14.0913 6.72828 13.0486C6.52089 12.006 6.62733 10.9252 7.03415 9.94308C7.44097 8.96092 8.1299 8.12146 9.01381 7.53085C9.89773 6.94024 10.9369 6.625 12 6.625" stroke="#1575F3" stroke-linecap="round" stroke-linejoin="round"/>
<path d="M12 12.375C12.2071 12.375 12.375 12.2071 12.375 12C12.375 11.7929 12.2071 11.625 12 11.625C11.7929 11.625 11.625 11.7929 11.625 12C11.625 12.2071 11.7929 12.375 12 12.375Z" fill="#1575F3"/>
</svg>
