<svg xmlns="http://www.w3.org/2000/svg" width="65" height="80" viewBox="0 0 65 80" fill="none">
  <path d="M2.22032 69.9539C2.20915 72.218 3.11704 74.2738 4.59421 75.764C6.07139 77.2542 8.11785 78.1825 10.382 78.1937C12.6461 78.2048 14.7019 77.2969 16.1921 75.8198C17.6823 74.3426 18.6106 72.298 18.6218 70.0339V70.032C18.6218 70.0041 18.6218 69.9762 18.6218 69.9501C18.6106 67.7195 17.7065 65.6972 16.2479 64.2238C14.7726 62.7317 12.7261 61.8034 10.4601 61.7922C8.35227 61.7829 6.42859 62.568 4.97002 63.8684C4.86025 63.9652 4.75235 64.0656 4.65003 64.168C3.15797 65.6451 2.23148 67.6897 2.22032 69.9539ZM10.4099 72.2775C9.14853 72.2719 8.13088 71.245 8.13646 69.9818C8.14204 68.7204 9.17085 67.7028 10.4322 67.7083C11.6936 67.7158 12.7112 68.7427 12.7057 70.0041C12.7001 71.2655 11.6713 72.285 10.4099 72.2775Z" fill="#303E47"/>
  <path d="M36.7218 32.9296H5.71411V42.481H36.7218V32.9296Z" fill="#149EF6"/>
  <path d="M19.591 52.1552H9.1875V58.356H19.591V52.1552Z" fill="#149EF6"/>
  <path d="M19.591 49.426H9.1875V52.1552H19.591V49.426Z" fill="#149EF6"/>
  <path d="M19.591 46.3246H9.1875V49.426H19.591V46.3246Z" fill="#149EF6"/>
  <path d="M14.4935 16.0157L7.80713 22.7021C11.5001 26.395 17.4888 26.395 21.1817 22.7021C24.8746 19.0091 24.8746 13.0205 21.1817 9.32751L14.4953 16.0157H14.4935Z" fill="#D1D7DB"/>
  <path d="M23.0775 49.426H19.5911V52.1552H23.0775V49.426Z" fill="#D1D7DB"/>
  <path d="M23.0775 52.1552H19.5911V58.356H23.0775V52.1552Z" fill="#D1D7DB"/>
  <path d="M33.4827 52.1552H23.0774V58.356H33.4827V52.1552Z" fill="#149EF6"/>
  <path d="M33.4827 49.426H23.0774V52.1552H33.4827V49.426Z" fill="#149EF6"/>
  <path d="M33.4827 46.3246H23.0774V49.426H33.4827V46.3246Z" fill="#149EF6"/>
  <path d="M24.3816 69.9557C24.3704 72.2198 25.2783 74.2737 26.7555 75.7639C28.2326 77.2541 30.2791 78.1825 32.5432 78.1936C34.8074 78.2048 36.8631 77.2969 38.3533 75.8197C39.8435 74.3426 40.7719 72.298 40.783 70.0338V70.032C40.783 70.0041 40.783 69.9761 40.783 69.9501C40.7719 67.7195 39.8677 65.6972 38.4092 64.2237C36.9338 62.7317 34.8874 61.8033 32.6214 61.7922C30.3572 61.781 28.3015 62.6907 26.8113 64.1679C25.3192 65.6451 24.3927 67.6897 24.3816 69.9538V69.9557ZM32.5711 72.2775C31.3098 72.2719 30.2921 71.245 30.2977 69.9817C30.3033 68.7204 31.3321 67.7027 32.5935 67.7083C33.8548 67.7157 34.8725 68.7427 34.8669 70.0041C34.8613 71.2654 33.8325 72.2849 32.5711 72.2775Z" fill="#303E47"/>
  <path d="M33.4828 58.356H60.2487H63.4653V42.481H56.5036H43.356H36.7218H5.71413H1.69934V58.356H4.96996H9.18754V52.1552V49.426V46.3246H19.591V49.426H23.0774V46.3246H33.4828V49.426V52.1552V58.356Z" fill="#232D33"/>
  <path d="M43.3561 38.6355V42.481H56.5037V38.6355H52.8442H47.0155H43.3561Z" fill="#149EF6"/>
  <path d="M54.9999 44.0001V56.0001H61.9999V44.0001H60.0515H56.9482H54.9999Z" fill="#149EF6"/>
  <path d="M54.7046 78.1937C56.9688 78.2048 59.0245 77.2969 60.5147 75.8198C62.0049 74.3426 62.9333 72.298 62.9444 70.0339V70.032C62.9556 67.7679 62.0477 65.7121 60.5705 64.2219C60.4664 64.1159 60.3584 64.0135 60.2487 63.9149C58.8031 62.6052 56.8888 61.8033 54.7846 61.7922H54.7828C52.5186 61.7829 50.4629 62.6908 48.9727 64.1679C47.4806 65.6451 46.5541 67.6897 46.5429 69.9539V69.9557C46.5318 72.2199 47.4397 74.2738 48.9168 75.764C50.394 77.2542 52.4405 78.1825 54.7046 78.1937ZM54.7325 72.2775C53.4712 72.2719 52.4535 71.245 52.4591 69.9818C52.4647 68.7204 53.4935 67.7027 54.7549 67.7083C56.0162 67.7158 57.0339 68.7427 57.0283 70.0041C57.0227 71.2655 55.9939 72.285 54.7325 72.2775Z" fill="#303E47"/>
  <path d="M52.8442 7.87714H47.0155V38.6355H52.8442V7.87714Z" fill="#D1D7DB"/>
  <path d="M47.0155 0.930359V7.87717H52.8442H58.7976V6.63627V2.17126V0.930359H47.0155Z" fill="#149EF6"/>
  <path d="M62.3955 2.17126H58.7975V6.63628H62.3955V2.17126Z" fill="#149EF6"/>
  <path d="M60.2487 58.356H33.4828H23.0775H19.591H9.18755H4.96997V63.8684C6.42854 62.5679 8.35222 61.7829 10.4601 61.7922C12.7261 61.8033 14.7725 62.7317 16.2478 64.2237C17.7064 65.6972 18.6106 67.7195 18.6217 69.9501L24.3816 69.9557V69.9538C24.3928 67.6897 25.3193 65.6451 26.8113 64.1679C28.3015 62.6907 30.3573 61.781 32.6214 61.7922C34.8874 61.8033 36.9339 62.7317 38.4092 64.2237C39.8678 65.6972 40.7719 67.7195 40.7831 69.9501L46.5429 69.9557V69.9538C46.5541 67.6897 47.4806 65.6451 48.9727 64.1679C50.4629 62.6907 52.5186 61.7829 54.7828 61.7922H54.7846C56.8888 61.8033 58.8031 62.6052 60.2487 63.9149V58.356Z" fill="#4D5C66"/>
  <path d="M54.7464 79.1238C54.731 79.1238 54.7155 79.1238 54.7001 79.1238C52.262 79.1117 49.9735 78.151 48.2561 76.4188C46.5392 74.6867 45.6006 72.3899 45.6127 69.951C45.6246 67.5102 46.5855 65.2224 48.3181 63.5069C50.0395 61.8005 52.3219 60.8619 54.7477 60.8619C54.7607 60.8619 54.7736 60.8619 54.7866 60.8619C57.0438 60.8738 59.2044 61.7133 60.8733 63.2256C60.9998 63.3391 61.1221 63.4559 61.2341 63.57C61.5942 63.9363 61.589 64.5253 61.2225 64.8855C60.8562 65.2456 60.2674 65.2408 59.907 64.8741C59.8218 64.7872 59.7273 64.6974 59.6267 64.6068C58.2954 63.4005 56.5748 62.732 54.7795 62.7225C54.7691 62.7225 54.7589 62.7225 54.7485 62.7225C52.8157 62.7225 50.9984 63.4699 49.6273 64.8289C48.2476 66.195 47.4826 68.0167 47.4731 69.9587C47.4634 71.9021 48.2107 73.7307 49.5774 75.1094C50.9452 76.4891 52.7675 77.2543 54.7092 77.2638C56.6491 77.2774 58.481 76.5259 59.86 75.1595C61.2397 73.7919 62.0047 71.9701 62.0143 70.0295C62.0168 69.5339 61.9695 69.0405 61.8737 68.5609C61.7732 68.0571 62.1001 67.5673 62.6039 67.4666C63.1071 67.3656 63.5977 67.693 63.6982 68.1968C63.8184 68.7989 63.8777 69.418 63.8748 70.0368C63.8627 72.476 62.9019 74.7638 61.1695 76.4807C59.4486 78.1862 57.169 79.1238 54.7464 79.1238Z" fill="#232D33"/>
  <path d="M54.7006 80.0001C54.6993 80.0001 54.6978 80.0001 54.6967 80.0001C54.1829 79.9979 53.7683 79.5796 53.7704 79.0658L53.776 77.7378C53.778 77.2255 54.1942 76.8113 54.7062 76.8113C54.7075 76.8113 54.7088 76.8113 54.7101 76.8113C55.2238 76.8134 55.6385 77.2316 55.6364 77.7453L55.6308 79.074C55.6288 79.5862 55.2124 80.0001 54.7006 80.0001Z" fill="#232D33"/>
  <path d="M54.7809 63.1763C54.7796 63.1763 54.7785 63.1763 54.7772 63.1763C54.2634 63.1743 53.8487 62.756 53.8507 62.2424L53.8582 60.9118C53.8615 60.4002 54.2773 59.9875 54.7882 59.9875C54.7904 59.9875 54.7923 59.9875 54.7943 59.9875C55.3082 59.9909 55.7217 60.41 55.7186 60.9237L55.7111 62.2498C55.7091 62.7622 55.2929 63.1763 54.7809 63.1763Z" fill="#232D33"/>
  <path d="M61.1285 77.3713C60.8887 77.3713 60.6489 77.2791 60.4668 77.0951L59.5347 76.1537C59.1725 75.7894 59.1742 75.2004 59.5386 74.8382C59.9029 74.476 60.4917 74.4776 60.8541 74.8421L61.7901 75.7872C62.151 76.1526 62.1477 76.7416 61.7823 77.1027C61.6011 77.2818 61.3648 77.3713 61.1285 77.3713Z" fill="#232D33"/>
  <path d="M49.2926 65.42C49.0537 65.42 48.8148 65.3284 48.633 65.1457L47.6969 64.2001C47.3358 63.8347 47.3393 63.2457 47.7049 62.8846C48.0703 62.5237 48.6596 62.5272 49.0202 62.8926L49.9521 63.8336C50.3143 64.1979 50.3126 64.7869 49.9485 65.1491C49.7671 65.3297 49.5298 65.42 49.2926 65.42Z" fill="#232D33"/>
  <path d="M46.9966 70.8859L40.7821 70.8803C40.2682 70.8798 39.8522 70.4628 39.8528 69.9492C39.8533 69.4357 40.2697 69.0199 40.783 69.0199C40.7834 69.0199 40.7836 69.0199 40.7839 69.0199L46.9968 69.0255C47.5106 69.0255 47.927 69.442 47.927 69.9557C47.927 70.4694 47.5105 70.8859 46.9966 70.8859Z" fill="#232D33"/>
  <path d="M63.819 70.9678C63.8168 70.9678 63.8151 70.9678 63.813 70.9678L62.4864 70.9603C61.9727 70.9581 61.558 70.5399 61.5601 70.0262C61.5623 69.5139 61.9783 69.0999 62.4903 69.0999C62.4916 69.0999 62.4929 69.0999 62.4942 69.0999L63.8244 69.1074C64.3382 69.1107 64.752 69.5299 64.7488 70.0435C64.7459 70.5551 64.3299 70.9678 63.819 70.9678Z" fill="#232D33"/>
  <path d="M60.2486 65.4721C60.0096 65.4721 59.7707 65.3806 59.5888 65.1975C59.2267 64.8332 59.2284 64.244 59.5928 63.882L60.5379 62.9462C60.9033 62.5853 61.4921 62.5886 61.8534 62.954C62.2144 63.3194 62.211 63.9084 61.8456 64.2695L60.9041 65.2016C60.7229 65.3821 60.4857 65.4721 60.2486 65.4721Z" fill="#232D33"/>
  <path d="M48.2955 77.31C48.0561 77.31 47.8168 77.2181 47.6347 77.0346C47.2732 76.6698 47.2756 76.0808 47.6407 75.7191L48.5867 74.7824C48.9521 74.4213 49.5409 74.4247 49.9022 74.7902C50.2631 75.1556 50.2597 75.7446 49.8944 76.1057L48.9502 77.0404C48.769 77.2201 48.5322 77.31 48.2955 77.31Z" fill="#232D33"/>
  <path d="M32.5849 79.1238C32.5695 79.1238 32.554 79.1238 32.5386 79.1238C30.1005 79.1117 27.812 78.151 26.0946 76.4188C24.378 74.6869 23.4393 72.39 23.4512 69.9512C23.4631 67.5105 24.4238 65.2228 26.1562 63.5073C27.8782 61.8003 30.158 60.8619 32.5795 60.8619C32.595 60.8619 32.6102 60.8619 32.6256 60.8619C35.0669 60.874 37.3558 61.8355 39.0705 63.5696C40.7624 65.2788 41.701 67.5431 41.7131 69.9453V70.032C41.701 72.4756 40.7403 74.7634 39.0078 76.4804C37.2873 78.1862 35.0077 79.1238 32.5849 79.1238ZM32.5799 62.7224C30.6519 62.7224 28.8373 63.4695 27.466 64.8287L27.4656 64.8291C26.0863 66.1948 25.3213 68.0166 25.3118 69.9585C25.3023 71.9021 26.0496 73.7305 27.4161 75.1092C28.7839 76.4889 30.6062 77.2541 32.5479 77.2636C32.56 77.2636 32.5726 77.2636 32.5847 77.2636C34.514 77.2636 36.3284 76.5172 37.6983 75.1593C39.0782 73.7917 39.8432 71.97 39.8528 70.0293V69.9503C39.8432 68.0426 39.0958 66.2397 37.7481 64.8784C36.3828 63.4978 34.5607 62.7322 32.6169 62.7227C32.6046 62.7224 32.5922 62.7224 32.5799 62.7224Z" fill="#232D33"/>
  <path d="M32.5393 80.0001C32.538 80.0001 32.5366 80.0001 32.5354 80.0001C32.0216 79.9979 31.6071 79.5796 31.6091 79.0658L31.6147 77.7378C31.6168 77.2255 32.0329 76.8113 32.5449 76.8113C32.5462 76.8113 32.5475 76.8113 32.5488 76.8113C33.0625 76.8134 33.4772 77.2316 33.4751 77.7453L33.4696 79.074C33.4675 79.5862 33.0512 80.0001 32.5393 80.0001Z" fill="#232D33"/>
  <path d="M32.6195 63.1763C32.6182 63.1763 32.6171 63.1763 32.6158 63.1763C32.102 63.1743 31.6873 62.756 31.6893 62.2424L31.6968 60.9118C31.7001 60.4002 32.1159 59.9875 32.6268 59.9875C32.629 59.9875 32.6309 59.9875 32.6329 59.9875C33.1468 59.9909 33.5604 60.41 33.5572 60.9237L33.5498 62.2498C33.5477 62.7622 33.1315 63.1763 32.6195 63.1763Z" fill="#232D33"/>
  <path d="M38.9673 77.3713C38.7275 77.3713 38.4877 77.2791 38.3055 77.0951L37.3735 76.1537C37.0112 75.7894 37.0129 75.2004 37.3774 74.8382C37.7416 74.476 38.3305 74.4776 38.6929 74.8421L39.6289 75.7872C39.9898 76.1526 39.9864 76.7416 39.621 77.1027C39.4398 77.2818 39.2036 77.3713 38.9673 77.3713Z" fill="#232D33"/>
  <path d="M27.1313 65.42C26.8924 65.42 26.6535 65.3284 26.4718 65.1457L25.5356 64.2001C25.1745 63.8347 25.178 63.2457 25.5436 62.8846C25.9092 62.5237 26.4982 62.5272 26.8589 62.8926L27.7908 63.8336C28.153 64.1979 28.1514 64.7869 27.7873 65.1491C27.6059 65.3297 27.3685 65.42 27.1313 65.42Z" fill="#232D33"/>
  <path d="M24.8355 70.8859L18.6208 70.8803C18.107 70.8798 17.691 70.4628 17.6915 69.9492C17.6921 69.4357 18.1084 69.0199 18.6217 69.0199C18.6221 69.0199 18.6223 69.0199 18.6227 69.0199L24.8357 69.0255C25.3496 69.0255 25.7659 69.442 25.7659 69.9557C25.7659 70.4694 25.3494 70.8859 24.8355 70.8859Z" fill="#232D33"/>
  <path d="M41.6576 70.9678C41.6554 70.9678 41.6537 70.9678 41.6517 70.9678L40.325 70.9603C39.8113 70.9581 39.3966 70.5399 39.3987 70.0262C39.4009 69.5139 39.8169 69.0999 40.3289 69.0999C40.3302 69.0999 40.3315 69.0999 40.3328 69.0999L41.663 69.1074C42.1769 69.1107 42.5906 69.5299 42.5875 70.0435C42.5843 70.5551 42.1685 70.9678 41.6576 70.9678Z" fill="#232D33"/>
  <path d="M38.0873 65.4721C37.8475 65.4721 37.6077 65.3798 37.4256 65.1956C37.0647 64.8302 37.068 64.2412 37.4334 63.8801L38.3757 62.9471C38.7403 62.5856 39.3292 62.5878 39.6912 62.953C40.0527 63.3179 40.0503 63.9069 39.6853 64.2685L38.7411 65.2034C38.5599 65.3826 38.3234 65.4721 38.0873 65.4721Z" fill="#232D33"/>
  <path d="M26.134 77.31C25.8946 77.31 25.6553 77.2181 25.4732 77.0346C25.1117 76.6698 25.1141 76.0808 25.4792 75.7191L26.4252 74.7824C26.7906 74.4213 27.3794 74.4247 27.7407 74.7902C28.1016 75.1556 28.0983 75.7446 27.7329 76.1057L26.7887 77.0404C26.6075 77.2201 26.3707 77.31 26.134 77.31Z" fill="#232D33"/>
  <path d="M10.4236 79.1238C10.4082 79.1238 10.3928 79.1238 10.3773 79.1238C7.93924 79.1117 5.65074 78.151 3.93338 76.4188C2.21658 74.6869 1.278 72.3895 1.28991 69.9494C1.302 67.5102 2.26291 65.2222 3.99552 63.5071C4.10324 63.3992 4.22528 63.2849 4.35477 63.1707C6.02431 61.6822 8.17942 60.8619 10.4233 60.8619C10.4369 60.8619 10.4504 60.8619 10.4642 60.8619C12.9058 60.874 15.1947 61.8355 16.9095 63.5696C18.6015 65.2789 19.5401 67.5433 19.552 69.9454V70.032C19.5401 72.4752 18.5794 74.763 16.8469 76.4804C15.126 78.1862 12.8465 79.1238 10.4236 79.1238ZM3.15052 69.9583C3.14103 71.9011 3.88836 73.7303 5.25484 75.109C6.62262 76.4887 8.4449 77.2539 10.3866 77.2634C10.3987 77.2634 10.4114 77.2634 10.4235 77.2634C12.3525 77.2634 14.1672 76.517 15.5374 75.1589C16.9171 73.7913 17.6821 71.9694 17.6916 70.0292V69.9499C17.6821 68.0424 16.9348 66.2395 15.5869 64.878C14.2215 63.4974 12.3994 62.7318 10.4556 62.7224C10.4449 62.7224 10.4339 62.7224 10.4231 62.7224C8.63653 62.7224 6.92122 63.3752 5.58916 64.5627C5.48516 64.6544 5.39195 64.7417 5.30823 64.8256C3.92519 66.1945 3.16 68.0162 3.15052 69.9583Z" fill="#232D33"/>
  <path d="M10.3763 80.0001C10.3741 80.0001 10.3722 80.0001 10.3702 80.0001C9.85635 79.9968 9.44278 79.5776 9.44594 79.0639L9.45338 77.738C9.45543 77.2257 9.87161 76.8115 10.3836 76.8115C10.3849 76.8115 10.3862 76.8115 10.3875 76.8115C10.9012 76.8136 11.3159 77.2318 11.3138 77.7455L11.3064 79.076C11.3032 79.5875 10.8872 80.0001 10.3763 80.0001Z" fill="#232D33"/>
  <path d="M10.4582 63.1763C10.4569 63.1763 10.4558 63.1763 10.4545 63.1763C9.9406 63.1743 9.52592 62.756 9.52796 62.2424L9.5354 60.9118C9.53875 60.4002 9.95456 59.9875 10.4654 59.9875C10.4677 59.9875 10.4695 59.9875 10.4716 59.9875C10.9854 59.9909 11.399 60.41 11.3958 60.9237L11.3884 62.2498C11.3863 62.7622 10.9702 63.1763 10.4582 63.1763Z" fill="#232D33"/>
  <path d="M16.8059 77.3713C16.5659 77.3713 16.3261 77.2791 16.1441 77.0949L15.2123 76.1539C14.85 75.7896 14.8517 75.2006 15.2158 74.8384C15.5801 74.4761 16.1693 74.4776 16.5313 74.8419L17.4675 75.7874C17.8286 76.1527 17.825 76.7418 17.4595 77.1029C17.2784 77.2818 17.042 77.3713 16.8059 77.3713Z" fill="#232D33"/>
  <path d="M4.96987 65.42C4.73099 65.42 4.49211 65.3284 4.31017 65.1456L3.37419 64.2003C3.01327 63.8349 3.01661 63.2459 3.382 62.8848C3.74739 62.5237 4.33621 62.527 4.69751 62.8926L5.62958 63.834C5.9918 64.1982 5.99013 64.7872 5.62567 65.1495C5.44428 65.3299 5.20689 65.42 4.96987 65.42Z" fill="#232D33"/>
  <path d="M2.67415 70.8859C2.67285 70.8859 2.67155 70.8859 2.67024 70.8859L1.34172 70.8803C0.828054 70.8781 0.413366 70.4599 0.415413 69.9462C0.417645 69.4338 0.833636 69.0199 1.34562 69.0199C1.34693 69.0199 1.34823 69.0199 1.34953 69.0199L2.67806 69.0255C3.19172 69.0277 3.60641 69.4459 3.60436 69.9596C3.60213 70.472 3.18614 70.8859 2.67415 70.8859Z" fill="#232D33"/>
  <path d="M19.4962 70.9678C19.494 70.9678 19.4923 70.9678 19.4903 70.9678L18.1636 70.9603C17.65 70.9581 17.2353 70.5399 17.2373 70.0262C17.2395 69.5139 17.6555 69.0999 18.1675 69.0999C18.1688 69.0999 18.1701 69.0999 18.1714 69.0999L19.5016 69.1074C20.0155 69.1107 20.4292 69.5299 20.4261 70.0435C20.4229 70.5551 20.0071 70.9678 19.4962 70.9678Z" fill="#232D33"/>
  <path d="M15.9258 65.4721C15.686 65.4721 15.4462 65.3798 15.2641 65.1956C14.9032 64.8302 14.9065 64.2412 15.2719 63.8801L16.2142 62.9471C16.5788 62.5856 17.1677 62.5878 17.5297 62.953C17.8912 63.3179 17.8888 63.9069 17.5237 64.2685L16.5796 65.2034C16.3986 65.3826 16.1621 65.4721 15.9258 65.4721Z" fill="#232D33"/>
  <path d="M3.97253 77.31C3.73309 77.31 3.49384 77.2181 3.3117 77.0346C2.95022 76.6698 2.95264 76.0808 3.31766 75.7191L4.25996 74.7843C4.62442 74.422 5.21324 74.4239 5.57547 74.7884C5.93751 75.1526 5.93583 75.7418 5.57137 76.1039L4.62721 77.0406C4.446 77.2201 4.20936 77.31 3.97253 77.31Z" fill="#232D33"/>
  <path d="M64.3956 58.356H62.5352V43.4112H56.5037V41.5508H63.4654C63.9792 41.5508 64.3956 41.9673 64.3956 42.481V58.356Z" fill="#232D33"/>
  <path d="M43.3561 41.5508H36.7218V43.4112H43.3561V41.5508Z" fill="#232D33"/>
  <path d="M2.62959 58.356H0.769165V42.481C0.769165 41.9673 1.18553 41.5508 1.69938 41.5508H5.71417V43.4112H2.62959V58.356Z" fill="#232D33"/>
  <path d="M47.9456 7.87714H46.0852V38.6355H47.9456V7.87714Z" fill="#232D33"/>
  <path d="M52.8441 39.5657C52.3303 39.5657 51.9139 39.1491 51.9139 38.6355V17.1787C51.9139 16.665 52.3303 16.2485 52.8441 16.2485C53.358 16.2485 53.7744 16.665 53.7744 17.1787V38.6355C53.7744 39.1491 53.358 39.5657 52.8441 39.5657Z" fill="#232D33"/>
  <path d="M52.8441 14.6361C52.3303 14.6361 51.9139 14.2195 51.9139 13.7059V7.87717C51.9139 7.36351 52.3303 6.94696 52.8441 6.94696C53.358 6.94696 53.7744 7.36351 53.7744 7.87717V13.7059C53.7744 14.2195 53.358 14.6361 52.8441 14.6361Z" fill="#232D33"/>
  <path d="M56.5036 43.4112H43.356C42.8421 43.4112 42.4258 42.9947 42.4258 42.481V38.6355C42.4258 38.1219 42.8421 37.7053 43.356 37.7053H56.5036C57.0174 37.7053 57.4338 38.1219 57.4338 38.6355V42.481C57.4338 42.9947 57.0174 43.4112 56.5036 43.4112ZM44.2862 41.5508H55.5734V39.5657H44.2862V41.5508Z" fill="#232D33"/>
  <path d="M58.7975 3.10145C58.2837 3.10145 57.8673 2.6849 57.8673 2.17123V1.86054H53.2168C52.703 1.86054 52.2866 1.444 52.2866 0.930333C52.2866 0.416671 52.703 0.00012207 53.2168 0.00012207H58.7975C59.3114 0.00012207 59.7277 0.416671 59.7277 0.930333V2.17123C59.7277 2.6849 59.3114 3.10145 58.7975 3.10145Z" fill="#232D33"/>
  <path d="M58.7975 8.80736H47.0154C46.5016 8.80736 46.0852 8.39081 46.0852 7.87715V0.930333C46.0852 0.416671 46.5016 0.00012207 47.0154 0.00012207H49.9921C50.5059 0.00012207 50.9223 0.416671 50.9223 0.930333C50.9223 1.444 50.5059 1.86054 49.9921 1.86054H47.9456V6.94694H57.8673V6.63625C57.8673 6.12258 58.2836 5.70604 58.7975 5.70604C59.3113 5.70604 59.7277 6.12258 59.7277 6.63625V7.87715C59.7277 8.39081 59.3113 8.80736 58.7975 8.80736Z" fill="#232D33"/>
  <path d="M36.7218 43.4112H5.71415C5.2003 43.4112 4.78394 42.9947 4.78394 42.481V32.9296C4.78394 32.4159 5.2003 31.9994 5.71415 31.9994H29.4035C29.9173 31.9994 30.3337 32.4159 30.3337 32.9296C30.3337 33.4433 29.9173 33.8598 29.4035 33.8598H6.64436V41.5508H35.7916V33.8598H32.5042C31.9904 33.8598 31.574 33.4433 31.574 32.9296C31.574 32.4159 31.9904 31.9994 32.5042 31.9994H36.7218C37.2356 31.9994 37.652 32.4159 37.652 32.9296V42.481C37.652 42.9947 37.2355 43.4112 36.7218 43.4112Z" fill="#232D33"/>
  <path d="M14.4943 26.4021C11.7195 26.4021 9.11078 25.3216 7.14934 23.36C6.786 22.9966 6.786 22.4076 7.14934 22.0445L13.8355 15.3581C14.1985 14.9949 14.7879 14.9949 15.1508 15.3581C15.5142 15.7214 15.5142 16.3105 15.1508 16.6736L9.15766 22.667C10.6659 23.8818 12.5293 24.5417 14.4943 24.5417C16.772 24.5417 18.9133 23.6548 20.5237 22.0445C22.1341 20.4341 23.021 18.2927 23.021 16.015C23.021 13.7373 22.1341 11.596 20.5237 9.98557C20.1604 9.62223 20.1604 9.03323 20.5237 8.67007C20.8867 8.30692 21.4761 8.30692 21.839 8.67007C23.8009 10.6319 24.8814 13.2404 24.8814 16.015C24.8814 18.7898 23.8009 21.3983 21.839 23.36C19.8776 25.3216 17.2689 26.4021 14.4943 26.4021Z" fill="#232D33"/>
  <path d="M14.4953 16.946C14.2573 16.946 14.0192 16.8552 13.8376 16.6736C13.4743 16.3104 13.4743 15.7214 13.8374 15.3581L17.9807 11.2134C18.3441 10.8501 18.9329 10.8501 19.2963 11.2133C19.6596 11.5764 19.6596 12.1654 19.2964 12.5288L15.1531 16.6734C14.9715 16.8552 14.7332 16.946 14.4953 16.946Z" fill="#232D33"/>
  <path d="M19.4714 21.736C19.2811 21.736 19.0906 21.6633 18.9453 21.5181C18.6545 21.2276 18.6545 20.7563 18.9453 20.4657C20.804 18.6068 21.3099 15.7527 20.2038 13.3637C20.0312 12.9907 20.1934 12.5485 20.5664 12.3757C20.9396 12.203 21.3817 12.3654 21.5545 12.7383C22.9217 15.6913 22.2961 19.2196 19.9977 21.518C19.8524 21.6634 19.6619 21.736 19.4714 21.736Z" fill="white"/>
  <path d="M14.4953 16.946H14.4932C14.2463 16.946 14.0097 16.8479 13.8352 16.6732L11.2213 14.0575C10.8583 13.6941 10.8585 13.1051 11.2219 12.742C11.5852 12.3788 12.174 12.3788 12.5374 12.7424L15.1338 15.3406C15.3127 15.5101 15.4244 15.7499 15.4244 16.0156C15.4244 16.5294 15.0091 16.946 14.4953 16.946Z" fill="#232D33"/>
  <path d="M19.591 59.2862H9.18754C8.67369 59.2862 8.25732 58.8696 8.25732 58.356V46.3246C8.25732 45.811 8.67369 45.3944 9.18754 45.3944H19.591C20.1049 45.3944 20.5212 45.811 20.5212 46.3246V58.356C20.5212 58.8696 20.1047 59.2862 19.591 59.2862ZM10.1177 57.4258H18.6608V47.2548H10.1177V57.4258Z" fill="#232D33"/>
  <path d="M33.4828 59.2862H23.0774C22.5636 59.2862 22.1472 58.8696 22.1472 58.356V46.3246C22.1472 45.811 22.5636 45.3944 23.0774 45.3944H33.4828C33.9966 45.3944 34.413 45.811 34.413 46.3246V58.356C34.413 58.8696 33.9964 59.2862 33.4828 59.2862ZM24.0076 57.4258H32.5526V47.2548H24.0076V57.4258Z" fill="#232D33"/>
  <path d="M62.3956 7.56646H58.7975C58.2837 7.56646 57.8673 7.14991 57.8673 6.63625V2.17124C57.8673 1.65758 58.2837 1.24103 58.7975 1.24103H62.3956C62.9094 1.24103 63.3258 1.65758 63.3258 2.17124V6.63625C63.3258 7.14991 62.9092 7.56646 62.3956 7.56646ZM59.7277 5.70604H61.4654V3.10145H59.7277V5.70604Z" fill="#232D33"/>
  <path d="M50.7364 35.6588C50.3254 35.6588 49.9922 35.3256 49.9922 34.9147V10.3571C49.9922 9.94612 50.3254 9.61292 50.7364 9.61292C51.1473 9.61292 51.4805 9.94612 51.4805 10.3571V34.9147C51.4805 35.3256 51.1473 35.6588 50.7364 35.6588Z" fill="white"/>
  <path d="M33.8684 39.5044C33.4575 39.5044 33.1243 39.1711 33.1243 38.7602V35.2868C33.1243 34.8758 33.4575 34.5426 33.8684 34.5426C34.2794 34.5426 34.6126 34.8758 34.6126 35.2868V38.7602C34.6126 39.1711 34.2794 39.5044 33.8684 39.5044Z" fill="white"/>
  <path d="M56.3175 5.95435C55.9066 5.95435 55.5734 5.62115 55.5734 5.21018V3.5972C55.5734 3.18623 55.9066 2.85303 56.3175 2.85303C56.7285 2.85303 57.0617 3.18623 57.0617 3.5972V5.21018C57.0617 5.62115 56.7285 5.95435 56.3175 5.95435Z" fill="white"/>
  <path d="M59.744 49.1014C59.3331 49.1014 58.9999 48.7682 58.9999 48.3573V46.7443C58.9999 46.3333 59.3331 46.0001 59.744 46.0001C60.155 46.0001 60.4882 46.3333 60.4882 46.7443V48.3573C60.4882 48.7682 60.155 49.1014 59.744 49.1014Z" fill="white"/>
  <path d="M31.2638 57.0537C30.8529 57.0537 30.5197 56.7205 30.5197 56.3095V48.4325C30.5197 48.0215 30.8529 47.6883 31.2638 47.6883C31.6748 47.6883 32.008 48.0215 32.008 48.4325V56.3095C32.008 56.7205 31.6748 57.0537 31.2638 57.0537Z" fill="white"/>
  <path d="M17.3107 57.0537C16.8997 57.0537 16.5665 56.7205 16.5665 56.3095V48.4325C16.5665 48.0215 16.8997 47.6883 17.3107 47.6883C17.7217 47.6883 18.0549 48.0215 18.0549 48.4325V56.3095C18.0549 56.7205 17.7217 57.0537 17.3107 57.0537Z" fill="white"/>
  <path d="M35.1645 50.3562H7.50565C6.9918 50.3562 6.57544 49.9396 6.57544 49.4259C6.57544 48.9123 6.9918 48.4957 7.50565 48.4957H35.1645C35.6784 48.4957 36.0947 48.9123 36.0947 49.4259C36.0947 49.9396 35.6782 50.3562 35.1645 50.3562Z" fill="#232D33"/>
  <path d="M35.1645 53.0854H7.50565C6.9918 53.0854 6.57544 52.6689 6.57544 52.1552C6.57544 51.6415 6.9918 51.225 7.50565 51.225H35.1645C35.6784 51.225 36.0947 51.6415 36.0947 52.1552C36.0947 52.6689 35.6782 53.0854 35.1645 53.0854Z" fill="#232D33"/>
  <path d="M25.8686 33.8598H17.1247C16.8166 33.8598 16.5282 33.7073 16.355 33.4522C16.1818 33.1971 16.1463 32.8731 16.2599 32.5865L20.317 22.3591C20.4543 22.0128 20.785 21.7818 21.1575 21.7721C21.1655 21.7719 21.1737 21.7719 21.1819 21.7719C21.5447 21.7719 21.8756 21.9833 22.0274 22.3146L26.7144 32.5421C26.8463 32.8301 26.8227 33.1655 26.6515 33.4321C26.4803 33.6985 26.1855 33.8598 25.8686 33.8598ZM18.4943 31.9994H24.4192L21.2433 25.0693L18.4943 31.9994Z" fill="#232D33"/>
</svg>