<svg width="32" height="32" viewBox="0 0 32 32" fill="none" xmlns="http://www.w3.org/2000/svg">
<g id="document-upload">
<g id="Vector">
<path fill-rule="evenodd" clip-rule="evenodd" d="M12.3827 13.7422C12.7564 13.8969 13 14.2616 13 14.666V22.666C13 23.2183 12.5523 23.666 12 23.666C11.4477 23.666 11 23.2183 11 22.666V17.0803L10.0404 18.0398C9.64991 18.4303 9.01675 18.4303 8.62622 18.0398C8.2357 17.6493 8.2357 17.0161 8.62622 16.6256L11.2929 13.9589C11.5789 13.6729 12.009 13.5874 12.3827 13.7422Z" fill="#232D33"/>
<path fill-rule="evenodd" clip-rule="evenodd" d="M11.2929 13.9589C11.6834 13.5684 12.3166 13.5684 12.7071 13.9589L15.3738 16.6256C15.7643 17.0161 15.7643 17.6493 15.3738 18.0398C14.9832 18.4303 14.3501 18.4303 13.9596 18.0398L11.2929 15.3732C10.9024 14.9826 10.9024 14.3495 11.2929 13.9589Z" fill="#232D33"/>
<path fill-rule="evenodd" clip-rule="evenodd" d="M5.54044 5.53982C4.31973 6.76053 3.66666 8.76467 3.66666 11.9994V19.9994C3.66666 23.2341 4.31973 25.2382 5.54044 26.4589C6.76115 27.6796 8.76529 28.3327 12 28.3327H20C23.2347 28.3327 25.2388 27.6796 26.4596 26.4589C27.6803 25.2382 28.3333 23.2341 28.3333 19.9994V13.3327C28.3333 12.7804 28.781 12.3327 29.3333 12.3327C29.8856 12.3327 30.3333 12.7804 30.3333 13.3327V19.9994C30.3333 23.4313 29.6531 26.0939 27.8738 27.8732C26.0945 29.6524 23.432 30.3327 20 30.3327H12C8.56803 30.3327 5.90552 29.6524 4.12622 27.8732C2.34693 26.0939 1.66666 23.4313 1.66666 19.9994V11.9994C1.66666 8.56742 2.34693 5.9049 4.12622 4.1256C5.90552 2.34631 8.56803 1.66604 12 1.66604H18.6667C19.2189 1.66604 19.6667 2.11376 19.6667 2.66604C19.6667 3.21833 19.2189 3.66604 18.6667 3.66604H12C8.76529 3.66604 6.76115 4.31911 5.54044 5.53982Z" fill="#232D33"/>
<path fill-rule="evenodd" clip-rule="evenodd" d="M18.284 1.74217C18.6577 1.58738 19.0878 1.67294 19.3738 1.95894L30.0404 12.6256C30.3264 12.9116 30.412 13.3417 30.2572 13.7154C30.1024 14.0891 29.7378 14.3327 29.3333 14.3327H24C21.9446 14.3327 20.2561 14.003 19.1262 12.8732C17.9963 11.7433 17.6667 10.0548 17.6667 7.99938V2.66604C17.6667 2.26158 17.9103 1.89695 18.284 1.74217ZM19.6667 5.08026V7.99938C19.6667 9.94398 20.0037 10.9222 20.5404 11.4589C21.0772 11.9957 22.0554 12.3327 24 12.3327H26.9191L19.6667 5.08026Z" fill="#232D33"/>
</g>
</g>
</svg>
