<svg width="25" height="24" viewBox="0 0 25 24" fill="none" xmlns="http://www.w3.org/2000/svg">
<g id="download">
<path id="Vector (Stroke)" fill-rule="evenodd" clip-rule="evenodd" d="M12.5 2.25C12.9142 2.25 13.25 2.58579 13.25 3V13.1893L15.9697 10.4697C16.2626 10.1768 16.7374 10.1768 17.0303 10.4697C17.3232 10.7626 17.3232 11.2374 17.0303 11.5303L13.0303 15.5303C12.7374 15.8232 12.2626 15.8232 11.9697 15.5303L7.96967 11.5303C7.67678 11.2374 7.67678 10.7626 7.96967 10.4697C8.26256 10.1768 8.73744 10.1768 9.03033 10.4697L11.75 13.1893V3C11.75 2.58579 12.0858 2.25 12.5 2.25ZM3.5 14.25C3.91421 14.25 4.25 14.5858 4.25 15V16C4.25 17.7949 5.70507 19.25 7.5 19.25H17.5C19.2949 19.25 20.75 17.7949 20.75 16V15C20.75 14.5858 21.0858 14.25 21.5 14.25C21.9142 14.25 22.25 14.5858 22.25 15V16C22.25 18.6234 20.1234 20.75 17.5 20.75H7.5C4.87665 20.75 2.75 18.6234 2.75 16V15C2.75 14.5858 3.08579 14.25 3.5 14.25Z" fill="#232D33"/>
</g>
</svg>
