<svg xmlns="http://www.w3.org/2000/svg" width="24" height="24" viewBox="0 0 24 24" fill="none">
  <path fill-rule="evenodd" clip-rule="evenodd" d="M15.5208 2.27729C16.6957 2.12351 17.8795 2.61612 19.0773 3.76986L19.0787 3.77118C20.2828 4.93683 20.8235 6.11211 20.7423 7.30163C20.6636 8.45369 20.0103 9.43332 19.2581 10.2467L11.0484 19.1417C10.8179 19.3986 10.5066 19.6171 10.2105 19.7792C9.91111 19.9431 9.56385 20.0838 9.2369 20.1433L9.23179 20.1443L6.01145 20.7073C5.22434 20.8462 4.47194 20.6437 3.93928 20.1267C3.40984 19.6127 3.17861 18.8674 3.2646 18.0751L3.26485 18.0729L3.63655 14.741C3.67915 14.414 3.79813 14.0584 3.93925 13.7487C4.0797 13.4404 4.27133 13.1135 4.49813 12.8663L4.49958 12.8648L12.7134 3.96523C13.4633 3.15439 14.388 2.42558 15.5208 2.27729ZM13.8152 4.98313L5.60329 13.8805C5.51999 13.9715 5.40622 14.1468 5.30427 14.3705C5.20422 14.5901 5.14329 14.7951 5.12488 14.929L4.75584 18.237L4.75573 18.238C4.71198 18.6434 4.83583 18.9065 4.98409 19.0504C5.12925 19.1913 5.37732 19.296 5.75075 19.2301L5.75193 19.2299L8.96834 18.6676L8.97052 18.6672C9.09386 18.6443 9.2858 18.5753 9.4904 18.4634C9.69744 18.35 9.85407 18.2274 9.93322 18.1385L9.94205 18.1286L18.156 9.22917C18.8243 8.50649 19.2019 7.84198 19.2457 7.19944C19.2871 6.59434 19.0424 5.82402 18.0361 4.84961C17.0333 3.88398 16.2814 3.69054 15.7155 3.7646C15.1076 3.84418 14.4859 4.25793 13.8152 4.98313Z" fill="#0F1214"/>
  <path fill-rule="evenodd" clip-rule="evenodd" d="M11.7811 5.21738C12.1906 5.15505 12.5731 5.43649 12.6354 5.84599C13.0155 8.34361 14.9908 10.2362 17.4234 10.487C17.8354 10.5295 18.135 10.8979 18.0925 11.3099C18.0501 11.722 17.6816 12.0215 17.2696 11.9791C14.1395 11.6564 11.6327 9.22717 11.1525 6.07169C11.0901 5.66219 11.3716 5.2797 11.7811 5.21738Z" fill="#0F1214"/>
</svg>