<svg xmlns="http://www.w3.org/2000/svg" width="65" height="69" viewBox="0 0 65 69" fill="none">
  <path d="M12 67.0001C12 68.1047 12.8954 69.0001 14 69.0001H59C60.1046 69.0001 61 68.1047 61 67.0001V64.0001C61 62.8956 60.1046 62.0001 59 62.0001H14C12.8954 62.0001 12 62.8956 12 64.0001V67.0001Z" fill="#D1D7DB"/>
  <path d="M13 67.0001C13 67.5524 13.4477 68.0001 14 68.0001H59C59.5523 68.0001 60 67.5524 60 67.0001V64.0001C60 63.4478 59.5523 63.0001 59 63.0001H14C13.4477 63.0001 13 63.4478 13 64.0001V67.0001Z" stroke="#232D33" stroke-width="2"/>
  <path d="M25.7211 61.5049C25.665 61.5049 25.6083 61.4991 25.5512 61.4869C25.1134 61.3935 24.8343 60.963 24.9277 60.5253L31.6114 29.1932C31.7049 28.7554 32.1356 28.4767 32.573 28.5696C33.0108 28.663 33.2899 29.0935 33.1966 29.5313L26.5129 60.8634C26.4316 61.2441 26.0953 61.5049 25.7211 61.5049Z" fill="#232D33"/>
  <path d="M48.2429 61.5049C47.8686 61.5049 47.5323 61.2441 47.4511 60.8634L40.7674 29.5313C40.674 29.0935 40.9531 28.663 41.3909 28.5696C41.8284 28.4767 42.259 28.7554 42.3526 29.1932L49.0363 60.5253C49.1297 60.963 48.8506 61.3935 48.4128 61.4869C48.3559 61.4991 48.299 61.5049 48.2429 61.5049Z" fill="#232D33"/>
  <path d="M44.5506 44.2488H29.4014C28.9539 44.2488 28.5909 43.8859 28.5909 43.4384C28.5909 42.9908 28.9539 42.6279 29.4014 42.6279H44.5506C44.9981 42.6279 45.361 42.9908 45.361 43.4384C45.361 43.8859 44.9981 44.2488 44.5506 44.2488Z" fill="#232D33"/>
  <path d="M54.9939 3.21956C58.286 1.85075 62.0644 3.40984 63.4332 6.70195C64.8013 9.99243 63.2422 13.7708 59.9501 15.1396L54.9939 3.21956Z" fill="#43B3FB"/>
  <path d="M59.9501 15.1395L60.9518 17.5483L51.6256 21.4262L50.6512 19.0826L45.6405 7.03191L44.666 4.68832L53.9922 0.810608L54.9939 3.21951L59.9501 15.1395Z" fill="#149EF6"/>
  <path d="M51.0706 60.6942L51.9943 64.3546H44.8759L45.7994 60.6942H51.0706Z" fill="#D1D7DB"/>
  <path d="M45.6405 7.03198L50.6512 19.0827L42.924 22.2957C42.2876 20.7653 41.0684 19.479 39.4163 18.7972C36.1096 17.4328 32.3249 19.0065 30.9621 22.3125C30.2788 23.9655 30.331 25.7369 30.9673 27.2673L17.2219 32.9826L16.1281 30.3521L13.3049 23.5624L12.2112 20.9319L45.6405 7.03198Z" fill="#232D33"/>
  <path d="M42.924 22.2957C43.5603 23.8261 43.6132 25.5991 42.9314 27.2514C41.5664 30.5565 37.7817 32.1302 34.4773 30.7667C32.8235 30.0856 31.6037 28.7977 30.9673 27.2673C30.331 25.7369 30.2788 23.9653 30.9621 22.3125C32.3249 19.0065 36.1096 17.4328 39.4163 18.7972C41.0684 19.479 42.2876 20.7653 42.924 22.2957ZM39.8821 23.5604C39.208 21.9391 37.3458 21.1708 35.7245 21.8449C34.1032 22.519 33.3349 24.3812 34.009 26.0025C34.6831 27.6239 36.5453 28.3922 38.1666 27.7181C39.788 27.0439 40.5564 25.1818 39.8821 23.5604Z" fill="#149EF6"/>
  <path d="M35.7246 21.845C37.346 21.1709 39.208 21.9392 39.8823 23.5605C40.5564 25.1818 39.7881 27.0439 38.1668 27.7181C36.5454 28.3922 34.6834 27.624 34.0091 26.0026C33.3348 24.3813 34.1033 22.5191 35.7246 21.845Z" fill="#D1D7DB"/>
  <path d="M28.1645 60.6942L29.0882 64.3546H21.9696L22.8933 60.6942H28.1645Z" fill="#D1D7DB"/>
  <path d="M16.1293 30.3532L13.3063 23.563L4.21867 27.3411L7.04167 34.1313L16.1293 30.3532Z" fill="#149EF6"/>
  <path d="M4.21797 27.3407L7.04116 34.1304L7.67151 35.6465L4.89435 36.8012L0.810303 26.9792L3.58746 25.8245L4.21797 27.3407Z" fill="#D1D7DB"/>
  <path d="M51.626 22.237C51.3085 22.237 51.007 22.049 50.8773 21.7374L49.9029 19.394C49.7309 18.9807 49.9267 18.5063 50.34 18.3345C50.753 18.1623 51.2278 18.3581 51.3996 18.7716L52.063 20.3669L59.8925 17.1114L53.5551 1.87007L45.7255 5.12555L46.3887 6.72062C46.5607 7.13394 46.3649 7.60836 45.9516 7.78017C45.5383 7.95214 45.0638 7.75634 44.892 7.34303L43.9176 4.99961C43.8351 4.80105 43.8347 4.57802 43.9168 4.37931C43.9988 4.18059 44.1563 4.02256 44.3549 3.94022L53.6812 0.0623436C53.8796 -0.0201575 54.1028 -0.0204817 54.3015 0.0615332C54.5002 0.143548 54.6583 0.301094 54.7406 0.499648L61.7002 17.2373C61.7827 17.4359 61.783 17.6589 61.701 17.8576C61.619 18.0563 61.4615 18.2144 61.2629 18.2967L51.9367 22.1746C51.8351 22.2169 51.7297 22.237 51.626 22.237Z" fill="#232D33"/>
  <path d="M17.2222 33.7931C16.9047 33.7931 16.6032 33.6051 16.4735 33.2936L15.3798 30.6631C15.2078 30.2499 15.4036 29.7755 15.8169 29.6037C16.2299 29.4316 16.7045 29.6275 16.8763 30.0409L17.659 31.923L30.6561 26.5189L31.2808 28.0145L17.5329 33.7309C17.4313 33.7732 17.3259 33.7931 17.2222 33.7931Z" fill="#232D33"/>
  <path d="M13.3052 24.373C12.9877 24.373 12.6862 24.185 12.5566 23.8735L11.4628 21.243C11.291 20.8297 11.4867 20.3554 11.9 20.1836L45.3293 6.2839C45.5277 6.2014 45.7509 6.20108 45.9496 6.28309C46.1483 6.36511 46.3063 6.52265 46.3887 6.72121L51.3994 18.772C51.4819 18.9704 51.4822 19.1936 51.4002 19.3923C51.3182 19.5911 51.1606 19.7491 50.9621 19.8314L43.2348 23.0443C42.8215 23.2162 42.3452 23.0214 42.1732 22.6084C42.0012 22.1954 42.1943 21.722 42.6074 21.55L49.5915 18.6461L45.2034 8.09163L13.2707 21.3691L14.0533 23.2513C14.2251 23.6646 14.0294 24.1388 13.6161 24.3106C13.5143 24.3529 13.409 24.373 13.3052 24.373Z" fill="#232D33"/>
  <path d="M7.04151 34.941C6.72399 34.941 6.42251 34.753 6.29284 34.4415C6.12087 34.0282 6.31667 33.5539 6.72998 33.3821L15.0686 29.9148L12.8676 24.6216L4.52904 28.0889C4.1154 28.261 3.6413 28.0649 3.46949 27.6518C3.29752 27.2384 3.49331 26.764 3.90663 26.5922L12.9936 22.8137C13.1923 22.7312 13.4153 22.7309 13.6139 22.8129C13.8126 22.8949 13.9706 23.0524 14.053 23.251L16.8762 30.0409C17.048 30.4542 16.8523 30.9285 16.439 31.1003L7.35207 34.8786C7.2506 34.9211 7.14508 34.941 7.04151 34.941Z" fill="#232D33"/>
  <path d="M36.936 32.0663C36.0121 32.0663 35.0737 31.8894 34.1681 31.5158C32.3693 30.7749 30.9666 29.3766 30.2189 27.5785C29.4717 25.7813 29.4696 23.8012 30.2131 22.0029C30.9545 20.2044 32.3524 18.8022 34.149 18.0552C35.9455 17.3083 37.9259 17.3057 39.7253 18.0482C41.5235 18.7902 42.9254 20.1882 43.6723 21.9848C44.4196 23.7821 44.4227 25.7625 43.6807 27.5608C42.5213 30.3675 39.7993 32.0663 36.936 32.0663ZM31.7156 26.9561C32.2968 28.354 33.3873 29.4413 34.786 30.0174C37.6722 31.2083 40.9903 29.8287 42.1826 26.9421C42.7592 25.5443 42.7568 24.0045 42.1757 22.6068C41.595 21.2102 40.5053 20.1232 39.1072 19.5464C37.7079 18.9689 36.1681 18.971 34.7714 19.5517C33.3747 20.1325 32.2879 21.2226 31.7114 22.6213C31.1331 24.0199 31.1347 25.5591 31.7156 26.9561Z" fill="#232D33"/>
  <path d="M36.9509 28.7723C35.3859 28.7723 33.898 27.8464 33.2607 26.3136C32.4159 24.2819 33.3816 21.9415 35.4135 21.0966C37.4451 20.2515 39.7856 21.2173 40.6305 23.2492C41.0396 24.2333 41.0411 25.3179 40.6344 26.3034C40.2277 27.289 39.4619 28.057 38.4779 28.4663C37.9786 28.6739 37.4606 28.7723 36.9509 28.7723ZM36.9452 22.4104C36.6371 22.4104 36.3289 22.4714 36.0359 22.5931C35.4517 22.8361 34.9969 23.2922 34.7554 23.8775C34.5139 24.4628 34.5147 25.1069 34.7575 25.6912C35.0005 26.2754 35.4566 26.7302 36.0419 26.9717C36.6273 27.2132 37.2713 27.2124 37.8556 26.9696C38.4398 26.7266 38.8946 26.2705 39.1361 25.6852C39.3776 25.0999 39.3768 24.4558 39.1338 23.8715C38.8908 23.2873 38.4347 22.8325 37.8495 22.591C37.5579 22.4706 37.2514 22.4104 36.9452 22.4104Z" fill="#232D33"/>
  <path d="M29.0882 65.1649H21.9696C21.7196 65.1649 21.4838 65.0497 21.3303 64.8526C21.1768 64.6555 21.1227 64.3986 21.1838 64.1562L22.1075 60.4959C22.1984 60.136 22.5221 59.8839 22.8933 59.8839H28.1644C28.5356 59.8839 28.8595 60.136 28.9502 60.4959L29.874 64.1562C29.9351 64.3986 29.8809 64.6555 29.7274 64.8526C29.5739 65.0497 29.3379 65.1649 29.0882 65.1649ZM23.01 63.544H28.0479L27.5333 61.5045H23.5248L23.01 63.544Z" fill="#232D33"/>
  <path d="M51.9942 65.1649H44.8756C44.6256 65.1649 44.3898 65.0497 44.2363 64.8526C44.0828 64.6555 44.0287 64.3986 44.0898 64.1562L45.0135 60.4959C45.1044 60.136 45.4281 59.8839 45.7993 59.8839H51.0705C51.4416 59.8839 51.7655 60.136 51.8562 60.4959L52.78 64.1562C52.8411 64.3986 52.7869 64.6555 52.6334 64.8526C52.4799 65.0497 52.2441 65.1649 51.9942 65.1649ZM45.916 63.544H50.9539L50.4391 61.5045H46.4308L45.916 63.544Z" fill="#232D33"/>
  <path d="M59.9504 15.9503C59.6329 15.9503 59.3314 15.7622 59.2018 15.4507C59.0298 15.0374 59.2256 14.563 59.6389 14.3912C62.5132 13.1959 63.8795 9.88618 62.6848 7.0129C61.4896 4.13881 58.179 2.7726 55.3049 3.96765C54.8916 4.13979 54.4172 3.94367 54.2455 3.53051C54.0737 3.1172 54.2694 2.64294 54.6827 2.47113C58.3823 0.932618 62.6433 2.6914 64.1815 6.39066C65.7194 10.0891 63.9607 14.3495 60.2613 15.8877C60.1595 15.9302 60.0542 15.9503 59.9504 15.9503Z" fill="#232D33"/>
  <path d="M61.0584 11.4269C60.9579 11.4269 60.8558 11.4081 60.7569 11.3684C60.3415 11.2018 60.1399 10.73 60.3065 10.3145C60.6062 9.56734 60.6015 8.748 60.2935 8.00727C59.9809 7.2552 59.3925 6.66942 58.637 6.35774C58.2232 6.18706 58.0263 5.71312 58.197 5.29948C58.3676 4.88584 58.8414 4.68859 59.2552 4.85942C60.4109 5.33628 61.3113 6.23342 61.7901 7.38519C62.262 8.51995 62.2693 9.77481 61.8106 10.9182C61.6839 11.2345 61.3798 11.4269 61.0584 11.4269Z" fill="white"/>
  <path d="M4.89465 37.6118C4.57713 37.6118 4.27565 37.4238 4.14599 37.1123L0.0620994 27.2903C-0.0204017 27.0919 -0.0207258 26.8687 0.061289 26.67C0.143304 26.4713 0.30085 26.3132 0.499404 26.2309L3.27656 25.0762C3.47495 24.9937 3.69815 24.9934 3.89686 25.0754C4.09558 25.1574 4.25361 25.3149 4.33595 25.5135L8.41984 35.3355C8.59164 35.7488 8.39601 36.2231 7.98269 36.3949L5.20553 37.5496C5.10374 37.5919 4.99839 37.6118 4.89465 37.6118ZM1.86983 27.4164L5.33147 35.7417L6.61194 35.2092L3.46961 27.6517L3.1503 26.8839L1.86983 27.4164Z" fill="#232D33"/>
  <path d="M56.8368 15.4814C56.5193 15.4814 56.2178 15.2934 56.0881 14.9819L53.6594 9.14064C53.4875 8.72749 53.6833 8.25307 54.0966 8.08126C54.5096 7.90896 54.9841 8.10508 55.156 8.5184L57.5846 14.3596C57.7566 14.7729 57.5608 15.2472 57.1475 15.419C57.0459 15.4615 56.9403 15.4814 56.8368 15.4814Z" fill="white"/>
  <path d="M53.2567 6.87158C52.9392 6.87158 52.6377 6.68356 52.508 6.37203L51.8458 4.77906C51.674 4.36575 51.8696 3.89149 52.2829 3.71968C52.6959 3.54754 53.1705 3.7435 53.3423 4.15682L54.0046 5.74979C54.1765 6.16311 53.9807 6.63737 53.5674 6.80918C53.4658 6.85148 53.3604 6.87158 53.2567 6.87158Z" fill="white"/>
  <path d="M16.0158 22.986C15.6982 22.986 15.3968 22.798 15.2671 22.4865C15.0951 22.0732 15.2909 21.5989 15.7042 21.4271L36.4292 12.8097C36.8423 12.6374 37.3166 12.8335 37.4886 13.2469C37.6605 13.6602 37.4648 14.1344 37.0514 14.3062L16.3266 22.9236C16.2249 22.9661 16.1195 22.986 16.0158 22.986Z" fill="white"/>
  <path d="M39.6102 13.1754C39.2927 13.1754 38.9912 12.9874 38.8616 12.6759C38.6896 12.2626 38.8854 11.7883 39.2987 11.6165L40.7335 11.0198C41.1467 10.8477 41.6211 11.0437 41.7929 11.457C41.9649 11.8703 41.7691 12.3446 41.3557 12.5164L39.921 13.113C39.8193 13.1553 39.714 13.1754 39.6102 13.1754Z" fill="white"/>
</svg>