<svg xmlns="http://www.w3.org/2000/svg" width="80" height="78" viewBox="0 0 80 78" fill="none">
  <path d="M20.4894 63.8385C21.5587 63.8385 22.4256 62.9717 22.4256 61.9024C22.4256 60.833 21.5587 59.9662 20.4894 59.9662C19.4201 59.9662 18.5532 60.833 18.5532 61.9024C18.5532 62.9717 19.4201 63.8385 20.4894 63.8385Z" fill="#149EF6"/>
  <path d="M59.8734 59.5557C61.3237 59.5557 62.4994 58.38 62.4994 56.9297C62.4994 55.4795 61.3237 54.3038 59.8734 54.3038C58.4231 54.3038 57.2474 55.4795 57.2474 56.9297C57.2474 58.38 58.4231 59.5557 59.8734 59.5557Z" fill="#149EF6"/>
  <path d="M43.4582 55.2169V62.1774C44.4703 62.4643 45.2131 63.3955 45.2131 64.5008C45.2131 64.5114 45.2113 64.522 45.2113 64.5325C45.3697 64.5132 45.5299 64.5008 45.6919 64.5008C47.5805 64.5008 49.1629 65.7945 49.6117 67.5424C49.8828 67.5019 50.1574 67.4808 50.4372 67.4808C51.3173 67.4808 52.1499 67.6814 52.8926 68.0387C54.2198 66.8242 55.987 66.0832 57.9267 66.0832C59.0884 66.0832 60.1867 66.349 61.1671 66.8225C61.7304 62.8375 65.1521 59.7713 69.292 59.7713C73.8244 59.7713 77.4996 63.4465 77.4996 67.9789C77.4996 70.2706 76.5597 72.3423 75.0442 73.8314C75.5458 74.5883 75.8978 75.4507 76.0668 76.3783H45.7658H32.6139H2.31289C2.48187 75.4507 2.8339 74.5883 3.33554 73.8314C1.82005 72.3421 0.880127 70.2704 0.880127 67.9787C0.880127 63.4463 4.55533 59.7711 9.08772 59.7711C13.2276 59.7711 16.6493 62.8373 17.2126 66.8223C18.193 66.3488 19.2913 66.083 20.453 66.083C22.3927 66.083 24.1599 66.8241 25.4871 68.0386C26.2298 67.6813 27.0624 67.4806 27.9425 67.4806C28.2223 67.4806 28.4987 67.5017 28.768 67.5422C29.2168 65.7944 30.7992 64.5007 32.6878 64.5007C32.8498 64.5007 33.01 64.513 33.1684 64.5323C33.1684 64.5218 33.1666 64.5112 33.1666 64.5007C33.1666 63.4287 33.8654 62.5187 34.8335 62.2037V55.2167H43.4582V55.2169Z" fill="#4D5C66"/>
  <path d="M52.9178 43.2324V55.2173H47.1093V39.0081L52.9178 43.2324Z" fill="#303E47"/>
  <path d="M31.2697 39.0081V55.2173H25.4612V43.2324L31.2697 39.0081Z" fill="#303E47"/>
  <path d="M47.1093 20.2959V55.2173H31.2697V20.2959C31.2697 19.414 31.3137 18.5375 31.4017 17.668H46.9773C47.0653 18.5375 47.1093 19.414 47.1093 20.2959Z" fill="#90D3FF"/>
  <path d="M46.9772 17.6679H31.4016C32.0194 11.5954 34.7617 5.90307 39.1903 1.62238C41.7214 4.06899 43.7016 6.97676 45.0481 10.1538C46.0566 12.5353 46.7114 15.0664 46.9772 17.6679Z" fill="#6CC4FD"/>
  <path d="M39.1903 1.62238C39.1903 1.62238 36.9426 7.82339 36.9426 17.6679C36.9426 27.5125 36.9426 54.9708 36.9426 54.9708L31.2697 55.2173V20.2958C31.2697 19.414 31.3137 18.5374 31.4017 17.6679C32.0195 11.5954 34.7618 5.90307 39.1903 1.62238Z" fill="#149EF6"/>
  <path d="M47.9894 39.0079H46.2292V20.2957C46.2292 19.4467 46.1863 18.5925 46.1016 17.7563C45.8462 15.2571 45.2191 12.8143 44.2378 10.4967C43.0301 7.64739 41.334 5.08407 39.1907 2.86663C35.2927 6.90478 32.8468 12.1592 32.2774 17.7566C32.1929 18.5924 32.1499 19.4467 32.1499 20.2955V39.0077H30.3898V20.2955C30.3898 19.3876 30.4357 18.4737 30.5262 17.5789C31.1669 11.2809 34.0268 5.38928 38.5789 0.989079C38.92 0.659402 39.4611 0.659402 39.8022 0.989079C42.4077 3.50768 44.4453 6.47548 45.8585 9.80991C46.9086 12.2894 47.5796 14.9031 47.853 17.578C47.9436 18.4736 47.9895 19.3876 47.9895 20.2953L47.9894 39.0079Z" fill="#232D33"/>
  <path d="M47.1093 54.3372H31.2697V56.0974H47.1093V54.3372Z" fill="#232D33"/>
  <path d="M31.2696 56.0973H25.4611C24.9752 56.0973 24.5811 55.7032 24.5811 55.2172V43.2324C24.5811 42.9507 24.7159 42.6862 24.9435 42.5207L30.752 38.2964C31.0197 38.1015 31.374 38.0735 31.669 38.2238C31.964 38.3742 32.1497 38.6771 32.1497 39.0082V55.2174C32.1497 55.7032 31.7556 56.0973 31.2696 56.0973ZM26.3412 54.3372H30.3896V40.7363L26.3412 43.6805V54.3372Z" fill="#232D33"/>
  <path d="M52.9177 56.0974H47.1092C46.6232 56.0974 46.2291 55.7033 46.2291 55.2173V51.0985C46.2291 50.6126 46.6232 50.2185 47.1092 50.2185C47.5952 50.2185 47.9893 50.6126 47.9893 51.0985V54.3372H52.0376V43.6805L47.9893 40.7363V48.5169C47.9893 49.0029 47.5952 49.397 47.1092 49.397C46.6232 49.397 46.2291 49.0029 46.2291 48.5169V39.008C46.2291 38.677 46.4148 38.374 46.7098 38.2237C47.0052 38.0736 47.3591 38.1016 47.6269 38.2962L53.4354 42.5206C53.663 42.6861 53.7978 42.9508 53.7978 43.2322V55.2171C53.7978 55.7033 53.4037 56.0974 52.9177 56.0974Z" fill="#232D33"/>
  <path d="M43.6202 14.9698C43.2348 14.9698 42.8808 14.7144 42.7727 14.3247C42.3436 12.7784 41.7478 11.2733 41.0017 9.8511C40.7758 9.42074 40.9418 8.88865 41.3722 8.663C41.8025 8.43735 42.3344 8.60298 42.5603 9.03351C43.3641 10.5661 44.0062 12.1879 44.4686 13.8542C44.5985 14.3226 44.3243 14.8077 43.8559 14.9376C43.7774 14.9592 43.6982 14.9698 43.6202 14.9698Z" fill="white"/>
  <path d="M40.3179 7.89875C40.0384 7.89875 39.7634 7.76586 39.5927 7.51838C39.2519 7.02448 38.887 6.53868 38.5081 6.074C38.2008 5.6975 38.2569 5.14305 38.6334 4.83573C39.0099 4.52823 39.5644 4.58438 39.8717 4.96105C40.2806 5.46199 40.6741 5.98599 41.0415 6.51861C41.3175 6.9187 41.217 7.46681 40.8169 7.7428C40.6643 7.84823 40.4902 7.89875 40.3179 7.89875Z" fill="white"/>
  <path d="M20.4895 64.7186C18.9367 64.7186 17.6732 63.4551 17.6732 61.9023C17.6732 60.3495 18.9367 59.0861 20.4895 59.0861C22.0423 59.0861 23.3057 60.3495 23.3057 61.9023C23.3057 63.4551 22.0423 64.7186 20.4895 64.7186ZM20.4895 60.8462C19.907 60.8462 19.4334 61.3199 19.4334 61.9023C19.4334 62.4847 19.907 62.9584 20.4895 62.9584C21.0719 62.9584 21.5456 62.4847 21.5456 61.9023C21.5456 61.3199 21.0719 60.8462 20.4895 60.8462Z" fill="#232D33"/>
  <path d="M59.8734 60.4358C57.9402 60.4358 56.3673 58.8629 56.3673 56.9298C56.3673 54.9966 57.9402 53.4237 59.8734 53.4237C61.8065 53.4237 63.3794 54.9966 63.3794 56.9298C63.3794 58.8629 61.8065 60.4358 59.8734 60.4358ZM59.8734 55.1839C58.9106 55.1839 58.1275 55.9671 58.1275 56.9298C58.1275 57.8926 58.9107 58.6757 59.8734 58.6757C60.836 58.6757 61.6193 57.8924 61.6193 56.9298C61.6193 55.967 60.836 55.1839 59.8734 55.1839Z" fill="#232D33"/>
  <path d="M16.5227 71.1614C16.3866 71.1614 16.2484 71.1297 16.1192 71.063C15.6875 70.8398 15.5183 70.309 15.7415 69.877C16.2704 68.8537 16.3475 67.3435 16.3327 66.848C16.3181 66.3622 16.7001 65.9565 17.1859 65.9419C17.6706 65.9265 18.0774 66.309 18.092 66.795C18.0948 66.8864 18.1497 69.0512 17.3052 70.6853C17.1487 70.9877 16.8413 71.1614 16.5227 71.1614Z" fill="#0F1214"/>
  <path d="M28.9261 70.7971C28.5642 70.7971 28.2252 70.5721 28.0969 70.2118C27.5874 68.7796 27.8771 67.4787 27.9117 67.335C28.0258 66.8626 28.5014 66.5725 28.974 66.6862C29.445 66.8001 29.7351 67.2729 29.6238 67.7439C29.6175 67.7721 29.4214 68.6831 29.7555 69.6216C29.9183 70.0796 29.6793 70.5829 29.2213 70.7458C29.1236 70.7805 29.024 70.7971 28.9261 70.7971Z" fill="#0F1214"/>
  <path d="M23.7934 70.6089C23.6641 70.6089 23.5326 70.5803 23.4083 70.5197C22.9714 70.3067 22.79 69.7797 23.0031 69.3429C23.6836 67.9476 24.968 67.3104 25.1121 67.2423C25.5517 67.0346 26.0764 67.2229 26.2837 67.6624C26.4905 68.1004 26.3043 68.6228 25.8681 68.8319C25.8421 68.8449 24.996 69.2723 24.5852 70.1145C24.4325 70.4271 24.1194 70.6089 23.7934 70.6089Z" fill="#0F1214"/>
  <path d="M25.4872 68.9187C25.2716 68.9187 25.0586 68.8394 24.893 68.6877C23.6776 67.5757 22.1008 66.9631 20.453 66.9631C19.4522 66.9631 18.4906 67.1824 17.5952 67.6147C17.3423 67.7369 17.046 67.7311 16.798 67.5987C16.5502 67.4663 16.3804 67.2236 16.3411 66.9455C16.0046 64.5642 14.5151 62.4983 12.3568 61.4195C11.9221 61.2023 11.7457 60.6736 11.9631 60.2388C12.1803 59.8039 12.7089 59.6277 13.1438 59.8451C15.4857 61.0156 17.1925 63.1246 17.8621 65.6131C18.6935 65.3406 19.5611 65.203 20.453 65.203C22.349 65.203 24.171 65.8426 25.6433 67.0154C26.4428 66.7148 27.2896 66.5736 28.1602 66.6042C28.8899 64.9015 30.5272 63.7366 32.4027 63.6287C32.6892 62.5766 33.4857 61.7168 34.561 61.3667C35.0237 61.216 35.5199 61.4692 35.6702 61.9312C35.8205 62.3934 35.568 62.89 35.1057 63.0404C34.4798 63.2443 34.0569 63.8193 34.0467 64.4766C34.0477 64.4952 34.0482 64.5137 34.0482 64.5324C34.0482 64.7844 33.9402 65.0241 33.7515 65.1913C33.5628 65.3584 33.312 65.4364 33.0615 65.4061C32.9223 65.389 32.7999 65.3807 32.6875 65.3807C31.2413 65.3807 29.98 66.3596 29.62 67.7612C29.5079 68.1982 29.0837 68.4807 28.6368 68.4126C28.408 68.3783 28.1743 68.3609 27.9421 68.3609C27.2157 68.3609 26.5178 68.5193 25.8681 68.8319C25.7468 68.8901 25.6166 68.9187 25.4872 68.9187Z" fill="#0F1214"/>
  <path d="M10.0709 77.2583H2.31284C2.05181 77.2583 1.80433 77.1424 1.63712 76.942C1.4699 76.7415 1.40038 76.4773 1.44702 76.2205C1.59311 75.4184 1.85872 74.6578 2.23909 73.9511C0.790309 72.2964 0 70.2009 0 67.9789C0 62.9679 4.07669 58.8912 9.08767 58.8912C9.57365 58.8912 9.96774 59.2853 9.96774 59.7713C9.96774 60.2573 9.57365 60.6514 9.08767 60.6514C5.04724 60.6514 1.76015 63.9385 1.76015 67.9789C1.76015 69.9591 2.53867 71.8146 3.95225 73.2037C4.25288 73.4993 4.30181 73.9664 4.06894 74.3177C3.82252 74.6893 3.62081 75.0841 3.46504 75.4983H10.0709C10.5569 75.4983 10.951 75.8924 10.951 76.3784C10.951 76.8643 10.5569 77.2583 10.0709 77.2583Z" fill="#0F1214"/>
  <path d="M15.2341 77.2583H13.5911C13.1052 77.2583 12.7111 76.8642 12.7111 76.3782C12.7111 75.8922 13.1052 75.4981 13.5911 75.4981H15.2341C15.72 75.4981 16.1141 75.8922 16.1141 76.3782C16.1141 76.8642 15.72 77.2583 15.2341 77.2583Z" fill="#0F1214"/>
  <path d="M59.7072 77.2583H18.637C18.1511 77.2583 17.757 76.8642 17.757 76.3782C17.757 75.8922 18.1511 75.4981 18.637 75.4981H59.7072C60.1932 75.4981 60.5873 75.8922 60.5873 76.3782C60.5873 76.8642 60.1932 77.2583 59.7072 77.2583Z" fill="#0F1214"/>
  <path d="M76.0667 77.2583H62.5234C62.0374 77.2583 61.6433 76.8642 61.6433 76.3782C61.6433 75.8922 62.0374 75.4981 62.5234 75.4981H74.9143C74.7586 75.0838 74.5569 74.6891 74.3104 74.3176C74.0776 73.9661 74.1265 73.4989 74.4271 73.2036C75.3238 72.3226 75.9817 71.2234 76.3297 70.0251C76.4654 69.5583 76.9538 69.2897 77.4203 69.4254C77.8871 69.5611 78.1555 70.0492 78.02 70.516C77.6526 71.7807 77.0079 72.9557 76.1399 73.9504C76.5203 74.6573 76.7861 75.418 76.9322 76.2205C76.979 76.4773 76.9093 76.7415 76.7421 76.942C76.5752 77.1424 76.3277 77.2583 76.0667 77.2583Z" fill="#0F1214"/>
  <path d="M77.4996 68.859C77.0136 68.859 76.6195 68.4649 76.6195 67.9789C76.6195 67.4811 76.5693 66.9841 76.4706 66.5014C76.3731 66.0253 76.68 65.5603 77.1563 65.4628C77.6312 65.3653 78.0975 65.6721 78.195 66.1485C78.3175 66.747 78.3796 67.3629 78.3796 67.9791C78.3796 68.4649 77.9855 68.859 77.4996 68.859Z" fill="#0F1214"/>
  <path d="M52.8924 68.9186C52.763 68.9186 52.6326 68.8901 52.5111 68.8317C51.8613 68.5193 51.1636 68.3607 50.4372 68.3607C50.2066 68.3607 49.9725 68.3781 49.7415 68.4126C49.296 68.4791 48.8713 68.1979 48.7592 67.761C48.3992 66.3594 47.1379 65.3805 45.6918 65.3805C45.5793 65.3805 45.457 65.3888 45.3179 65.4059C45.0678 65.4362 44.8165 65.3582 44.6279 65.1912C44.4393 65.0241 44.3312 64.7842 44.3312 64.5322C44.3312 64.5179 44.3319 64.4982 44.3328 64.4795C44.3236 63.8047 43.8677 63.208 43.2181 63.0237C42.7504 62.8912 42.4788 62.4045 42.6113 61.937C42.7439 61.4695 43.2299 61.1979 43.6981 61.3303C44.8202 61.6483 45.673 62.5388 45.9745 63.6283C47.851 63.7352 49.4891 64.9004 50.2192 66.6039C51.0914 66.5741 51.9366 66.7144 52.7361 67.015C54.2085 65.8424 56.0304 65.2026 57.9264 65.2026C58.8185 65.2026 59.6864 65.3402 60.5179 65.6129C61.5721 61.7127 65.1663 58.8907 69.2917 58.8907C72.4931 58.8907 75.3982 60.5262 77.063 63.2655C77.3154 63.6809 77.1834 64.2224 76.768 64.4748C76.3526 64.727 75.8112 64.595 75.5588 64.1798C74.2159 61.9701 71.8732 60.6508 69.2917 60.6508C65.6639 60.6508 62.5454 63.3569 62.0383 66.9451C61.9991 67.2234 61.8292 67.4662 61.5812 67.5983C61.3334 67.7305 61.037 67.7365 60.7842 67.6144C59.8888 67.1819 58.9274 66.9628 57.9264 66.9628C56.2786 66.9628 54.7018 67.5753 53.4866 68.6873C53.321 68.8396 53.108 68.9186 52.8924 68.9186Z" fill="#0F1214"/>
  <path d="M61.8569 71.1615C61.5383 71.1615 61.2306 70.9879 61.0743 70.6852C60.23 69.0512 60.2847 66.8864 60.2875 66.7951C60.3021 66.3091 60.711 65.9236 61.1937 65.9419C61.6791 65.9565 62.0609 66.3614 62.047 66.8468C62.0465 66.8648 62.0056 68.6534 62.638 69.8773C62.8612 70.309 62.6921 70.8401 62.2603 71.0631C62.1311 71.1298 61.9929 71.1615 61.8569 71.1615Z" fill="#0F1214"/>
  <path d="M49.4535 70.7971C49.3554 70.7971 49.256 70.7805 49.1585 70.7458C48.7005 70.5829 48.4615 70.0796 48.6244 69.6216C48.962 68.6729 48.758 67.7524 48.7559 67.7432C48.648 67.2713 48.9407 66.7983 49.4118 66.6875C49.8835 66.5773 50.3543 66.8645 50.468 67.3348C50.5027 67.4785 50.7924 68.7796 50.2827 70.2116C50.1544 70.5721 49.8154 70.7971 49.4535 70.7971Z" fill="#0F1214"/>
  <path d="M54.5864 70.609C54.2604 70.609 53.9473 70.4271 53.7946 70.1145C53.3773 69.2589 52.5249 68.8381 52.5164 68.834C52.0769 68.6265 51.8888 68.102 52.0963 67.6625C52.3036 67.2229 52.8281 67.0344 53.2678 67.2423C53.412 67.3104 54.6964 67.9476 55.3769 69.3429C55.5898 69.7797 55.4085 70.3067 54.9717 70.5197C54.8472 70.5803 54.7157 70.609 54.5864 70.609Z" fill="#0F1214"/>
  <path d="M37.6057 66.3453C37.1197 66.3453 36.7256 65.9512 36.7256 65.4653V57.5446C36.7256 57.0586 37.1197 56.6645 37.6057 56.6645C38.0916 56.6645 38.4857 57.0586 38.4857 57.5446V65.4653C38.4857 65.9514 38.0916 66.3453 37.6057 66.3453Z" fill="#0F1214"/>
  <path d="M40.774 66.3453C40.288 66.3453 39.8939 65.9512 39.8939 65.4653V57.5446C39.8939 57.0586 40.288 56.6645 40.774 56.6645C41.26 56.6645 41.6541 57.0586 41.6541 57.5446V65.4653C41.6541 65.9514 41.26 66.3453 40.774 66.3453Z" fill="#0F1214"/>
  <path d="M64.2727 77.2582C63.7867 77.2582 63.3926 76.8641 63.3926 76.3782C63.3926 73.127 66.0376 70.4818 69.2889 70.4818C69.7749 70.4818 70.169 70.8759 70.169 71.3619C70.169 71.8479 69.7749 72.242 69.2889 72.242C67.0083 72.242 65.1527 74.0975 65.1527 76.3782C65.1527 76.8643 64.7588 77.2582 64.2727 77.2582Z" fill="#0F1214"/>
  <path d="M68.559 56.137C68.5009 56.137 68.4446 56.1299 68.3865 56.1194C68.3302 56.1088 68.2756 56.0912 68.2228 56.0683C68.17 56.0472 68.119 56.019 68.0697 55.9874C68.0222 55.9557 67.9782 55.9187 67.9359 55.8782C67.7722 55.7145 67.679 55.4892 67.679 55.2569C67.679 55.1988 67.6842 55.1407 67.6966 55.0844C67.7071 55.0281 67.7247 54.9735 67.7458 54.9207C67.7687 54.8661 67.7951 54.8151 67.8268 54.7676C67.8585 54.72 67.8955 54.6743 67.9359 54.6338C67.9782 54.5933 68.0222 54.5564 68.0697 54.5247C68.119 54.493 68.17 54.4666 68.2228 54.4437C68.2756 54.4226 68.3302 54.405 68.3865 54.3944C68.5009 54.3715 68.6171 54.3715 68.7315 54.3944C68.7879 54.405 68.8424 54.4226 68.8952 54.4437C68.948 54.4666 68.9991 54.493 69.0484 54.5247C69.0959 54.5564 69.1416 54.5933 69.1821 54.6338C69.2226 54.6743 69.2596 54.72 69.2913 54.7676C69.3229 54.8151 69.3493 54.8661 69.3722 54.9207C69.3933 54.9735 69.411 55.0281 69.4215 55.0844C69.4338 55.1407 69.4391 55.1988 69.4391 55.2569C69.4391 55.4875 69.3458 55.7145 69.1821 55.8782C69.1416 55.9187 69.0959 55.9557 69.0484 55.9874C68.9991 56.019 68.948 56.0472 68.8952 56.0683C68.8424 56.0912 68.7879 56.1088 68.7315 56.1194C68.6734 56.1299 68.6171 56.137 68.559 56.137Z" fill="#232D33"/>
  <path d="M79.1199 74.7946C78.8876 74.7946 78.6605 74.6995 78.4968 74.5358C78.3332 74.3721 78.2399 74.1451 78.2399 73.9145C78.2399 73.6822 78.3332 73.4551 78.4968 73.2914C78.6623 73.1277 78.8876 73.0344 79.1199 73.0344C79.3523 73.0344 79.5793 73.1277 79.743 73.2914C79.9067 73.4551 80 73.6822 80 73.9145C80 74.1451 79.9067 74.3721 79.743 74.5358C79.5793 74.6995 79.3523 74.7946 79.1199 74.7946Z" fill="#0F1214"/>
  <path d="M15.7545 57.5451C15.5221 57.5451 15.2951 57.45 15.1314 57.2863C14.9677 57.1227 14.8744 56.8956 14.8744 56.665C14.8744 56.6069 14.8797 56.5488 14.892 56.4925C14.9026 56.4362 14.9202 56.3816 14.9413 56.3271C14.9642 56.2743 14.9906 56.2232 15.0222 56.1757C15.0557 56.1282 15.0909 56.0824 15.1314 56.0419C15.3356 55.8377 15.6401 55.7445 15.927 55.8025C15.9833 55.8131 16.0379 55.8307 16.0907 55.8518C16.1435 55.8747 16.1945 55.9011 16.2438 55.9328C16.2913 55.9645 16.3353 56.0014 16.3776 56.0419C16.418 56.0824 16.4532 56.1282 16.4867 56.1757C16.5184 56.2232 16.5448 56.2743 16.5677 56.3271C16.5888 56.3816 16.6064 56.4362 16.6169 56.4925C16.6293 56.5488 16.6345 56.6069 16.6345 56.665C16.6345 56.8956 16.5413 57.1227 16.3776 57.2863C16.3353 57.3268 16.2913 57.3638 16.2438 57.3955C16.1945 57.4272 16.1435 57.4553 16.0907 57.4764C16.0379 57.4993 15.9833 57.5169 15.927 57.5275C15.8706 57.538 15.8126 57.5451 15.7545 57.5451Z" fill="#232D33"/>
  <path d="M4.8415 54.7288C4.78342 54.7288 4.72709 54.7218 4.66901 54.7112C4.61268 54.7006 4.55812 54.683 4.50531 54.6602C4.45251 54.639 4.40146 54.6109 4.35218 54.5792C4.30466 54.5475 4.25889 54.5106 4.21841 54.4701C4.05471 54.3064 3.96143 54.0793 3.96143 53.8487C3.96143 53.7906 3.96671 53.7326 3.97903 53.6762C3.98959 53.6199 4.00719 53.5653 4.02831 53.5125C4.05119 53.458 4.0776 53.4069 4.10928 53.3594C4.14096 53.3119 4.17792 53.2661 4.21841 53.2256C4.25889 53.1852 4.30466 53.1482 4.35218 53.1165C4.40146 53.0848 4.45251 53.0584 4.50531 53.0355C4.55812 53.0144 4.61268 52.9968 4.66901 52.9863C4.78342 52.9616 4.89959 52.9616 5.014 52.9863C5.07032 52.9968 5.12489 53.0144 5.17769 53.0355C5.2305 53.0584 5.2833 53.0848 5.33082 53.1165C5.37835 53.1482 5.42411 53.1852 5.4646 53.2256C5.50508 53.2661 5.54204 53.3119 5.57373 53.3594C5.60541 53.4069 5.63181 53.458 5.65469 53.5125C5.67581 53.5653 5.69342 53.6199 5.70398 53.6762C5.7163 53.7326 5.72158 53.7906 5.72158 53.8487C5.72158 54.0793 5.62829 54.3064 5.4646 54.4701C5.42411 54.5106 5.37835 54.5475 5.33082 54.5792C5.2833 54.6109 5.2305 54.639 5.17769 54.6602C5.12489 54.683 5.07032 54.7006 5.014 54.7112C4.95767 54.7218 4.89959 54.7288 4.8415 54.7288Z" fill="#232D33"/>
  <path d="M37.7019 72.1114C37.2929 72.1114 36.9262 71.8247 36.8407 71.4081C36.6731 70.5922 35.9745 69.9841 35.1414 69.9294C34.6565 69.8973 34.2892 69.4782 34.321 68.9933C34.3531 68.5084 34.7716 68.1425 35.2571 68.1729C36.8783 68.2796 38.2386 69.4643 38.5649 71.0541C38.6626 71.5302 38.3558 71.9954 37.8797 72.0931C37.8202 72.1054 37.7605 72.1114 37.7019 72.1114Z" fill="#0F1214"/>
  <path d="M35.8605 75.0748C35.8112 75.0748 35.7614 75.0706 35.711 75.0619C35.2319 74.9801 34.91 74.5253 34.992 74.0461C35.2967 72.265 36.7022 70.8844 38.4893 70.6103C40.1575 70.3539 41.8087 71.118 42.6946 72.5553C42.9497 72.9691 42.8208 73.5112 42.407 73.7663C41.9932 74.0212 41.4509 73.8923 41.196 73.4787C40.6821 72.6445 39.7237 72.2015 38.7561 72.3501C37.7192 72.509 36.9039 73.3099 36.727 74.3429C36.6536 74.7717 36.2813 75.0746 35.8605 75.0748Z" fill="#0F1214"/>
  <path d="M46.9737 18.548H43.8658C43.3798 18.548 42.9857 18.1539 42.9857 17.6679C42.9857 17.1819 43.3798 16.7878 43.8658 16.7878H46.9737C47.4597 16.7878 47.8538 17.1819 47.8538 17.6679C47.8538 18.1539 47.4597 18.548 46.9737 18.548Z" fill="#232D33"/>
  <path d="M41.2842 18.548H31.4033C30.9173 18.548 30.5232 18.1539 30.5232 17.6679C30.5232 17.1819 30.9173 16.7878 31.4033 16.7878H41.2842C41.7702 16.7878 42.1643 17.1819 42.1643 17.6679C42.1643 18.1539 41.7704 18.548 41.2842 18.548Z" fill="#232D33"/>
  <path d="M39.1894 27.2118C41.0992 27.2118 42.6474 25.6636 42.6474 23.7538C42.6474 21.844 41.0992 20.2958 39.1894 20.2958C37.2796 20.2958 35.7314 21.844 35.7314 23.7538C35.7314 25.6636 37.2796 27.2118 39.1894 27.2118Z" fill="#149EF6"/>
  <path d="M39.1894 38.1112C41.0992 38.1112 42.6474 36.563 42.6474 34.6532C42.6474 32.7435 41.0992 31.1953 39.1894 31.1953C37.2796 31.1953 35.7314 32.7435 35.7314 34.6532C35.7314 36.563 37.2796 38.1112 39.1894 38.1112Z" fill="#149EF6"/>
  <path d="M39.1895 27.2118C41.0992 27.2118 42.6475 25.6636 42.6475 23.7538C42.6475 21.8441 41.0992 20.2958 39.1895 20.2958" fill="white"/>
  <path d="M39.1895 38.1112C41.0992 38.1112 42.6475 36.563 42.6475 34.6533C42.6475 32.7435 41.0992 31.1953 39.1895 31.1953" fill="white"/>
  <path d="M39.1895 28.0919C36.7975 28.0919 34.8514 26.1459 34.8514 23.7538C34.8514 21.3618 36.7975 19.4158 39.1895 19.4158C40.0129 19.4158 40.8145 19.6478 41.5076 20.0866C41.9183 20.3467 42.0404 20.8903 41.7805 21.3009C41.5205 21.7115 40.9769 21.8339 40.5661 21.5737C40.1553 21.3134 39.6792 21.1759 39.1897 21.1759C37.7682 21.1759 36.6118 22.3323 36.6118 23.7538C36.6118 25.1753 37.7682 26.3318 39.1897 26.3318C40.6112 26.3318 41.7676 25.1753 41.7676 23.7538C41.7676 23.2679 42.1617 22.8738 42.6477 22.8738C43.1337 22.8738 43.5278 23.2679 43.5278 23.7538C43.5276 26.1459 41.5816 28.0919 39.1895 28.0919Z" fill="#232D33"/>
  <path d="M39.1895 38.9915C36.7975 38.9915 34.8514 37.0454 34.8514 34.6534C34.8514 32.2613 36.7975 30.3153 39.1895 30.3153C40.4142 30.3153 41.5877 30.8367 42.4092 31.746C42.7352 32.1066 42.7068 32.6632 42.3462 32.989C41.9855 33.315 41.429 33.2866 41.1032 32.926C40.6149 32.3854 39.9173 32.0755 39.1895 32.0755C37.768 32.0755 36.6116 33.2319 36.6116 34.6534C36.6116 36.0749 37.768 37.2313 39.1895 37.2313C40.611 37.2313 41.7674 36.0749 41.7674 34.6534C41.7674 34.1674 42.1615 33.7733 42.6475 33.7733C43.1335 33.7733 43.5276 34.1674 43.5276 34.6534C43.5276 37.0453 41.5816 38.9915 39.1895 38.9915Z" fill="#232D33"/>
</svg>