<svg xmlns="http://www.w3.org/2000/svg" width="67" height="67" viewBox="0 0 67 67" fill="none">
  <path d="M22.6935 59.4308L1.08057 65.9147V14.0437L22.6935 7.55988V59.4308Z" fill="#C4E8FF"/>
  <path d="M44.3065 14.0434L65.9194 8.64014V60.5111L44.3065 65.9143V14.0434Z" fill="#C4E8FF"/>
  <path d="M44.3064 14.0437V65.9147L22.6935 59.4308V7.55988L44.3064 14.0437Z" fill="#C0DAFC"/>
  <path d="M44.3064 14.0437V65.9147L22.6935 59.4308V7.55988L44.3064 14.0437Z" fill="#90D3FF"/>
  <path d="M1.08057 27.0114L7.78057 29.5217C8.304 29.7171 8.73143 30.1076 8.9732 30.6113C9.21497 31.1149 9.2523 31.6927 9.07734 32.2233L7.61307 36.5913C7.5808 36.6884 7.54143 36.783 7.49528 36.8744L4.65426 42.5575C4.43935 42.9875 4.37395 43.4769 4.46839 43.9483L4.8866 46.0394C4.94928 46.353 4.94159 46.6766 4.86406 46.9869C4.78654 47.2971 4.64112 47.5864 4.43829 47.8336C4.23547 48.0809 3.98029 48.2801 3.69117 48.4168C3.40205 48.5535 3.08619 48.6244 2.76637 48.6243H1.08057V27.0114Z" fill="#559B2D"/>
  <path d="M1.08057 27.0114L7.78057 29.5217C8.304 29.7171 8.73143 30.1076 8.9732 30.6113C9.21497 31.1149 9.2523 31.6927 9.07734 32.2233L7.61307 36.5913C7.5808 36.6884 7.54143 36.783 7.49528 36.8744L4.65426 42.5575C4.43935 42.9875 4.37395 43.4769 4.46839 43.9483L4.8866 46.0394C4.94928 46.353 4.94159 46.6766 4.86406 46.9869C4.78654 47.2971 4.64112 47.5864 4.43829 47.8336C4.23547 48.0809 3.98029 48.2801 3.69117 48.4168C3.40205 48.5535 3.08619 48.6244 2.76637 48.6243H1.08057V27.0114Z" fill="#77868F"/>
  <path d="M18.5192 12.4605L11.8872 24.8501L5.25532 12.4605C4.62044 11.2975 4.29653 9.99027 4.31495 8.66536C4.33337 7.34046 4.69349 6.04274 5.36045 4.89781C6.02741 3.75288 6.97864 2.7995 8.12206 2.12995C9.26548 1.46039 10.5624 1.09734 11.8872 1.07593C13.2121 1.09734 14.509 1.46039 15.6524 2.12995C16.7958 2.7995 17.7471 3.75288 18.414 4.89781C19.081 6.04274 19.4411 7.34046 19.4595 8.66536C19.4779 9.99027 19.154 11.2975 18.5192 12.4605Z" fill="#149EF6"/>
  <path d="M11.8872 11.8822C13.6777 11.8822 15.1291 10.4308 15.1291 8.64031C15.1291 6.84984 13.6777 5.39838 11.8872 5.39838C10.0967 5.39838 8.64526 6.84984 8.64526 8.64031C8.64526 10.4308 10.0967 11.8822 11.8872 11.8822Z" fill="#F2F2F2"/>
  <path d="M28 33.0806C28 32.4838 28.4838 32 29.0806 32H37.7258C38.3226 32 38.8065 32.4838 38.8065 33.0806C38.8065 33.6775 38.3226 34.1613 37.7258 34.1613H29.0806C28.4838 34.1613 28 33.6775 28 33.0806Z" fill="#232D33"/>
  <path d="M37 41.0806C37 40.4838 37.4838 40 38.0806 40H40.2419C40.8388 40 41.3226 40.4838 41.3226 41.0806C41.3226 41.6775 40.8388 42.1613 40.2419 42.1613H38.0806C37.4838 42.1613 37 41.6775 37 41.0806Z" fill="#232D33"/>
  <path d="M15 27.0806C15 26.4838 15.4838 26 16.0806 26H18.2419C18.8388 26 19.3226 26.4838 19.3226 27.0806C19.3226 27.6775 18.8388 28.1613 18.2419 28.1613H16.0806C15.4838 28.1613 15 27.6775 15 27.0806Z" fill="#232D33"/>
  <path d="M44.3064 50.6848L40.2669 51.117C39.8592 51.1605 39.4474 51.087 39.0799 50.9053C38.7123 50.7235 38.404 50.4409 38.191 50.0904L31.7579 39.5001C31.4876 39.0547 31.0654 38.722 30.5692 38.5632L26.0813 37.127C25.7096 37.0072 25.3123 36.9903 24.9317 37.0782C24.5512 37.1661 24.2015 37.3555 23.92 37.6263L22.6935 38.8117V59.4304L44.3064 65.9143V50.6848Z" fill="#9CA8AF"/>
  <path d="M8.375 49.3195C8.375 48.8055 8.79162 48.3889 9.30556 48.3889C9.81949 48.3889 10.2361 48.8055 10.2361 49.3195V50.25C10.2361 50.764 9.81949 51.1806 9.30556 51.1806C8.79162 51.1806 8.375 50.764 8.375 50.25V49.3195Z" fill="white"/>
  <path d="M22.6936 59.4308V38.8121L19.7369 41.6509C19.5488 41.8331 19.3291 41.9796 19.0885 42.0832L11.0388 45.5186C10.65 45.6845 10.3184 45.9608 10.085 46.3132C9.85167 46.6657 9.72678 47.0788 9.72583 47.5015V63.3211L22.6936 59.4308Z" fill="#77868F"/>
  <path d="M47.6284 50.3308L44.3065 50.6852V65.9148L57.6945 62.3472L56.7639 58.1597L55.0276 56.3683L49.3542 50.9208C49.1269 50.7026 48.8547 50.5367 48.5566 50.4348C48.2585 50.3329 47.9417 50.2974 47.6284 50.3308Z" fill="#D1D7DB"/>
  <path d="M31.7645 18.4969C31.5417 18.7971 31.4006 19.15 31.3549 19.521C31.3093 19.8921 31.3607 20.2686 31.504 20.6139L32.9402 24.0784C33.0497 24.3425 33.2102 24.5824 33.4125 24.7843C33.6148 24.9862 33.8549 25.1463 34.1192 25.2553L40.3869 27.8488C40.8866 28.0562 41.4454 28.0704 41.955 27.8888C42.5277 27.6846 43.3674 27.3874 44.3108 27.0589V14.0436L36.8543 11.8066L31.7645 18.4969Z" fill="#9CA8AF"/>
  <path d="M51.2907 24.9103C51.7976 24.9103 52.9906 26.0126 54.149 27.2251L61.0781 35.2953L61.8735 35.5514C62.3093 35.6908 62.7777 35.6908 63.2135 35.5514L65.9194 34.6837V8.64014L44.3065 14.0434V27.0543C46.5846 26.1861 48.9178 25.4698 51.2907 24.9103Z" fill="#D1D7DB"/>
  <path d="M61.745 38.3959L55.1131 50.7855L48.4811 38.3959C47.8463 37.2329 47.5224 35.9257 47.5408 34.6008C47.5592 33.2759 47.9193 31.9782 48.5863 30.8332C49.2532 29.6883 50.2045 28.7349 51.3479 28.0654C52.4913 27.3958 53.7882 27.0328 55.1131 27.0114C56.4379 27.0328 57.7348 27.3958 58.8782 28.0654C60.0217 28.7349 60.9729 29.6883 61.6399 30.8332C62.3068 31.9782 62.6669 33.2759 62.6854 34.6008C62.7038 35.9257 62.3799 37.2329 61.745 38.3959Z" fill="#43B3FB"/>
  <path d="M55.1129 37.8177C56.9034 37.8177 58.3548 36.3662 58.3548 34.5757C58.3548 32.7853 56.9034 31.3338 55.1129 31.3338C53.3224 31.3338 51.871 32.7853 51.871 34.5757C51.871 36.3662 53.3224 37.8177 55.1129 37.8177Z" fill="#F2F2F2"/>
  <path d="M65.6568 7.59209L44.3324 12.9229L23.0037 6.52442C22.801 6.46358 22.585 6.46358 22.3823 6.52442L20.3648 7.12958C20.1706 6.09906 19.7968 5.1107 19.2603 4.20967C18.5035 2.92745 17.4253 1.86477 16.1323 1.12653C14.8392 0.388286 13.376 0 11.8871 0C10.3982 0 8.93496 0.388286 7.64192 1.12653C6.34889 1.86477 5.27072 2.92745 4.51385 4.20967C3.80544 5.38123 3.38019 6.70195 3.27194 8.06675C3.1637 9.43155 3.37544 10.8028 3.89032 12.0714L0.767259 13.0083C0.54516 13.0756 0.350627 13.2126 0.212446 13.399C0.0742638 13.5855 -0.000225342 13.8115 5.12086e-07 14.0435V65.9145C-1.11806e-05 66.083 0.039351 66.2491 0.114945 66.3996C0.19054 66.5501 0.300274 66.6809 0.435388 66.7814C0.570503 66.882 0.727257 66.9496 0.893139 66.9788C1.05902 67.0081 1.22944 66.9981 1.39079 66.9498L22.6935 60.5588L43.9963 66.9498C44.1826 67.0055 44.3804 67.01 44.569 66.9627L66.182 61.5595C66.4156 61.501 66.6231 61.366 66.7713 61.1761C66.9195 60.9862 67 60.7522 67 60.5113V8.64032C67 8.47606 66.9625 8.31396 66.8905 8.16634C66.8184 8.01872 66.7137 7.88947 66.5842 7.78841C66.4547 7.68735 66.3038 7.61715 66.1432 7.58313C65.9824 7.54911 65.8161 7.55218 65.6568 7.59209ZM56.1936 61.8286L45.3871 64.5302V51.6554L47.7429 51.4047C47.8998 51.3882 48.0584 51.4061 48.2077 51.457C48.3569 51.5079 48.4934 51.5908 48.6074 51.6997L55.8629 58.6645C55.9674 58.7656 56.0507 58.8866 56.1077 59.0204C56.1646 59.1543 56.1942 59.2982 56.1946 59.4436L56.1936 61.8286ZM43.2258 64.4621L23.7742 58.6266V39.2723L24.6744 38.4078C24.8151 38.2724 24.9899 38.1777 25.1802 38.1337C25.3705 38.0898 25.5691 38.0982 25.755 38.1581L30.2429 39.5943C30.4914 39.6734 30.7028 39.8396 30.8384 40.0622L37.2704 50.6526C37.5899 51.1774 38.052 51.6005 38.6029 51.8728C39.1537 52.1451 39.7705 52.2552 40.3815 52.1903L43.2258 51.8867V64.4621ZM21.6129 58.6266L10.8065 61.8686V47.496C10.8067 47.2843 10.869 47.0773 10.9858 46.9008C11.1026 46.7242 11.2687 46.5859 11.4635 46.5029L19.511 43.0686C19.8722 42.9138 20.2018 42.694 20.4836 42.4202L21.6118 41.3396L21.6129 58.6266ZM40.1525 50.0409C39.9486 50.0617 39.743 50.0246 39.5593 49.9338C39.3756 49.843 39.2212 49.7022 39.114 49.5276L32.682 38.9373C32.2759 38.2698 31.6428 37.7711 30.8989 37.5325L26.4099 36.0963C25.9733 35.9585 25.5124 35.9155 25.0579 35.9701C24.6033 36.0247 24.1657 36.1756 23.7742 36.4129V9.01206L34.9578 12.3675L30.8956 17.8528C30.5639 18.304 30.3537 18.8329 30.2854 19.3887C30.2171 19.9445 30.2929 20.5086 30.5055 21.0267L31.9428 24.4923C32.1056 24.888 32.3453 25.2474 32.648 25.5498C32.9508 25.8522 33.3105 26.0914 33.7064 26.2538L39.9687 28.8473C40.7161 29.1569 41.5517 29.178 42.3137 28.9067C42.6379 28.7911 42.9221 28.6906 43.2258 28.5825V49.7135L40.1525 50.0409ZM41.5876 26.8665C41.3298 26.9582 41.0471 26.9509 40.7944 26.846L34.5331 24.2524C34.3998 24.1978 34.2787 24.1174 34.1767 24.0158C34.0747 23.9141 33.9938 23.7933 33.9387 23.6602L32.5026 20.2032C32.4307 20.0306 32.4049 19.8422 32.4276 19.6566C32.4503 19.471 32.5208 19.2944 32.6322 19.1442L37.158 13.0321L43.2258 14.8475V26.2862C42.7114 26.471 42.1711 26.6579 41.5876 26.8665ZM6.36824 5.31626C6.93298 4.35428 7.73936 3.55662 8.70742 3.00238C9.67548 2.44814 10.7716 2.15656 11.8871 2.15656C13.0026 2.15656 14.0987 2.44814 15.0668 3.00238C16.0348 3.55662 16.8412 4.35428 17.406 5.31626C18.0089 6.31206 18.3408 7.44825 18.3689 8.61201C18.3969 9.77577 18.1201 10.9266 17.5659 11.9503L11.8871 22.5601L6.20831 11.9503C5.65409 10.9266 5.37726 9.77577 5.40532 8.61201C5.43338 7.44825 5.76534 6.31206 6.36824 5.31626ZM3.40836 44.16L3.82656 46.2468C3.85862 46.4038 3.85534 46.566 3.81698 46.7216C3.77861 46.8772 3.70612 47.0223 3.60475 47.1464C3.50338 47.2706 3.37566 47.3706 3.23086 47.4393C3.08606 47.508 2.9278 47.5436 2.76753 47.5435H2.16129V28.5707L7.39594 30.5331C7.6584 30.6308 7.87269 30.8266 7.99365 31.0792C8.1146 31.3318 8.13277 31.6214 8.04432 31.8872L6.59194 36.2519C6.57576 36.2997 6.55626 36.3462 6.53358 36.3913L3.68824 42.0733C3.3669 42.7188 3.26848 43.4527 3.40836 44.16ZM2.16129 49.7048H2.76753C3.2469 49.7044 3.72019 49.5976 4.15334 49.3923C4.58649 49.1869 4.9687 48.8881 5.27246 48.5172C5.57622 48.1464 5.79396 47.7128 5.91001 47.2477C6.02605 46.7826 6.0375 46.2975 5.94355 45.8275L5.52534 43.7354C5.47924 43.4997 5.51229 43.2554 5.61936 43.0405L8.46145 37.3552C8.52945 37.2189 8.58794 37.0781 8.63652 36.9338L10.09 32.5712C10.3582 31.7752 10.306 30.9061 9.94426 30.148C9.58256 29.3899 8.93986 28.8024 8.15239 28.5101L2.16129 26.2624V14.8475L4.87263 14.0349L10.934 25.3601C11.0262 25.5327 11.1636 25.677 11.3315 25.7777C11.4993 25.8783 11.6914 25.9315 11.8871 25.9315C12.0828 25.9315 12.2749 25.8783 12.4427 25.7777C12.6106 25.677 12.748 25.5327 12.8402 25.3601L19.4721 12.9694C20.0693 11.8488 20.4197 10.6133 20.4998 9.34598L21.6129 9.01206V38.3516L18.988 40.8716C18.8944 40.9633 18.7844 41.0366 18.6638 41.0878L10.6152 44.5177C10.0304 44.7671 9.53195 45.183 9.18168 45.7135C8.83141 46.2439 8.64484 46.8657 8.64516 47.5014V62.5224L2.16129 64.4675V49.7048ZM64.8387 59.6673L58.3548 61.2883V59.4436C58.354 59.0071 58.2653 58.5752 58.0942 58.1737C57.923 57.7721 57.6728 57.4091 57.3585 57.1062L50.103 50.1371C49.7621 49.8083 49.3531 49.5586 48.9048 49.4057C48.4566 49.2527 47.9802 49.2003 47.5095 49.252L45.3871 49.4822V27.8239C48.6852 26.6882 50.6304 26.0949 51.1923 26.003C51.4473 26.164 51.6871 26.3477 51.9088 26.552C50.1635 27.2615 48.699 28.5237 47.7397 30.1452C46.9428 31.4604 46.5036 32.9611 46.4657 34.4984C46.4277 36.0358 46.7924 37.5563 47.5235 38.9092L54.1554 51.2999C54.2477 51.4725 54.3851 51.6168 54.5529 51.7175C54.7208 51.8181 54.9129 51.8713 55.1086 51.8713C55.3043 51.8713 55.4963 51.8181 55.6642 51.7175C55.8321 51.6168 55.9695 51.4725 56.0617 51.2999L62.6936 38.9092C63.4247 37.5563 63.7894 36.0358 63.7515 34.4984C63.7136 32.9611 63.2744 31.4604 62.4775 30.1452C61.7239 28.8616 60.6477 27.7974 59.3559 27.0581C58.064 26.3189 56.6013 25.9302 55.1129 25.9306C54.8838 25.9306 54.6601 25.9566 54.4353 25.975C52.6923 24.2178 51.9164 23.8299 51.2896 23.8299C51.0475 23.8299 50.3829 23.8299 45.3871 25.5373V14.8875L64.8387 10.0246V59.6673ZM55.1129 28.0919C56.2285 28.0915 57.3248 28.3829 58.2929 28.9372C59.2611 29.4915 60.0674 30.2895 60.6318 31.2517C61.2347 32.2476 61.5666 33.3837 61.5947 34.5475C61.6227 35.7113 61.3459 36.8621 60.7917 37.8858L55.1129 48.4956L49.4341 37.8858C48.8799 36.8621 48.6031 35.7113 48.6311 34.5475C48.6592 33.3837 48.9911 32.2476 49.5941 31.2517C50.1584 30.2895 50.9647 29.4915 51.9329 28.9372C52.901 28.3829 53.9973 28.0915 55.1129 28.0919Z" fill="#232D33"/>
  <path d="M11.8872 12.9626C12.7421 12.9626 13.5778 12.7091 14.2887 12.2341C14.9995 11.7591 15.5535 11.0841 15.8807 10.2942C16.2079 9.50436 16.2935 8.63523 16.1267 7.79673C15.9599 6.95823 15.5482 6.18802 14.9437 5.5835C14.3392 4.97898 13.5689 4.56729 12.7304 4.4005C11.892 4.23372 11.0228 4.31932 10.233 4.64648C9.44313 4.97365 8.76803 5.52768 8.29306 6.23853C7.81809 6.94937 7.56458 7.7851 7.56458 8.64003C7.56458 9.78645 8.01999 10.8859 8.83063 11.6966C9.64127 12.5072 10.7407 12.9626 11.8872 12.9626ZM11.8872 6.47874C12.3146 6.47874 12.7325 6.60549 13.0879 6.84298C13.4433 7.08047 13.7203 7.41801 13.8839 7.81294C14.0475 8.20786 14.0903 8.64242 14.0069 9.06167C13.9235 9.48092 13.7177 9.86603 13.4154 10.1683C13.1132 10.4706 12.7281 10.6764 12.3088 10.7598C11.8896 10.8432 11.455 10.8004 11.0601 10.6368C10.6651 10.4732 10.3276 10.1962 10.0901 9.84078C9.85262 9.48535 9.72587 9.06749 9.72587 8.64003C9.72587 8.06682 9.95357 7.51708 10.3589 7.11176C10.7642 6.70644 11.3139 6.47874 11.8872 6.47874Z" fill="#232D33"/>
  <path d="M55.113 38.8982C55.9679 38.8982 56.8036 38.6447 57.5145 38.1697C58.2253 37.6948 58.7794 37.0197 59.1065 36.2298C59.4337 35.44 59.5193 34.5708 59.3525 33.7323C59.1857 32.8938 58.774 32.1236 58.1695 31.5191C57.565 30.9146 56.7948 30.5029 55.9563 30.3361C55.1178 30.1693 54.2487 30.2549 53.4588 30.5821C52.669 30.9093 51.9939 31.4633 51.5189 32.1741C51.0439 32.885 50.7904 33.7207 50.7904 34.5756C50.7904 35.7221 51.2458 36.8215 52.0565 37.6322C52.8671 38.4428 53.9666 38.8982 55.113 38.8982ZM55.113 32.4143C55.5404 32.4143 55.9583 32.5411 56.3137 32.7786C56.6692 33.0161 56.9462 33.3536 57.1098 33.7485C57.2733 34.1435 57.3161 34.578 57.2327 34.9973C57.1494 35.4165 56.9435 35.8016 56.6413 36.1039C56.339 36.4062 55.9539 36.612 55.5346 36.6954C55.1154 36.7788 54.6808 36.736 54.2859 36.5724C53.891 36.4088 53.5534 36.1318 53.3159 35.7764C53.0785 35.421 52.9517 35.0031 52.9517 34.5756C52.9517 34.0024 53.1794 33.4527 53.5847 33.0474C53.99 32.6421 54.5398 32.4143 55.113 32.4143Z" fill="#232D33"/>
</svg>