<svg xmlns="http://www.w3.org/2000/svg" width="70" height="71" viewBox="0 0 70 71" fill="none">
  <path d="M41.0469 21.1837V16.8016L44.2086 11.6763C44.3127 11.5084 44.37 11.3158 44.3746 11.1183C44.3792 10.9208 44.331 10.7256 44.2348 10.553C44.1386 10.3805 43.998 10.2368 43.8276 10.1368C43.6572 10.0369 43.4632 9.98428 43.2656 9.98453H41.0469V6.46227C41.5253 6.29391 41.9589 6.01834 42.3144 5.65665C42.67 5.29495 42.9381 4.85672 43.0983 4.37548C43.2584 3.89424 43.3064 3.38275 43.2384 2.88013C43.1705 2.37751 42.9885 1.89709 42.7064 1.47562C42.4242 1.05415 42.0494 0.702805 41.6106 0.448465C41.1718 0.194125 40.6806 0.0435291 40.1747 0.00819983C39.6687 -0.0271294 39.1614 0.0537441 38.6915 0.244633C38.2216 0.435521 37.8016 0.731367 37.4636 1.10953H31.1734C30.922 1.11056 30.6782 1.19662 30.4818 1.35372C30.2855 1.51082 30.148 1.72972 30.0918 1.97485L28.6774 8.1818C28.6663 8.19844 28.6441 8.21508 28.6274 8.23727L0.199697 48.8071C0.0709955 48.9951 0.00145266 49.2172 9.74045e-06 49.445V57.671C-0.00173485 58.2615 0.230935 58.8286 0.646932 59.2477C1.06293 59.6668 1.62825 59.9037 2.21876 59.9064H9.98438V62.1252H4.43751C3.26061 62.1252 2.13192 62.5927 1.29972 63.4249C0.467531 64.2571 9.74045e-06 65.3858 9.74045e-06 66.5627C9.74045e-06 67.7396 0.467531 68.8683 1.29972 69.7004C2.13192 70.5326 3.26061 71.0002 4.43751 71.0002H32.1719C33.3488 71.0002 34.4775 70.5326 35.3097 69.7004C36.1419 68.8683 36.6094 67.7396 36.6094 66.5627C36.6094 65.3858 36.1419 64.2571 35.3097 63.4249C34.4775 62.5927 33.3488 62.1252 32.1719 62.1252H23.2969V59.9064H33.2813C33.8718 59.9037 34.4371 59.6668 34.8531 59.2477C35.2691 58.8286 35.5018 58.2615 35.5 57.671V53.6495C35.4665 52.9833 35.2699 52.3354 34.9276 51.7629C34.5852 51.1903 34.1075 50.7106 33.5364 50.3658L20.823 42.3894C20.568 42.2469 20.2828 42.167 19.9909 42.1564C19.3198 42.1564 18.8594 42.6834 18.8594 43.582V48.796H13.8395L32.6212 12.525C32.6683 12.4894 32.7127 12.4504 32.7543 12.4085L38.4842 6.31805C38.5952 6.37352 38.7117 6.41789 38.8281 6.46224V9.98453H36.6094C36.4146 9.98353 36.2231 10.0344 36.0544 10.1319C35.8858 10.2293 35.7461 10.3699 35.6498 10.5392C35.5517 10.7086 35.5 10.9009 35.5 11.0967C35.5 11.2924 35.5517 11.4847 35.6498 11.6541L38.8281 17.1012V22.1877C38.829 22.4816 38.9462 22.7633 39.154 22.9711C39.3619 23.179 39.6436 23.2962 39.9375 23.297C39.9729 23.2964 40.0082 23.2927 40.0429 23.2859C40.0777 23.2924 40.1129 23.2961 40.1483 23.297C40.6985 23.3521 41.2087 23.6096 41.5797 24.0196C41.9508 24.4296 42.1562 24.9628 42.1562 25.5158C42.1562 26.0688 41.9508 26.602 41.5797 27.012C41.2087 27.422 40.6985 27.6795 40.1483 27.7345C39.8462 27.7307 39.5493 27.6559 39.2814 27.5161C39.0136 27.3764 38.7823 27.1757 38.6063 26.9302C38.429 26.6949 38.1655 26.5395 37.8737 26.4984C37.5819 26.4574 37.2857 26.5339 37.0504 26.7111C36.815 26.8884 36.6597 27.1519 36.6186 27.4437C36.5775 27.7355 36.654 28.0317 36.8313 28.267C37.2146 28.7871 37.7141 29.2104 38.29 29.5032C38.8659 29.7959 39.5022 29.9501 40.1483 29.9533C41.2965 29.9231 42.386 29.4392 43.1781 28.6075C43.9703 27.7758 44.4007 26.6641 44.375 25.5158C44.3911 24.5239 44.0709 23.5559 43.4665 22.7693C42.8622 21.9826 42.0094 21.4238 41.0469 21.1837ZM32.1719 64.3439C32.7603 64.3439 33.3247 64.5777 33.7408 64.9938C34.1569 65.4099 34.3906 65.9742 34.3906 66.5627C34.3906 67.1511 34.1569 67.7155 33.7408 68.1316C33.3247 68.5477 32.7603 68.7814 32.1719 68.7814H4.43751C3.84906 68.7814 3.28471 68.5477 2.86862 68.1316C2.45252 67.7155 2.21876 67.1511 2.21876 66.5627C2.21876 65.9742 2.45252 65.4099 2.86862 64.9938C3.28471 64.5777 3.84906 64.3439 4.43751 64.3439H32.1719ZM12.2031 62.1252V59.9064H21.0781V62.1252H12.2031ZM21.0781 51.0148V45.1684L32.3605 52.2462L32.427 52.285L32.4936 52.3238C32.7085 52.4792 32.8893 52.677 33.0248 52.905C33.1603 53.1331 33.2476 53.3865 33.2813 53.6495V57.6877L2.21876 57.671V51.0148H21.0781ZM11.3378 48.796H2.91767L9.29657 39.6936C9.34325 39.7331 9.39337 39.7684 9.44634 39.799L14.4385 42.5724C14.4708 42.5877 14.5042 42.6007 14.5384 42.6113L11.3378 48.796ZM15.5534 40.6588C15.5415 40.6482 15.5285 40.6389 15.5146 40.631L10.5668 37.8798L14.1667 32.7434L18.4267 35.1119L15.5534 40.6588ZM19.4474 33.1372L15.4481 30.9184L18.4877 26.5808L21.8492 28.5L19.4474 33.1372ZM22.8698 26.5309L19.7635 24.7559L22.3761 21.0284L25.0331 22.3541L22.8698 26.5309ZM26.0537 20.3849L23.663 19.1868L29.7701 10.4782L30.7685 11.277L26.0537 20.3849ZM32.2939 9.65727L30.8795 8.5257L32.0609 3.32828H36.6094C36.6101 3.81543 36.7181 4.29644 36.9256 4.73719L32.2939 9.65727ZM39.9375 2.21891C40.1569 2.21891 40.3714 2.28397 40.5538 2.40587C40.7363 2.52777 40.8785 2.70103 40.9624 2.90374C41.0464 3.10646 41.0684 3.32951 41.0256 3.54471C40.9828 3.75991 40.8771 3.95758 40.722 4.11273C40.5668 4.26788 40.3691 4.37354 40.1539 4.41634C39.9387 4.45915 39.7157 4.43718 39.513 4.35321C39.3103 4.26925 39.137 4.12705 39.0151 3.94462C38.8932 3.76218 38.8281 3.5477 38.8281 3.32828C38.829 3.03432 38.9461 2.75265 39.154 2.54479C39.3619 2.33692 39.6435 2.21977 39.9375 2.21891ZM39.8709 14.483L38.5397 12.2033H41.2799L39.8709 14.483Z" fill="#232D33"/>
  <path d="M41.2798 12.2032L39.8709 14.483L38.5397 12.2032H41.2798Z" fill="#43B3FB"/>
  <path d="M39.9375 4.43762C40.5502 4.43762 41.0469 3.94094 41.0469 3.32825C41.0469 2.71556 40.5502 2.21887 39.9375 2.21887C39.3248 2.21887 38.8281 2.71556 38.8281 3.32825C38.8281 3.94094 39.3248 4.43762 39.9375 4.43762Z" fill="#43B3FB"/>
  <path d="M36.9255 4.73715L32.2938 9.65723L30.8794 8.52567L32.0609 3.32825H36.6093C36.6101 3.81539 36.718 4.29641 36.9255 4.73715Z" fill="white"/>
  <path d="M30.7685 11.2768L26.0537 20.3848L23.663 19.1867L29.7701 10.4781L30.7685 11.2768Z" fill="white"/>
  <path d="M25.033 22.354L22.8697 26.5308L19.7634 24.7558L22.376 21.0283L25.033 22.354Z" fill="white"/>
  <path d="M21.8492 28.4999L19.4474 33.1371L15.4481 30.9183L18.4878 26.5807L21.8492 28.4999Z" fill="white"/>
  <path d="M18.4267 35.1119L15.5534 40.6587C15.5415 40.6482 15.5284 40.6389 15.5146 40.631L10.5668 37.8798L14.1667 32.7433L18.4267 35.1119Z" fill="white"/>
  <path d="M14.5383 42.6113L11.3378 48.796H2.9176L9.29651 39.6936C9.34318 39.7331 9.39331 39.7684 9.44627 39.799L14.4385 42.5724C14.4708 42.5878 14.5041 42.6007 14.5383 42.6113Z" fill="white"/>
  <path d="M34.3906 66.5626C34.3907 66.854 34.3334 67.1426 34.2219 67.4118C34.1104 67.681 33.947 67.9256 33.7409 68.1317C33.5349 68.3377 33.2903 68.5012 33.021 68.6126C32.7518 68.7241 32.4633 68.7815 32.1719 68.7814H4.4375C3.84905 68.7814 3.2847 68.5476 2.86861 68.1315C2.45251 67.7154 2.21875 67.1511 2.21875 66.5626C2.21875 65.9742 2.45251 65.4098 2.86861 64.9937C3.2847 64.5776 3.84905 64.3439 4.4375 64.3439H32.1719C32.4633 64.3438 32.7518 64.4011 33.0211 64.5126C33.2903 64.6241 33.5349 64.7875 33.741 64.9935C33.947 65.1996 34.1104 65.4442 34.2219 65.7134C34.3334 65.9827 34.3907 66.2712 34.3906 66.5626Z" fill="#6CC4FD"/>
  <path d="M33.2812 53.6494V57.6876L2.21875 57.6709V51.0147H21.0781V45.1683L32.3605 52.2461L32.427 52.2849L32.4936 52.3237C32.7085 52.4791 32.8893 52.6769 33.0248 52.905C33.1603 53.133 33.2476 53.3864 33.2812 53.6494Z" fill="#4D5C66"/>
  <path d="M3 53.0001C3 52.4478 3.44772 52.0001 4 52.0001C4.55228 52.0001 5 52.4478 5 53.0001V54.0001C5 54.5524 4.55228 55.0001 4 55.0001C3.44772 55.0001 3 54.5524 3 54.0001V53.0001Z" fill="white"/>
  <path d="M6 53.0001C6 52.4478 6.44772 52.0001 7 52.0001C7.55228 52.0001 8 52.4478 8 53.0001V54.0001C8 54.5524 7.55228 55.0001 7 55.0001C6.44772 55.0001 6 54.5524 6 54.0001V53.0001Z" fill="white"/>
  <path d="M9 53.0001C9 52.4478 9.44772 52.0001 10 52.0001C10.5523 52.0001 11 52.4478 11 53.0001V54.0001C11 54.5524 10.5523 55.0001 10 55.0001C9.44772 55.0001 9 54.5524 9 54.0001V53.0001Z" fill="white"/>
  <path opacity="0.45" d="M16.0084 30.1197L19.8967 32.2719L19.4474 33.1372L15.4481 30.9184L16.0084 30.1197Z" fill="#9CA8AF"/>
  <path opacity="0.45" d="M3.69416 47.6866H11.9091L11.3378 48.796H2.9176L3.69416 47.6866Z" fill="#9CA8AF"/>
  <path opacity="0.4" d="M16.0027 39.7879L15.5534 40.6588C15.5415 40.6482 15.5284 40.6389 15.5146 40.6311L10.5668 37.8798L11.127 37.0811C11.127 37.0811 15.9805 39.7713 16.0027 39.7879Z" fill="#9CA8AF"/>
  <path opacity="0.4" d="M20.3181 23.9626L23.3134 25.6766L22.8697 26.5308L19.7634 24.7558L20.3181 23.9626Z" fill="#9CA8AF"/>
  <path opacity="0.45" d="M24.2398 18.3659L26.5085 19.503L26.0537 20.385L23.663 19.1868L24.2398 18.3659Z" fill="#9CA8AF"/>
  <path opacity="0.45" d="M36.9255 4.73718L32.2939 9.65726L31.6948 9.17468L36.6648 3.90515C36.7137 4.193 36.8014 4.47289 36.9255 4.73718Z" fill="#9CA8AF"/>
  <path opacity="0.5" d="M2.21875 57.1247C2.21875 56.8183 2.46709 56.57 2.77344 56.57H32.7266C33.0329 56.57 33.2812 56.8183 33.2812 57.1247C33.2812 57.431 33.0329 57.6794 32.7266 57.6794H2.77344C2.46709 57.6794 2.21875 57.431 2.21875 57.1247Z" fill="#9CA8AF"/>
  <path d="M34.3906 66.5626C34.3907 66.854 34.3333 67.1426 34.2219 67.4118C34.1104 67.681 33.947 67.9257 33.7409 68.1317C33.5349 68.3377 33.2902 68.5012 33.021 68.6126C32.7518 68.7241 32.4632 68.7815 32.1718 68.7814H4.43746C4.14607 68.7815 3.85751 68.7241 3.58828 68.6126C3.31906 68.5012 3.07443 68.3377 2.86838 68.1317C2.66234 67.9257 2.49891 67.681 2.38744 67.4118C2.27596 67.1426 2.21863 66.854 2.21871 66.5626C2.21701 66.3753 2.24128 66.1886 2.29082 66.0079C2.413 66.4843 2.69031 66.9065 3.079 67.2078C3.4677 67.5091 3.94565 67.6724 4.43746 67.672H32.1718C32.6636 67.6724 33.1416 67.5091 33.5303 67.2078C33.919 66.9065 34.1963 66.4843 34.3185 66.0079C34.368 66.1886 34.3923 66.3753 34.3906 66.5626Z" fill="#43B3FB"/>
  <path d="M57 13.0001H68V69.0001H61.4649C60.7733 70.1957 59.4806 71.0001 58 71.0001H68C69.1046 71.0001 70 70.1047 70 69.0001V13.0001C70 11.8956 69.1046 11.0001 68 11.0001H57C55.8954 11.0001 55 11.8956 55 13.0001V38.0001H57V13.0001Z" fill="#232D33"/>
  <path d="M68 13.0001H57V38.0001H58C60.2091 38.0001 62 39.791 62 42.0001V67.0001C62 67.7287 61.8052 68.4118 61.4649 69.0001H68V13.0001Z" fill="#90D3FF"/>
  <path d="M42 40.0001H60V69.0001H42V40.0001Z" fill="#6CC4FD"/>
  <path fill-rule="evenodd" clip-rule="evenodd" d="M60 40.0001H42L42 69.0001H60V40.0001ZM42 38.0001C40.8954 38.0001 40 38.8956 40 40.0001V69.0001C40 70.1047 40.8954 71.0001 42 71.0001H60C61.1046 71.0001 62 70.1047 62 69.0001V40.0001C62 38.8956 61.1046 38.0001 60 38.0001H42Z" fill="#232D33"/>
  <path fill-rule="evenodd" clip-rule="evenodd" d="M54 34.0001H49L49 38.0001H54V34.0001ZM49 32.0001C47.8954 32.0001 47 32.8956 47 34.0001V38.0001C47 39.1047 47.8954 40.0001 49 40.0001H54C55.1046 40.0001 56 39.1047 56 38.0001V34.0001C56 32.8956 55.1046 32.0001 54 32.0001H49Z" fill="#232D33"/>
  <path d="M49 34.0001H54V38.0001H49V34.0001Z" fill="#90D3FF"/>
  <path d="M42 40.0001H60V42.0001H42V40.0001Z" fill="#90D3FF"/>
  <path d="M42 66.0001H60V69.0001H42V66.0001Z" fill="#43B3FB"/>
  <path d="M46 44.0001C46 43.4478 46.4477 43.0001 47 43.0001H55C55.5523 43.0001 56 43.4478 56 44.0001C56 44.5524 55.5523 45.0001 55 45.0001H47C46.4477 45.0001 46 44.5524 46 44.0001Z" fill="#232D33"/>
  <path d="M46 48.0001C46 47.4478 46.4477 47.0001 47 47.0001H55C55.5523 47.0001 56 47.4478 56 48.0001C56 48.5524 55.5523 49.0001 55 49.0001H47C46.4477 49.0001 46 48.5524 46 48.0001Z" fill="#232D33"/>
  <path d="M46 52.0001C46 51.4478 46.4477 51.0001 47 51.0001H55C55.5523 51.0001 56 51.4478 56 52.0001C56 52.5524 55.5523 53.0001 55 53.0001H47C46.4477 53.0001 46 52.5524 46 52.0001Z" fill="#232D33"/>
  <path d="M46 56.0001C46 55.4478 46.4477 55.0001 47 55.0001H55C55.5523 55.0001 56 55.4478 56 56.0001C56 56.5524 55.5523 57.0001 55 57.0001H47C46.4477 57.0001 46 56.5524 46 56.0001Z" fill="#232D33"/>
  <path d="M46 60.0001C46 59.4478 46.4477 59.0001 47 59.0001H55C55.5523 59.0001 56 59.4478 56 60.0001C56 60.5524 55.5523 61.0001 55 61.0001H47C46.4477 61.0001 46 60.5524 46 60.0001Z" fill="#232D33"/>
  <path d="M46 64.0001C46 63.4478 46.4477 63.0001 47 63.0001H55C55.5523 63.0001 56 63.4478 56 64.0001C56 64.5524 55.5523 65.0001 55 65.0001H47C46.4477 65.0001 46 64.5524 46 64.0001Z" fill="#232D33"/>
  <path d="M59 16.0001C59 15.4478 59.4477 15.0001 60 15.0001H65C65.5523 15.0001 66 15.4478 66 16.0001C66 16.5524 65.5523 17.0001 65 17.0001H60C59.4477 17.0001 59 16.5524 59 16.0001Z" fill="#232D33"/>
  <path d="M59 24.0001C59 23.4478 59.4477 23.0001 60 23.0001H65C65.5523 23.0001 66 23.4478 66 24.0001C66 24.5524 65.5523 25.0001 65 25.0001H60C59.4477 25.0001 59 24.5524 59 24.0001Z" fill="#232D33"/>
  <path d="M59 32.0001C59 31.4478 59.4477 31.0001 60 31.0001H65C65.5523 31.0001 66 31.4478 66 32.0001C66 32.5524 65.5523 33.0001 65 33.0001H60C59.4477 33.0001 59 32.5524 59 32.0001Z" fill="#232D33"/>
  <path d="M59 20.0001C59 19.4478 59.4477 19.0001 60 19.0001H65C65.5523 19.0001 66 19.4478 66 20.0001C66 20.5524 65.5523 21.0001 65 21.0001H60C59.4477 21.0001 59 20.5524 59 20.0001Z" fill="#232D33"/>
  <path d="M59 28.0001C59 27.4478 59.4477 27.0001 60 27.0001H65C65.5523 27.0001 66 27.4478 66 28.0001C66 28.5524 65.5523 29.0001 65 29.0001H60C59.4477 29.0001 59 28.5524 59 28.0001Z" fill="#232D33"/>
  <path d="M59 36.0001C59 35.4478 59.4477 35.0001 60 35.0001H65C65.5523 35.0001 66 35.4478 66 36.0001C66 36.5524 65.5523 37.0001 65 37.0001H60C59.4477 37.0001 59 36.5524 59 36.0001Z" fill="#232D33"/>
  <path d="M64 41.0001C64 40.4478 64.4477 40.0001 65 40.0001C65.5523 40.0001 66 40.4478 66 41.0001C66 41.5524 65.5523 42.0001 65 42.0001C64.4477 42.0001 64 41.5524 64 41.0001Z" fill="#232D33"/>
  <path d="M64 49.0001C64 48.4478 64.4477 48.0001 65 48.0001C65.5523 48.0001 66 48.4478 66 49.0001C66 49.5524 65.5523 50.0001 65 50.0001C64.4477 50.0001 64 49.5524 64 49.0001Z" fill="#232D33"/>
  <path d="M64 57.0001C64 56.4478 64.4477 56.0001 65 56.0001C65.5523 56.0001 66 56.4478 66 57.0001C66 57.5524 65.5523 58.0001 65 58.0001C64.4477 58.0001 64 57.5524 64 57.0001Z" fill="#232D33"/>
  <path d="M64 45.0001C64 44.4478 64.4477 44.0001 65 44.0001C65.5523 44.0001 66 44.4478 66 45.0001C66 45.5524 65.5523 46.0001 65 46.0001C64.4477 46.0001 64 45.5524 64 45.0001Z" fill="#232D33"/>
  <path d="M64 53.0001C64 52.4478 64.4477 52.0001 65 52.0001C65.5523 52.0001 66 52.4478 66 53.0001C66 53.5524 65.5523 54.0001 65 54.0001C64.4477 54.0001 64 53.5524 64 53.0001Z" fill="#232D33"/>
  <path d="M64 61.0001C64 60.4478 64.4477 60.0001 65 60.0001C65.5523 60.0001 66 60.4478 66 61.0001V65.0001C66 65.5524 65.5523 66.0001 65 66.0001C64.4477 66.0001 64 65.5524 64 65.0001V61.0001Z" fill="white"/>
  <path d="M50 25.0001C50 24.4478 50.4477 24.0001 51 24.0001C51.5523 24.0001 52 24.4478 52 25.0001V29.0001C52 29.5524 51.5523 30.0001 51 30.0001C50.4477 30.0001 50 29.5524 50 29.0001V25.0001Z" fill="#232D33"/>
  <path d="M31.8801 50.681C31.3941 50.681 31 50.2869 31 49.8009V41.8802C31 41.3942 31.3941 41.0001 31.8801 41.0001C32.3661 41.0001 32.7602 41.3942 32.7602 41.8802V49.8009C32.7602 50.287 32.3661 50.681 31.8801 50.681Z" fill="#232D33"/>
</svg>