<svg width="24" height="24" viewBox="0 0 24 24" fill="none" xmlns="http://www.w3.org/2000/svg">
<g id="microphone-2">
<g id="Vector">
<path fill-rule="evenodd" clip-rule="evenodd" d="M7.25 6C7.25 3.37579 9.37579 1.25 12 1.25C14.6242 1.25 16.75 3.37579 16.75 6V11.5C16.75 14.1242 14.6242 16.25 12 16.25C9.37579 16.25 7.25 14.1242 7.25 11.5V6ZM12 2.75C10.2042 2.75 8.75 4.20421 8.75 6V11.5C8.75 13.2958 10.2042 14.75 12 14.75C13.7958 14.75 15.25 13.2958 15.25 11.5V6C15.25 4.20421 13.7958 2.75 12 2.75Z" fill="#77868F"/>
<path fill-rule="evenodd" clip-rule="evenodd" d="M4.3501 8.8999C4.76431 8.8999 5.1001 9.23569 5.1001 9.6499V11.3499C5.1001 15.1557 8.19431 18.2499 12.0001 18.2499C15.8059 18.2499 18.9001 15.1557 18.9001 11.3499V9.6499C18.9001 9.23569 19.2359 8.8999 19.6501 8.8999C20.0643 8.8999 20.4001 9.23569 20.4001 9.6499V11.3499C20.4001 15.9841 16.6343 19.7499 12.0001 19.7499C7.36588 19.7499 3.6001 15.9841 3.6001 11.3499V9.6499C3.6001 9.23569 3.93588 8.8999 4.3501 8.8999Z" fill="#77868F"/>
<path fill-rule="evenodd" clip-rule="evenodd" d="M13.1319 7.13427C12.3986 6.8654 11.6016 6.8654 10.8683 7.13427C10.4794 7.27687 10.0485 7.0772 9.90595 6.68831C9.76336 6.29941 9.96302 5.86855 10.3519 5.72596C11.4186 5.33484 12.5816 5.33484 13.6483 5.72596C14.0372 5.86855 14.2369 6.29941 14.0943 6.68831C13.9517 7.0772 13.5208 7.27687 13.1319 7.13427Z" fill="#77868F"/>
<path fill-rule="evenodd" clip-rule="evenodd" d="M12.6184 9.2752C12.214 9.16836 11.796 9.16836 11.3915 9.2752C10.991 9.38098 10.5806 9.14209 10.4748 8.74161C10.369 8.34113 10.6079 7.93073 11.0084 7.82494C11.664 7.65178 12.346 7.65178 13.0015 7.82494C13.402 7.93073 13.6409 8.34113 13.5351 8.74161C13.4293 9.14209 13.0189 9.38098 12.6184 9.2752Z" fill="#77868F"/>
<path fill-rule="evenodd" clip-rule="evenodd" d="M12.0001 18.2499C12.4143 18.2499 12.75 18.5858 12.75 19V22C12.75 22.4142 12.4142 22.75 12 22.75C11.5858 22.75 11.25 22.4142 11.25 22V19C11.25 18.5858 11.5859 18.2499 12.0001 18.2499Z" fill="#77868F"/>
</g>
</g>
</svg>
