<svg width="81" height="80" viewBox="0 0 81 80" fill="none" xmlns="http://www.w3.org/2000/svg">
<g id="reshot-icon-observatory-LC79DAQXYZ">
<g id="Group">
<path id="Vector" d="M49.5457 65.3477H31.7856V79.1459H49.5457V65.3477Z" fill="#90D3FF"/>
<path id="Vector_2" d="M40.6662 9.50574C43.0554 9.50574 44.9923 7.56887 44.9923 5.17963C44.9923 2.79038 43.0554 0.853516 40.6662 0.853516C38.277 0.853516 36.3401 2.79038 36.3401 5.17963C36.3401 7.56887 38.277 9.50574 40.6662 9.50574Z" fill="#43B3FB"/>
<path id="Vector_3" d="M40.6662 10.3601C37.8099 10.3601 35.4862 8.03642 35.4862 5.18013C35.4862 2.32383 37.8099 0 40.6662 0C43.5225 0 45.8461 2.32366 45.8461 5.17996C45.8461 8.03625 43.5225 10.3601 40.6662 10.3601ZM40.6662 1.7077C38.7515 1.7077 37.1939 3.26546 37.1939 5.17996C37.1939 7.09446 38.7517 8.65222 40.6662 8.65222C42.5807 8.65222 44.1384 7.09446 44.1384 5.17996C44.1384 3.26546 42.5808 1.7077 40.6662 1.7077Z" fill="#0F1214"/>
<path id="Vector_4" d="M54.1836 17.142C53.2573 16.3385 52.2588 15.6163 51.1992 14.9863" stroke="#0F1214" stroke-width="8" stroke-miterlimit="10" stroke-linecap="round" stroke-linejoin="round"/>
<path id="Vector_5" d="M61.3028 32.7341C61.3028 27.6469 59.4618 22.9897 56.4094 19.3926" stroke="#0F1214" stroke-width="8" stroke-miterlimit="10" stroke-linecap="round" stroke-linejoin="round"/>
<path id="Vector_6" d="M61.638 62.8878H19.6952V48.4219H61.638V62.8878ZM58.1696 60.2255V51.0039H52.1927V60.2255H58.1696ZM48.4938 60.2255V51.0039H42.5169V60.2255H48.4938ZM38.8163 60.2255V51.0039H32.8393V60.2255H38.8163ZM29.1388 60.2255V51.0039H23.1618V60.2255H29.1388Z" fill="#43B3FB"/>
<path id="Vector_7" d="M29.1387 51.0039H23.1617V60.2255H29.1387V51.0039Z" fill="#90D3FF"/>
<path id="Vector_8" d="M38.8162 51.0039H32.8392V60.2255H38.8162V51.0039Z" fill="#90D3FF"/>
<path id="Vector_9" d="M48.4937 51.0039H42.5167V60.2255H48.4937V51.0039Z" fill="#90D3FF"/>
<path id="Vector_10" d="M58.1696 51.0039H52.1926V60.2255H58.1696V51.0039Z" fill="#90D3FF"/>
<path id="Vector_11" d="M61.638 62.8867V79.1457H49.5457V65.3475H31.7857V79.1457H19.6952V62.8867H61.638Z" fill="#77868F"/>
<path id="Vector_12" d="M61.638 43.9258V48.4221H19.6952V43.9258H33.6027H47.7305H61.5235H61.638Z" fill="#77868F"/>
<path id="Vector_13" d="M47.7303 24.7051V43.9252H33.6025V24.7051H36.6286H44.7026H47.7303Z" fill="#149EF6"/>
<path id="Vector_14" d="M44.7027 11.642V24.7042H36.6287V11.642V7.96875H44.7027V11.642Z" fill="#77868F"/>
<path id="Vector_15" opacity="0.25" d="M36.6287 7.96875C37.2132 19.8658 44.7027 24.7042 44.7027 24.7042H36.6287C36.6287 24.7042 36.6287 13.8318 36.6287 7.96875Z" fill="#0F1214"/>
<path id="Vector_16" d="M47.7304 11.6426V24.7048H44.7026V11.6426H47.6177H47.7304Z" fill="#149EF6"/>
<path id="Vector_17" d="M36.6286 11.6426H33.6025V24.7048H36.6286V11.6426Z" fill="#149EF6"/>
<path id="Vector_18" d="M64.4385 32.7229C64.4385 36.7735 63.4241 40.5868 61.6378 43.9254H61.5234H47.7303V24.7052V11.6431V10.0156C57.4096 13.0263 64.4385 22.0549 64.4385 32.7229Z" fill="#43B3FB"/>
<path id="Vector_19" d="M33.6026 24.7052V43.9254H19.6952C17.9072 40.5868 16.8945 36.7735 16.8945 32.7229C16.8945 22.0549 23.9217 13.0263 33.6026 10.0156V11.6431V24.7052Z" fill="#43B3FB"/>
<path id="Vector_20" opacity="0.25" d="M33.6026 10.0156V10.5074C27.1066 15.067 22.8151 22.9429 22.8151 31.8946C22.8151 36.2459 23.8278 40.3409 25.6157 43.9254H19.6952C17.9072 40.5868 16.8945 36.7735 16.8945 32.7229C16.8945 22.0549 23.9217 13.0263 33.6026 10.0156Z" fill="#0F1214"/>
<path id="Vector_21" d="M61.5235 44.778H47.7304C47.2588 44.778 46.8766 44.3957 46.8766 43.9242C46.8766 43.4527 47.2588 43.0703 47.7304 43.0703H61.5235C61.9952 43.0703 62.3774 43.4527 62.3774 43.9242C62.3774 44.3957 61.9952 44.778 61.5235 44.778Z" fill="#0F1214"/>
<path id="Vector_22" d="M19.6952 43.9258H33.6027" stroke="#0F1214" stroke-width="10" stroke-miterlimit="10" stroke-linecap="round" stroke-linejoin="round"/>
<path id="Vector_23" d="M31.7856 80.0009H19.6951C19.2236 80.0009 18.8413 79.6186 18.8413 79.1471V44.1379C17.0084 40.6404 16.0406 36.6986 16.0406 32.7231C16.0406 27.3632 17.733 22.2672 20.9344 17.9867C24.0298 13.848 28.4387 10.7276 33.349 9.20062C33.6081 9.12002 33.8902 9.16749 34.1088 9.32836C34.3274 9.48923 34.4565 9.74453 34.4565 10.0159V43.0718H46.8765V10.016C46.8765 9.7447 47.0056 9.4894 47.2242 9.32853C47.4428 9.16767 47.7251 9.12019 47.984 9.2008C52.0965 10.48 55.823 12.8378 58.7611 16.0196C59.0809 16.3661 59.0594 16.9063 58.7129 17.2261C58.3666 17.546 57.8266 17.5245 57.5064 17.1781C55.038 14.5049 51.9718 12.4565 48.5842 11.2075V43.9258C48.5842 44.3973 48.2021 44.7796 47.7304 44.7796H33.6026C33.1311 44.7796 32.7488 44.3973 32.7488 43.9258V11.2063C23.7289 14.5126 17.7483 23.0174 17.7483 32.7233C17.7483 36.491 18.6818 40.2252 20.4479 43.5226C20.5143 43.6466 20.549 43.7851 20.549 43.9258V78.2932H31.7856C32.2571 78.2932 32.6395 78.6756 32.6395 79.1471C32.6395 79.6186 32.2571 80.0009 31.7856 80.0009Z" fill="#0F1214"/>
<path id="Vector_24" d="M61.638 80.0006H49.5457C49.0741 80.0006 48.6919 79.6183 48.6919 79.1468C48.6919 78.6753 49.0741 78.2929 49.5457 78.2929H60.7841V43.9255C60.7841 43.785 60.8188 43.6466 60.8852 43.5227C62.6513 40.2217 63.5849 36.4873 63.5849 32.723C63.5849 28.0292 62.1759 23.5171 59.51 19.6747C59.2412 19.2872 59.3373 18.7552 59.7248 18.4864C60.1126 18.2175 60.6442 18.3138 60.9132 18.7013C63.7782 22.831 65.2928 27.6797 65.2928 32.723C65.2928 36.6949 64.325 40.6368 62.4921 44.1376V79.1468C62.4918 79.6183 62.1094 80.0006 61.638 80.0006Z" fill="#0F1214"/>
<path id="Vector_25" d="M52.4304 15.9331C52.2673 15.9331 52.1023 15.8865 51.9565 15.7888C51.297 15.3477 50.606 14.9411 49.9026 14.5806C49.4829 14.3654 49.317 13.8509 49.5322 13.4313C49.747 13.0117 50.2619 12.8459 50.6813 13.0609C51.4433 13.4515 52.1918 13.8917 52.9059 14.3695C53.2979 14.6317 53.4031 15.1621 53.1409 15.554C52.9761 15.8001 52.7058 15.9331 52.4304 15.9331Z" fill="white"/>
<path id="Vector_26" d="M60.4589 41.2098C60.3569 41.2098 60.2535 41.1914 60.1525 41.1528C59.7125 40.9836 59.4928 40.4895 59.6621 40.0493C60.5651 37.7012 61.0231 35.2358 61.0231 32.7217C61.0231 28.2909 59.6249 24.0794 56.9791 20.5422C56.1119 19.3829 55.1109 18.3084 54.0031 17.3488C53.6467 17.0401 53.6081 16.5008 53.9169 16.1444C54.2261 15.7878 54.7651 15.7494 55.1215 16.0582C56.3211 17.0976 57.4064 18.2623 58.3466 19.5195C61.2147 23.3541 62.7308 27.9195 62.7308 32.7219C62.7308 35.4463 62.2347 38.1179 61.256 40.6625C61.1252 41.0017 60.802 41.2098 60.4589 41.2098Z" fill="white"/>
<path id="Vector_27" d="M47.6176 12.4968H44.7026C44.2309 12.4968 43.8488 12.1144 43.8488 11.6429C43.8488 11.1714 44.2309 10.7891 44.7026 10.7891H47.6176C48.0893 10.7891 48.4715 11.1714 48.4715 11.6429C48.4715 12.1144 48.0893 12.4968 47.6176 12.4968Z" fill="#0F1214"/>
<path id="Vector_28" d="M36.6287 12.4968H33.6026C33.1311 12.4968 32.7488 12.1144 32.7488 11.6429C32.7488 11.1714 33.1311 10.7891 33.6026 10.7891H36.6287C37.1002 10.7891 37.4825 11.1714 37.4825 11.6429C37.4825 12.1144 37.1003 12.4968 36.6287 12.4968Z" fill="#0F1214"/>
<path id="Vector_29" d="M44.7026 25.5584C44.231 25.5584 43.8488 25.176 43.8488 24.7045V8.82293H37.4825V24.7045C37.4825 25.176 37.1001 25.5584 36.6286 25.5584C36.1571 25.5584 35.7748 25.176 35.7748 24.7045V7.96908C35.7748 7.49759 36.1571 7.11523 36.6286 7.11523H44.7026C45.1743 7.11523 45.5565 7.49759 45.5565 7.96908V24.7045C45.5565 25.176 45.1743 25.5584 44.7026 25.5584Z" fill="#0F1214"/>
<path id="Vector_30" d="M61.6379 49.2761H54.9735C54.5018 49.2761 54.1196 48.8937 54.1196 48.4222C54.1196 47.9507 54.5018 47.5684 54.9735 47.5684H61.6379C62.1096 47.5684 62.4918 47.9507 62.4918 48.4222C62.4918 48.8937 62.1094 49.2761 61.6379 49.2761Z" fill="#0F1214"/>
<path id="Vector_31" d="M52.5823 49.2761H51.6716C51.1999 49.2761 50.8177 48.8937 50.8177 48.4222C50.8177 47.9507 51.1999 47.5684 51.6716 47.5684H52.5823C53.054 47.5684 53.4362 47.9507 53.4362 48.4222C53.4362 48.8937 53.054 49.2761 52.5823 49.2761Z" fill="#0F1214"/>
<path id="Vector_32" d="M49.1669 49.2761H19.6952C19.2237 49.2761 18.8413 48.8937 18.8413 48.4222C18.8413 47.9507 19.2237 47.5684 19.6952 47.5684H49.1669C49.6386 47.5684 50.0208 47.9507 50.0208 48.4222C50.0208 48.8937 49.6386 49.2761 49.1669 49.2761Z" fill="#0F1214"/>
<path id="Vector_33" d="M61.6379 63.7409H19.6952C19.2237 63.7409 18.8413 63.3585 18.8413 62.8871C18.8413 62.4156 19.2237 62.0332 19.6952 62.0332H61.6379C62.1096 62.0332 62.4918 62.4156 62.4918 62.8871C62.4918 63.3585 62.1094 63.7409 61.6379 63.7409Z" fill="#0F1214"/>
<path id="Vector_34" d="M49.5459 80H31.7859C31.3144 80 30.932 79.6177 30.932 79.1462V65.348C30.932 64.8765 31.3144 64.4941 31.7859 64.4941H49.5459C50.0176 64.4941 50.3998 64.8765 50.3998 65.348C50.3998 65.8195 50.0176 66.2018 49.5459 66.2018H32.6397V78.2923H48.6921V68.8203C48.6921 68.3488 49.0742 67.9664 49.5459 67.9664C50.0176 67.9664 50.3998 68.3488 50.3998 68.8203V79.1462C50.3998 79.6177 50.0174 80 49.5459 80Z" fill="#0F1214"/>
<path id="Vector_35" d="M47.7305 25.5593H33.6028C33.1313 25.5593 32.7489 25.1769 32.7489 24.7054C32.7489 24.2339 33.1313 23.8516 33.6028 23.8516H47.7305C48.2022 23.8516 48.5844 24.2339 48.5844 24.7054C48.5844 25.1769 48.2019 25.5593 47.7305 25.5593Z" fill="#0F1214"/>
<path id="Vector_36" d="M47.7307 28.8327H33.6019C33.1304 28.8327 32.748 28.4503 32.748 27.9788C32.748 27.5074 33.1304 27.125 33.6019 27.125H47.7307C48.2024 27.125 48.5845 27.5074 48.5845 27.9788C48.5845 28.4503 48.2022 28.8327 47.7307 28.8327Z" fill="#0F1214"/>
<path id="Vector_37" d="M47.7307 32.362H41.6532C41.1815 32.362 40.7993 31.9796 40.7993 31.5081C40.7993 31.0367 41.1815 30.6543 41.6532 30.6543H47.7307C48.2024 30.6543 48.5845 31.0367 48.5845 31.5081C48.5845 31.9796 48.2022 32.362 47.7307 32.362Z" fill="#0F1214"/>
<path id="Vector_38" d="M39.2624 32.362H33.6019C33.1304 32.362 32.748 31.9796 32.748 31.5081C32.748 31.0367 33.1304 30.6543 33.6019 30.6543H39.2624C39.7339 30.6543 40.1163 31.0367 40.1163 31.5081C40.1163 31.9796 39.7339 32.362 39.2624 32.362Z" fill="#0F1214"/>
<path id="Vector_39" d="M47.7307 36.487H33.6019C33.1304 36.487 32.748 36.1046 32.748 35.6331C32.748 35.1617 33.1304 34.7793 33.6019 34.7793H47.7307C48.2024 34.7793 48.5845 35.1617 48.5845 35.6331C48.5845 36.1046 48.2022 36.487 47.7307 36.487Z" fill="#0F1214"/>
<path id="Vector_40" d="M47.7308 40.0749H44.7271C44.2555 40.0749 43.8733 39.6925 43.8733 39.221C43.8733 38.7495 44.2555 38.3672 44.7271 38.3672H47.7308C48.2025 38.3672 48.5847 38.7495 48.5847 39.221C48.5847 39.6925 48.2023 40.0749 47.7308 40.0749Z" fill="#0F1214"/>
<path id="Vector_41" d="M42.4502 40.0749H33.6019C33.1304 40.0749 32.748 39.6925 32.748 39.221C32.748 38.7495 33.1304 38.3672 33.6019 38.3672H42.4502C42.9218 38.3672 43.304 38.7495 43.304 39.221C43.304 39.6925 42.9217 40.0749 42.4502 40.0749Z" fill="#0F1214"/>
<path id="Vector_42" d="M47.7307 42.6354H33.6019C33.1304 42.6354 32.748 42.2531 32.748 41.7816C32.748 41.3101 33.1304 40.9277 33.6019 40.9277H47.7307C48.2024 40.9277 48.5845 41.3101 48.5845 41.7816C48.5845 42.2531 48.2022 42.6354 47.7307 42.6354Z" fill="#0F1214"/>
<path id="Vector_43" d="M46.48 3.35938H34.8523V7.97016H46.48V3.35938Z" fill="#77868F"/>
<path id="Vector_44" d="M46.48 8.82239H34.8523C34.3808 8.82239 33.9984 8.44003 33.9984 7.96854V3.35776C33.9984 2.88626 34.3808 2.50391 34.8523 2.50391H46.48C46.9516 2.50391 47.3338 2.88626 47.3338 3.35776V7.96854C47.3338 8.44003 46.9516 8.82239 46.48 8.82239ZM35.7063 7.11469H45.6263V4.2116H35.7063V7.11469Z" fill="#0F1214"/>
<path id="Vector_45" d="M31.1795 42.3503H26.5118C26.0403 42.3503 25.658 41.9679 25.658 41.4964C25.658 41.0249 26.0403 40.6426 26.5118 40.6426H31.1795C31.6509 40.6426 32.0333 41.0249 32.0333 41.4964C32.0333 41.9679 31.6509 42.3503 31.1795 42.3503Z" fill="white"/>
<path id="Vector_46" d="M29.1387 51.0039L23.1617 60.2255H29.1387V51.0039Z" fill="#0F1214"/>
<path id="Vector_47" d="M38.8162 51.0039L32.8392 60.2255H38.8162V51.0039Z" fill="#0F1214"/>
<path id="Vector_48" d="M48.4929 51.0039L42.516 60.2255H48.4929V51.0039Z" fill="#0F1214"/>
<path id="Vector_49" d="M58.056 51.0039L52.0791 60.2255H58.056V51.0039Z" fill="#0F1214"/>
<path id="Vector_50" d="M29.1387 61.0797H23.1617C22.6902 61.0797 22.3079 60.6973 22.3079 60.2258V51.0042C22.3079 50.5327 22.6902 50.1504 23.1617 50.1504H29.1387C29.6101 50.1504 29.9925 50.5327 29.9925 51.0042V57.0951C29.9925 57.5666 29.6101 57.9489 29.1387 57.9489C28.6672 57.9489 28.2848 57.5666 28.2848 57.0951V51.8581H24.0156V59.372H29.1387C29.6101 59.372 29.9925 59.7543 29.9925 60.2258C29.9925 60.6973 29.6101 61.0797 29.1387 61.0797Z" fill="#0F1214"/>
<path id="Vector_51" d="M38.8163 61.0797H32.8393C32.3678 61.0797 31.9855 60.6973 31.9855 60.2258V51.0042C31.9855 50.5327 32.3678 50.1504 32.8393 50.1504H38.8163C39.2878 50.1504 39.6701 50.5327 39.6701 51.0042V60.2258C39.6701 60.6973 39.2878 61.0797 38.8163 61.0797ZM33.6932 59.372H37.9624V51.8581H33.6932V59.372Z" fill="#0F1214"/>
<path id="Vector_52" d="M58.1698 61.0797H52.1928C51.7212 61.0797 51.339 60.6973 51.339 60.2258V51.0042C51.339 50.5327 51.7212 50.1504 52.1928 50.1504H58.1698C58.6414 50.1504 59.0236 50.5327 59.0236 51.0042V60.2258C59.0236 60.6973 58.6413 61.0797 58.1698 61.0797ZM53.0467 59.372H57.3159V51.8581H53.0467V59.372Z" fill="#0F1214"/>
<path id="Vector_53" d="M48.4938 61.0797H42.5168C42.0451 61.0797 41.663 60.6973 41.663 60.2258V51.0042C41.663 50.5327 42.0451 50.1504 42.5168 50.1504H48.4938C48.9654 50.1504 49.3476 50.5327 49.3476 51.0042V60.2258C49.3476 60.6973 48.9653 61.0797 48.4938 61.0797ZM43.3707 59.372H47.6399V51.8581H43.3707V59.372Z" fill="#0F1214"/>
<path id="Vector_54" d="M58.958 77.8136C58.5808 77.8136 58.2749 77.5077 58.2749 77.1305V70.2143C58.2749 69.8371 58.5808 69.5312 58.958 69.5312C59.3352 69.5312 59.6411 69.8371 59.6411 70.2143V77.1305C59.6411 77.5077 59.335 77.8136 58.958 77.8136Z" fill="white"/>
<path id="Vector_55" d="M58.958 68.0798C58.5808 68.0798 58.2749 67.774 58.2749 67.3968V65.2905C58.2749 64.9133 58.5808 64.6074 58.958 64.6074C59.3352 64.6074 59.6411 64.9133 59.6411 65.2905V67.3968C59.6411 67.774 59.335 68.0798 58.958 68.0798Z" fill="white"/>
<path id="Vector_56" d="M44.5112 6.75734C44.134 6.75734 43.8281 6.45149 43.8281 6.07426V5.16355C43.8281 4.78632 44.134 4.48047 44.5112 4.48047C44.8884 4.48047 45.1943 4.78632 45.1943 5.16355V6.07426C45.1943 6.45149 44.8884 6.75734 44.5112 6.75734Z" fill="white"/>
<path id="Vector_57" d="M42.7064 18.1299C42.3292 18.1299 42.0233 17.824 42.0233 17.4468V9.7905C42.0233 9.41327 42.3292 9.10742 42.7064 9.10742C43.0836 9.10742 43.3895 9.41327 43.3895 9.7905V17.4466C43.3895 17.824 43.0836 18.1299 42.7064 18.1299Z" fill="white"/>
</g>
</g>
</svg>
