<svg width="81" height="80" viewBox="0 0 81 80" fill="none" xmlns="http://www.w3.org/2000/svg">
<g id="reshot-icon-satellite-X2E3WCR6FY" clip-path="url(#clip0_455_10044)">
<g id="Group">
<path id="Vector" d="M65.003 19.0995C67.0832 19.0995 68.7695 17.4132 68.7695 15.333C68.7695 13.2527 67.0832 11.5664 65.003 11.5664C62.9228 11.5664 61.2365 13.2527 61.2365 15.333C61.2365 17.4132 62.9228 19.0995 65.003 19.0995Z" fill="#43B3FB"/>
<path id="Vector_2" d="M62.3396 12.6694C63.8103 11.1987 66.1957 11.1987 67.6664 12.6694C69.1371 14.1402 69.1371 16.5255 67.6664 17.9963" fill="white"/>
<path id="Vector_3" d="M53.4558 43.1527L50.3839 46.2226L46.5549 50.0519L44.3037 52.3049L44.1062 52.1074L28.0299 36.0292L30.283 33.7781L34.1122 29.9488L37.1802 26.8789L53.2583 42.9552L53.4558 43.1527Z" fill="#43B3FB"/>
<path id="Vector_4" d="M59.4959 26.0247C61.5112 30.0764 60.9897 35.0677 57.9293 38.6304L57.7184 38.4962L41.6613 22.4409C45.201 19.3729 50.1673 18.8245 54.219 20.7938L59.4633 26.0401L59.4959 26.0247Z" fill="#43B3FB"/>
<path id="Vector_5" d="M79.3746 68.9224L69.2541 79.041L63.9215 73.7085L64.0576 73.5723L73.904 63.724L74.0403 63.5879L79.3746 68.9224Z" fill="#149EF6"/>
<path id="Vector_6" d="M74.0404 63.5878L73.9041 63.724L64.0577 73.5723L63.9216 73.7084L58.4509 68.2378L58.5871 68.1016L68.4353 58.2553L68.5715 58.1191L74.0404 63.5878Z" fill="#149EF6"/>
<path id="Vector_7" d="M68.5714 58.1191L68.4353 58.2552L58.587 68.1016L58.4509 68.2377L52.9822 62.769L53.1183 62.6309L62.9647 52.7846L63.1008 52.6484L68.5714 58.1191Z" fill="#149EF6"/>
<path id="Vector_8" d="M63.1008 52.6489L62.9646 52.7851L53.1183 62.6314L52.9821 62.7695L47.6478 57.435L50.7923 54.2884L54.6216 50.4592L57.7663 47.3145L63.1008 52.6489Z" fill="#149EF6"/>
<path id="Vector_9" d="M29.8765 25.7136L26.0473 29.5428L22.9007 32.6875L17.5681 27.3549L17.7041 27.2169L27.5506 17.3705L27.6887 17.2344L33.0212 22.5669L29.8765 25.7136Z" fill="#149EF6"/>
<path id="Vector_10" d="M27.6886 17.2343L27.5505 17.3704L17.704 27.2168L17.568 27.3549L12.0974 21.8842L12.2336 21.7462L22.0799 11.8998L22.218 11.7637L27.6886 17.2343Z" fill="#149EF6"/>
<path id="Vector_11" d="M22.218 11.7636L22.08 11.8997L12.2336 21.7461L12.0975 21.8842L6.62683 16.4135L6.76297 16.2755L16.6093 6.42911L16.7474 6.29297L22.218 11.7636Z" fill="#149EF6"/>
<path id="Vector_12" d="M16.7474 6.29347L16.6093 6.42961L6.76298 16.276L6.62684 16.414L1.29236 11.0795L11.4129 0.958984L16.7474 6.29347Z" fill="#149EF6"/>
<g id="Group_2" opacity="0.25">
<path id="Vector_13" opacity="0.25" d="M69.2541 79.041L63.9215 73.7085L64.0576 73.5723L73.904 63.724L74.0403 63.5879L69.2541 79.041Z" fill="black"/>
<path id="Vector_14" opacity="0.25" d="M64.0577 73.5723L63.9216 73.7084L58.4509 68.2378L58.5871 68.1016L68.4354 58.2553L68.5715 58.1191L64.0577 73.5723Z" fill="black"/>
<path id="Vector_15" opacity="0.25" d="M58.587 68.1016L58.4509 68.2377L52.9822 62.769L53.1183 62.6309L62.9647 52.7846L63.1008 52.6484L58.587 68.1016Z" fill="black"/>
<path id="Vector_16" opacity="0.25" d="M53.1184 62.6314L52.9822 62.7695L47.6479 57.435L50.7925 54.2884L54.6217 50.4592L57.7664 47.3145L53.1184 62.6314Z" fill="black"/>
<path id="Vector_17" opacity="0.25" d="M22.9007 32.6875L17.5681 27.3549L17.7041 27.2169L27.5506 17.3705L27.6887 17.2344L22.9007 32.6875Z" fill="black"/>
<path id="Vector_18" opacity="0.25" d="M17.704 27.2168L17.568 27.3549L12.0974 21.8842L12.2336 21.7462L22.0799 11.8998L22.218 11.7637L17.704 27.2168Z" fill="black"/>
<path id="Vector_19" opacity="0.25" d="M12.2336 21.7461L12.0975 21.8842L6.62683 16.4135L6.76297 16.2755L16.6093 6.42911L16.7474 6.29297L12.2336 21.7461Z" fill="black"/>
<path id="Vector_20" opacity="0.25" d="M6.76298 16.276L6.62684 16.414L1.29236 11.0795L11.4129 0.958984L6.76298 16.276Z" fill="black"/>
</g>
<path id="Vector_21" d="M44.3037 52.305L39.2204 57.3883L22.9447 41.1145L28.0299 36.0293L44.1062 52.1075L44.3037 52.305Z" fill="#303E47"/>
<path id="Vector_22" d="M57.7184 38.4966L57.9293 38.6309C57.7395 38.8533 57.5381 39.07 57.3272 39.2809L53.4558 43.1542L53.2583 42.9567L37.1801 26.8804L41.0534 23.0071C41.2509 22.8096 41.4542 22.6217 41.6612 22.4414L57.7184 38.4966Z" fill="#303E47"/>
<path id="Vector_23" d="M72.7592 7.57604C77.2539 12.0687 77.2539 19.3552 72.7592 23.8499C69.1697 27.4394 63.7988 28.1585 59.4901 26.0128C59.4921 26.0166 59.494 26.0205 59.4959 26.0243L59.4633 26.0396L54.2189 20.7934C54.2534 20.8087 54.288 20.826 54.3225 20.8432C52.1768 16.5365 52.8939 11.1656 56.4854 7.57604C60.9781 3.08142 68.2646 3.08142 72.7592 7.57604ZM67.6664 17.9957C69.1371 16.525 69.1371 14.1396 67.6664 12.6689C66.1956 11.1982 63.8103 11.1982 62.3395 12.6689C60.8688 14.1396 60.8688 16.525 62.3395 17.9957C63.8103 19.4665 66.1956 19.4665 67.6664 17.9957Z" fill="#77868F"/>
<path id="Vector_24" d="M39.2205 58.3472C38.9753 58.3472 38.7298 58.2536 38.5427 58.0664L22.2668 41.7926C22.0869 41.6128 21.9858 41.369 21.9858 41.1146C21.9858 40.8601 22.0867 40.6164 22.2668 40.4366L40.3756 22.3277C40.5795 22.1241 40.8002 21.9185 41.032 21.7168C44.2587 18.9201 48.6324 18.003 52.6422 19.1629C51.398 14.8583 52.5542 10.1493 55.8078 6.89759C58.1614 4.5429 61.2919 3.24609 64.6218 3.24609C67.9518 3.24609 71.0825 4.5429 73.4373 6.89778C75.7922 9.25151 77.0892 12.3818 77.0892 15.7119C77.0892 19.0419 75.7922 22.1726 73.4373 24.5275C71.0422 26.9228 67.8559 28.1811 64.6236 28.1814C63.4675 28.1814 62.3064 28.0208 61.1724 27.6933C62.3277 31.6811 61.428 36.0282 58.6569 39.2542C58.4575 39.488 58.2375 39.7254 58.0057 39.9574L39.8985 58.0664C39.7114 58.2536 39.466 58.3472 39.2205 58.3472ZM24.3006 41.1146L39.2207 56.0326L56.6496 38.6017C56.8462 38.405 57.0316 38.205 57.2005 38.0069C59.9656 34.7878 60.5289 30.2527 58.6379 26.4507C58.6367 26.4484 58.6356 26.4463 58.6344 26.444L58.6289 26.4325C58.449 26.0634 58.5238 25.6206 58.8156 25.3315C59.1073 25.0423 59.551 24.971 59.918 25.1539C63.9835 27.1786 68.8714 26.3815 72.0819 23.1712C74.0747 21.1785 75.1719 18.5293 75.1719 15.7116C75.1719 12.894 74.0745 10.2452 72.0819 8.25345C70.089 6.26059 67.44 5.16321 64.6222 5.16321C61.8046 5.16321 59.1558 6.26059 57.1639 8.25326C53.9527 11.463 53.1559 16.3503 55.1812 20.415C55.3651 20.7841 55.2922 21.2296 55.0006 21.521C54.7087 21.8127 54.2631 21.8846 53.8942 21.7001C53.8725 21.6892 53.8508 21.6781 53.8292 21.6683C53.8194 21.6641 53.8098 21.6595 53.8004 21.6549C49.998 19.8068 45.4798 20.3993 42.2897 23.1643C42.0926 23.3359 41.9042 23.5112 41.7319 23.6836L24.3006 41.1146Z" fill="#232D33"/>
<path id="Vector_25" d="M57.6983 33.5995C57.6433 33.5995 57.5873 33.5947 57.5311 33.5847C57.0095 33.493 56.6613 32.9958 56.7528 32.4743C57.0352 30.8693 56.8034 29.2443 56.0824 27.7733L55.9313 27.492C55.1798 26.0942 54.0313 24.9815 52.6098 24.2747L52.5498 24.2461C52.0718 24.0183 51.8687 23.4463 52.0963 22.9683C52.3241 22.4904 52.8965 22.2872 53.3741 22.515L53.4491 22.5506C55.2427 23.4421 56.6801 24.8346 57.6208 26.5845L57.7955 26.9112C58.7032 28.7538 58.9959 30.7923 58.6417 32.8064C58.5598 33.272 58.155 33.5995 57.6983 33.5995ZM46.809 23.8068C46.3919 23.8068 46.0081 23.5324 45.8876 23.1113C45.7421 22.6022 46.0368 22.0717 46.5461 21.9259C47.4046 21.6807 48.2928 21.5562 49.1867 21.5562C49.7163 21.5562 50.1454 21.9856 50.1454 22.515C50.1454 23.0444 49.7163 23.4737 49.1867 23.4737C48.4713 23.4737 47.7603 23.5732 47.0732 23.7696C46.985 23.7947 46.8962 23.8068 46.809 23.8068ZM73.1482 18.0386C73.0983 18.0386 73.0479 18.0346 72.9971 18.0265C72.474 17.9437 72.1173 17.4524 72.2001 16.9295C72.2632 16.5312 72.2953 16.1218 72.2953 15.7128C72.2953 13.6636 71.497 11.7373 70.0476 10.2884C69.4936 9.73446 68.8664 9.27158 68.183 8.91243C67.7142 8.66623 67.5337 8.08657 67.7801 7.61774C68.0261 7.14891 68.6064 6.96866 69.0746 7.21487C69.9292 7.66395 70.7127 8.24169 71.4034 8.93238C73.2149 10.7433 74.2126 13.1513 74.2126 15.7127C74.2126 16.2219 74.1727 16.7322 74.0939 17.2294C74.0191 17.7017 73.6116 18.0386 73.1482 18.0386ZM65.7662 8.11514C65.7246 8.11514 65.6824 8.11245 65.6402 8.10689C65.3052 8.06279 64.9627 8.04055 64.6216 8.04055C64.092 8.04055 63.6629 7.61122 63.6629 7.0818C63.6629 6.55237 64.092 6.12305 64.6216 6.12305C65.0458 6.12305 65.4726 6.15085 65.8898 6.20569C66.4149 6.27472 66.7846 6.7564 66.7155 7.28122C66.6521 7.76385 66.2402 8.11514 65.7662 8.11514Z" fill="white"/>
<path id="Vector_26" d="M59.4633 26.9992C59.2178 26.9992 58.9724 26.9056 58.7852 26.7183L52.9967 20.9276C52.6222 20.5531 52.6222 19.946 52.9967 19.5717C53.3708 19.1974 53.9783 19.1974 54.3524 19.5717L60.1413 25.3628C60.5156 25.7373 60.5156 26.3443 60.1411 26.7186C59.954 26.9056 59.7085 26.9992 59.4633 26.9992Z" fill="#232D33"/>
<path id="Vector_27" d="M44.1062 53.0661C43.861 53.0661 43.6153 52.9725 43.4282 52.7852L27.3519 36.707C26.9776 36.3325 26.9776 35.7254 27.3521 35.3511C27.7265 34.9768 28.3334 34.9766 28.7079 35.3511L44.7842 51.4293C45.1585 51.8038 45.1585 52.4107 44.784 52.7852C44.5969 52.9725 44.3517 53.0661 44.1062 53.0661Z" fill="#232D33"/>
<path id="Vector_28" d="M57.7185 39.4546C57.4733 39.4546 57.2278 39.361 57.0407 39.1738L40.9623 23.0975C40.5878 22.723 40.5878 22.116 40.9623 21.7417C41.3364 21.3674 41.9438 21.3674 42.3179 21.7417L58.3964 37.818C58.7709 38.1925 58.7709 38.7994 58.3966 39.1738C58.2092 39.361 57.9638 39.4546 57.7185 39.4546Z" fill="#232D33"/>
<path id="Vector_29" d="M53.2585 43.9138C53.0132 43.9138 52.7678 43.8202 52.5806 43.633L36.5022 27.5567C36.1277 27.1824 36.1277 26.5753 36.502 26.2009C36.8765 25.8264 37.4834 25.8262 37.8579 26.2009L53.9363 42.2772C54.3108 42.6515 54.3108 43.2586 53.9365 43.633C53.7492 43.8202 53.5037 43.9138 53.2585 43.9138Z" fill="#232D33"/>
<path id="Vector_30" d="M65.0029 20.0559C63.7928 20.0559 62.5828 19.5954 61.6617 18.674C59.8193 16.8317 59.8194 13.8337 61.6615 11.9911C63.5038 10.149 66.5018 10.1486 68.3444 11.9911C70.1867 13.8337 70.1867 16.8315 68.3444 18.674C67.4232 19.5954 66.2133 20.0559 65.0029 20.0559ZM65.0031 12.5261C64.2839 12.5261 63.565 12.7997 63.0175 13.3472C61.9228 14.4419 61.9228 16.2234 63.0175 17.3181C64.1128 18.4132 65.8938 18.4128 66.9887 17.3181C68.0834 16.2234 68.0834 14.4419 66.9885 13.3472C66.4412 12.7999 65.722 12.5261 65.0031 12.5261Z" fill="#232D33"/>
<path id="Vector_31" d="M29.9972 34.4509C29.752 34.4509 29.5064 34.3574 29.3194 34.1702L25.3446 30.1956C24.969 29.8225 24.9669 29.2154 25.34 28.8398C25.7134 28.4639 26.3202 28.4622 26.6959 28.835L26.7229 28.8618L30.6751 32.8142C31.0496 33.1887 31.0496 33.7957 30.6751 34.17C30.4879 34.3574 30.2425 34.4509 29.9972 34.4509Z" fill="#232D33"/>
<path id="Vector_32" d="M33.8265 30.623C33.5813 30.623 33.3357 30.5294 33.1487 30.3423L29.1707 26.364C28.7969 25.989 28.7981 25.3819 29.1732 25.0082C29.5482 24.6344 30.1551 24.6354 30.529 25.0105L30.5559 25.0373L34.5046 28.9862C34.8791 29.3607 34.8791 29.9678 34.5046 30.3421C34.3172 30.5294 34.0718 30.623 33.8265 30.623Z" fill="#232D33"/>
<path id="Vector_33" d="M50.6526 55.1075C50.4074 55.1075 50.1619 55.0139 49.9748 54.8268L46.1093 50.963C45.735 50.5887 45.7348 49.9816 46.1091 49.6071C46.4836 49.2326 47.0905 49.2325 47.465 49.6069L51.3305 53.4707C51.7048 53.845 51.705 54.4521 51.3307 54.8266C51.1431 55.0139 50.8981 55.1075 50.6526 55.1075Z" fill="#232D33"/>
<path id="Vector_34" d="M54.4818 51.2772C54.2365 51.2772 53.9911 51.1836 53.8041 50.9966L49.9385 47.1329C49.564 46.7586 49.5638 46.1515 49.9381 45.777C50.3122 45.4027 50.9196 45.4023 51.2937 45.7766L55.1594 49.6404C55.5339 50.0147 55.5341 50.6218 55.1598 50.9962C54.9727 51.1834 54.7272 51.2772 54.4818 51.2772Z" fill="#232D33"/>
<path id="Vector_35" d="M22.9008 33.6464C22.6555 33.6464 22.4099 33.5528 22.223 33.3656L0.614654 11.7573C0.434601 11.5775 0.33374 11.3336 0.33374 11.0793C0.33374 10.8251 0.434601 10.5811 0.614654 10.4013L10.7352 0.280722C11.1093 -0.093574 11.7168 -0.093574 12.0909 0.280722L33.6992 21.889C34.0735 22.2633 34.0737 22.8702 33.6994 23.2447L26.7252 30.2208C26.7252 30.2208 26.7252 30.2208 26.725 30.2209L23.5784 33.3656C23.3915 33.5528 23.1462 33.6464 22.9008 33.6464ZM2.64835 11.0793L22.901 31.3319L31.6657 22.5672L11.4131 2.31461L2.64835 11.0793ZM26.0476 29.5429H26.0495H26.0476Z" fill="#232D33"/>
<path id="Vector_36" d="M69.2543 79.9997C69.0091 79.9997 68.7634 79.9062 68.5765 79.719L46.9699 58.1126C46.5956 57.7383 46.5954 57.1314 46.9697 56.7569L57.0885 46.6362C57.4627 46.2619 58.0701 46.2619 58.4442 46.6362L74.718 62.91L80.0523 68.2445C80.2322 68.4244 80.3333 68.6683 80.3333 68.9225C80.3333 69.1768 80.2322 69.4207 80.0523 69.6005L69.932 79.7192C69.745 79.9062 69.4996 79.9997 69.2543 79.9997ZM49.0036 57.4344L69.2543 77.6851L78.0188 68.9221L57.7666 48.6699L49.0036 57.4344Z" fill="#232D33"/>
<path id="Vector_37" d="M6.7629 17.2344C6.51765 17.2344 6.27202 17.1408 6.08506 16.9536C5.71058 16.5792 5.71058 15.9721 6.08506 15.5978L15.9314 5.75143C16.3055 5.37713 16.913 5.37713 17.2871 5.75143C17.6616 6.12591 17.6616 6.73299 17.2871 7.10729L7.44074 16.9536C7.25378 17.1406 7.00834 17.2344 6.7629 17.2344Z" fill="#232D33"/>
<path id="Vector_38" d="M12.2337 22.7051C11.9885 22.7051 11.7428 22.6115 11.5559 22.4244C11.1814 22.0499 11.1814 21.4428 11.5559 21.0685L21.4022 11.2221C21.7764 10.8478 22.3838 10.8478 22.7579 11.2221C23.1324 11.5966 23.1324 12.2037 22.7579 12.578L12.9116 22.4244C12.7244 22.6115 12.479 22.7051 12.2337 22.7051Z" fill="#232D33"/>
<path id="Vector_39" d="M17.7039 28.1758C17.4587 28.1758 17.2131 28.0822 17.0261 27.8951C16.6516 27.5206 16.6516 26.9135 17.0261 26.5392L26.8727 16.6928C27.2468 16.3185 27.8542 16.3185 28.2283 16.6928C28.6028 17.0673 28.6028 17.6744 28.2283 18.0487L18.3818 27.8951C18.1948 28.0822 17.9494 28.1758 17.7039 28.1758Z" fill="#232D33"/>
<path id="Vector_40" d="M53.1182 63.5898C52.873 63.5898 52.6274 63.4963 52.4404 63.3091C52.0659 62.9346 52.0659 62.3276 52.4404 61.9533L62.2868 52.1069C62.6609 51.7326 63.2683 51.7326 63.6424 52.1069C64.0169 52.4814 64.0169 53.0885 63.6424 53.4628L53.7961 63.3091C53.6091 63.4961 53.3637 63.5898 53.1182 63.5898Z" fill="#232D33"/>
<path id="Vector_41" d="M58.5873 69.0608C58.342 69.0608 58.0964 68.9672 57.9092 68.7799C57.5349 68.4054 57.5349 67.7983 57.9094 67.424L67.7575 57.5777C68.132 57.2034 68.7389 57.2032 69.1134 57.5777C69.4877 57.9522 69.4877 58.5592 69.1132 58.9335L59.2651 68.7799C59.0778 68.9672 58.8325 69.0608 58.5873 69.0608Z" fill="#232D33"/>
<path id="Vector_42" d="M64.0576 74.5314C63.8123 74.5314 63.5669 74.4378 63.3798 74.2507C63.0053 73.8764 63.0053 73.2693 63.3796 72.8948L73.2261 63.0466C73.6006 62.6721 74.2075 62.6719 74.582 63.0466C74.9565 63.4209 74.9565 64.0279 74.5822 64.4024L64.7356 74.2507C64.5487 74.4378 64.3028 74.5314 64.0576 74.5314Z" fill="#232D33"/>
</g>
</g>
<defs>
<clipPath id="clip0_455_10044">
<rect width="80" height="80" fill="white" transform="translate(0.333374)"/>
</clipPath>
</defs>
</svg>
