<svg width="80" height="80" viewBox="0 0 80 80" fill="none" xmlns="http://www.w3.org/2000/svg">
<g id="illustration-icon-method" clip-path="url(#clip0_440_11868)">
<g id="Group">
<path id="Vector" d="M61.0538 72.8965V78.94H7.59961V72.8965H14.1226H35.153H54.5309H61.0538Z" fill="#149EF6"/>
<path id="Vector_2" d="M40.3203 33.1378C50.9055 43.7209 63.9833 47.8425 69.7044 42.4481C62.9205 49.128 53.6441 51.7075 45.0402 50.1547C41.5655 49.5311 38.199 48.2307 35.1529 46.2515C33.5959 45.2461 32.1237 44.0603 30.7618 42.6984C29.7627 41.6993 28.8569 40.6386 28.0487 39.5313C20.2466 28.8528 21.267 13.6495 31.01 3.75586C25.6156 9.47696 29.7372 22.5526 40.3203 33.1378Z" fill="#149EF6"/>
<path id="Vector_3" opacity="0.25" d="M66.2801 45.331C59.9777 49.8451 52.2711 51.4594 45.0397 50.1548C41.565 49.5311 38.1985 48.2308 35.1524 46.2516C33.5953 45.2461 32.1232 44.0603 30.7613 42.6985C29.7622 41.6994 28.8564 40.6387 28.0482 39.5314C21.0989 30.0196 21.1498 16.9206 28.1288 7.17969C25.9057 16.1527 27.5794 25.8237 33.1753 33.4815C34.1108 34.7628 35.1587 35.9889 36.3148 37.145C37.8909 38.7211 39.5943 40.0935 41.3953 41.256C44.9188 43.547 48.8134 45.051 52.8354 45.7722C57.271 46.5719 61.8593 46.4237 66.2801 45.331Z" fill="#232D33"/>
<path id="Vector_4" d="M60.7163 12.745C71.4012 23.4299 75.4995 36.6583 69.8675 42.2903C69.8124 42.3454 69.7594 42.3985 69.7042 42.4494C63.9831 47.8438 50.9054 43.7222 40.3202 33.1391C29.7371 22.5539 25.6154 9.47826 31.0099 3.75716C31.0608 3.702 31.1138 3.64897 31.169 3.59382C36.801 -2.03819 50.0293 2.05801 60.7163 12.745ZM55.7483 24.5097C57.6256 22.6323 57.6256 19.5904 55.7483 17.7131C53.8709 15.8358 50.8269 15.8358 48.9496 17.7131C47.0722 19.5904 47.0722 22.6323 48.9496 24.5097C50.8269 26.387 53.8709 26.387 55.7483 24.5097Z" fill="#149EF6"/>
<path id="Vector_5" opacity="0.25" d="M60.7165 12.745C50.0294 2.05801 36.8011 -2.03819 31.1691 3.59382C31.1139 3.64897 31.0609 3.70201 31.01 3.75716C29.4551 5.4054 28.6914 7.66456 28.6448 10.2971C35.155 10.1783 43.9541 14.4357 51.491 21.9726C59.0258 29.5074 63.2853 38.3065 63.1666 44.8146C65.7991 44.7658 68.0561 44.0022 69.7043 42.4494C69.7595 42.3985 69.8125 42.3454 69.8677 42.2903C75.4997 36.6583 71.4014 23.4297 60.7165 12.745Z" fill="white"/>
<path id="Vector_6" d="M54.5308 72.8953H35.1528V46.252C38.199 48.2311 41.5655 49.5315 45.0401 50.1551L48.9327 59.4824L54.5308 72.8953Z" fill="#128CDA"/>
<path id="Vector_7" d="M35.153 46.2536V72.8948H14.1226L28.0488 39.5312C28.857 40.6386 29.7628 41.6992 30.7619 42.6983C32.1238 44.0602 33.5959 45.246 35.153 46.2515V46.2536Z" fill="#4D5C66"/>
<path id="Vector_8" d="M55.7485 17.7127C57.6258 19.59 57.6258 22.632 55.7485 24.5093C53.8711 26.3866 50.8271 26.3866 48.9498 24.5093C47.0724 22.632 47.0724 19.59 48.9498 17.7127C50.8271 15.8354 53.8711 15.8354 55.7485 17.7127Z" fill="#149EF6"/>
<path id="Vector_9" d="M62.8792 45.8855C56.0947 45.8855 47.2436 41.5596 39.5705 33.8882C28.4802 22.7956 24.3813 9.24036 30.2385 3.02839C30.6405 2.60223 31.3113 2.58229 31.7379 2.98427C32.164 3.38604 32.1838 4.05743 31.7818 4.4836C29.4467 6.96019 29.057 11.1576 30.6849 16.303C32.3853 21.6777 36.0736 27.3901 41.0705 32.388C46.0682 37.3847 51.7808 41.073 57.1564 42.7734C62.302 44.4015 66.5004 44.0118 68.977 41.6767C69.4034 41.2749 70.0746 41.2945 70.4761 41.7208C70.8781 42.147 70.8584 42.8184 70.432 43.2202C68.5169 45.0258 65.9031 45.8855 62.8792 45.8855Z" fill="#232D33"/>
<path id="Vector_10" d="M69.8676 43.3505C69.5963 43.3505 69.3246 43.247 69.1177 43.0399C68.7034 42.6257 68.7034 41.9541 69.1177 41.54C71.5496 39.1081 72.0042 34.9124 70.3977 29.7261C68.7194 24.3075 65.0147 18.5431 59.9665 13.4949C54.9174 8.44604 49.1524 4.741 43.7334 3.06286C38.5473 1.45683 34.3516 1.91142 31.9191 4.34369C31.5052 4.75776 30.8332 4.75776 30.4194 4.34369C30.0051 3.9294 30.0051 3.2578 30.4194 2.84373C33.4348 -0.17189 38.3863 -0.814002 44.3611 1.03661C50.1036 2.81509 56.1785 6.7068 61.4667 11.9949C66.7544 17.2825 70.6457 23.3568 72.4244 29.0986C74.275 35.0735 73.6335 40.0245 70.6177 43.0402C70.4107 43.247 70.1389 43.3505 69.8676 43.3505Z" fill="#232D33"/>
<path id="Vector_11" d="M48.9327 59.4824C47.626 59.4357 46.3256 59.2979 45.0401 59.0645C41.5655 58.4409 38.199 57.1405 35.1528 55.1614V46.252C38.199 48.2311 41.5655 49.5315 45.0401 50.1551L48.9327 59.4824Z" fill="#4D5C66"/>
<path id="Vector_12" d="M49.9328 51.6534C48.2407 51.6534 46.5413 51.5038 44.8517 51.199C41.1556 50.5357 37.6974 49.1704 34.5749 47.1416C32.9447 46.089 31.4087 44.846 30.0118 43.4491C28.9864 42.4237 28.0375 41.3161 27.1918 40.1571C23.2451 34.7552 21.3627 28.0467 21.8924 21.2672C22.4263 14.4335 25.3917 7.95512 30.2435 3.02313C30.2984 2.96416 30.3553 2.90689 30.4146 2.84749C30.8281 2.43278 31.5018 2.43045 31.9165 2.8441C32.331 3.25796 32.3336 3.92744 31.9199 4.34215C31.872 4.39009 31.8295 4.4323 31.7888 4.47643C31.7814 4.48449 31.7738 4.49255 31.7659 4.5004C27.258 9.07792 24.5028 15.0911 24.0075 21.4321C23.5173 27.7066 25.257 33.9124 28.9054 38.9059C29.6871 39.977 30.5638 41.0007 31.512 41.9487C32.8032 43.2399 34.2217 44.388 35.7285 45.3608C38.6151 47.2364 41.8104 48.4975 45.2278 49.111C53.7984 50.6578 62.6715 47.8847 68.9605 41.6925C68.9686 41.6844 68.9768 41.6765 68.9853 41.6689C69.0299 41.6278 69.0725 41.5847 69.1171 41.5399C69.5307 41.1252 70.2025 41.1246 70.617 41.5384C71.0315 41.9523 71.0322 42.6239 70.6185 43.0384C70.5574 43.0997 70.4982 43.1585 70.4373 43.2151C64.8976 48.6643 57.4979 51.6532 49.9328 51.6534Z" fill="#232D33"/>
<path id="Vector_13" d="M52.3489 26.9744C50.8462 26.9744 49.3434 26.4025 48.1994 25.2585C45.912 22.9711 45.912 19.2493 48.1994 16.9619C50.4872 14.6741 54.2103 14.6741 56.4981 16.9619C58.7855 19.2493 58.7855 22.9711 56.4981 25.2585C55.3543 26.4025 53.8516 26.9744 52.3489 26.9744ZM52.3489 17.3663C51.3894 17.3663 50.4297 17.7316 49.6994 18.4619C48.2393 19.9222 48.2393 22.2983 49.6994 23.7585C51.1603 25.2193 53.5372 25.2195 54.9984 23.7585C56.4584 22.2983 56.4584 19.9222 54.9984 18.4619C54.268 17.7316 53.3085 17.3663 52.3489 17.3663Z" fill="#232D33"/>
<path id="Vector_14" d="M53.7982 23.6202C53.5267 23.6202 53.2552 23.5167 53.0482 23.3094C52.6341 22.8951 52.6341 22.2235 53.0484 21.8094C53.238 21.62 53.3379 21.3786 53.3379 21.1113C53.3379 20.8441 53.2376 20.6024 53.0484 20.413C52.8587 20.2234 52.6171 20.1232 52.349 20.1232C51.7631 20.1232 51.2883 19.6483 51.2883 19.0626C51.2883 18.4769 51.7631 18.002 52.349 18.002C53.1797 18.002 53.9609 18.3254 54.5481 18.9128C55.1357 19.5004 55.4592 20.2811 55.4592 21.1111C55.4592 21.9414 55.1357 22.722 54.5481 23.3094C54.3411 23.5164 54.0695 23.6202 53.7982 23.6202Z" fill="white"/>
<path id="Vector_15" d="M14.122 73.956C13.9856 73.956 13.8473 73.9295 13.7139 73.8739C13.1732 73.6482 12.918 73.0271 13.1437 72.4866L27.0699 39.123C27.2954 38.5823 27.9174 38.3273 28.4572 38.5528C28.998 38.7785 29.2532 39.3996 29.0274 39.9401L15.1012 73.3037C14.9313 73.7105 14.5372 73.956 14.122 73.956Z" fill="#232D33"/>
<path id="Vector_16" d="M54.5314 73.9577C54.1162 73.9577 53.7221 73.7123 53.5522 73.3052L44.0615 50.565C43.8361 50.0245 44.0912 49.4032 44.6318 49.1777C45.172 48.9522 45.7936 49.2076 46.0191 49.7479L55.5097 72.4881C55.7352 73.0286 55.48 73.6499 54.9395 73.8754C54.8061 73.9314 54.6675 73.9577 54.5314 73.9577Z" fill="#232D33"/>
<path id="Vector_17" d="M35.1529 73.9559C34.567 73.9559 34.0923 73.4809 34.0923 72.8952V46.254C34.0923 45.6683 34.567 45.1934 35.1529 45.1934C35.7388 45.1934 36.2136 45.6683 36.2136 46.254V72.8952C36.2136 73.4809 35.7386 73.9559 35.1529 73.9559Z" fill="#232D33"/>
<path id="Vector_18" d="M61.0537 80.0008H7.59946C7.01356 80.0008 6.53882 79.5258 6.53882 78.9401V72.8966C6.53882 72.3109 7.01356 71.8359 7.59946 71.8359H61.0537C61.6396 71.8359 62.1143 72.3109 62.1143 72.8966V78.9401C62.1143 79.526 61.6396 80.0008 61.0537 80.0008ZM8.6601 77.8795H59.9931V73.9572H8.6601V77.8795Z" fill="#232D33"/>
<path id="Vector_19" d="M40.6397 33.88C40.3684 33.88 40.0966 33.7765 39.8898 33.5694C39.4755 33.1552 39.4755 32.4836 39.8898 32.0695L48.1995 23.7598C48.6134 23.3457 49.2854 23.3457 49.6993 23.7598C50.1136 24.1741 50.1136 24.8457 49.6993 25.2597L41.3896 33.5694C41.1825 33.7763 40.911 33.88 40.6397 33.88Z" fill="#232D33"/>
<path id="Vector_20" d="M30.4725 19.8878C29.9158 19.8878 29.4487 19.4542 29.4148 18.891C29.3796 18.3064 29.8251 17.8038 30.4095 17.7684L48.8854 16.6526C49.4677 16.6149 49.973 17.0627 50.0082 17.6473C50.0434 18.2319 49.598 18.7344 49.0136 18.7699L30.5376 19.8857C30.5157 19.8871 30.4941 19.8878 30.4725 19.8878Z" fill="#232D33"/>
<path id="Vector_21" d="M54.6328 44.0465C54.6112 44.0465 54.5895 44.0459 54.5677 44.0446C53.983 44.0092 53.5378 43.5067 53.573 42.922L54.689 24.4461C54.7242 23.8614 55.2291 23.4141 55.8118 23.4514C56.3964 23.4868 56.8417 23.9894 56.8065 24.574L55.6905 43.0499C55.6565 43.6127 55.1892 44.0465 54.6328 44.0465Z" fill="#232D33"/>
<path id="Vector_22" d="M61.0537 72.8965H41.4861V78.94H61.0537V72.8965Z" fill="#149EF6"/>
<g id="Group_2">
<path id="Vector_23" d="M61.0534 72.8965H41.4858V78.94H61.0534V72.8965Z" fill="#149EF6"/>
<path id="Vector_24" d="M61.0535 80.0008H41.4859C40.9 80.0008 40.4253 79.5258 40.4253 78.9401V72.8966C40.4253 72.3109 40.9 71.8359 41.4859 71.8359H61.0535C61.6394 71.8359 62.1141 72.3109 62.1141 72.8966V78.9401C62.1141 79.526 61.6394 80.0008 61.0535 80.0008ZM42.5466 77.8795H59.9929V73.9572H42.5466V77.8795Z" fill="#232D33"/>
</g>
<path id="Vector_25" d="M58.5907 76.4622C58.3109 76.4622 58.0372 76.3497 57.8397 76.1525C57.7912 76.1037 57.7466 76.0485 57.7084 75.9912C57.67 75.934 57.6361 75.8724 57.6108 75.8088C57.5831 75.743 57.564 75.6773 57.5493 75.6094C57.5364 75.5415 57.53 75.4715 57.53 75.4015C57.53 75.3336 57.5364 75.2636 57.5493 75.1958C57.564 75.1279 57.5831 75.06 57.6108 74.9964C57.6361 74.9327 57.67 74.8712 57.7084 74.8139C57.7466 74.7545 57.7912 74.7015 57.8397 74.6527C58.0858 74.4066 58.453 74.2921 58.7966 74.3621C58.8643 74.3769 58.9324 74.396 58.9958 74.4236C59.0595 74.4491 59.121 74.483 59.1783 74.5212C59.2377 74.5594 59.2907 74.6039 59.3395 74.6527C59.3883 74.7015 59.4328 74.7545 59.4731 74.8139C59.5092 74.8712 59.5431 74.9327 59.5707 74.9964C59.5962 75.06 59.6176 75.1279 59.6301 75.1958C59.6428 75.2636 59.6513 75.3336 59.6513 75.4015C59.6513 75.4715 59.6428 75.5415 59.6301 75.6094C59.6174 75.6773 59.5962 75.743 59.5707 75.8088C59.5431 75.8724 59.5115 75.934 59.4731 75.9912C59.433 76.0485 59.3885 76.1037 59.3395 76.1525C59.2909 76.2012 59.2379 76.2458 59.1783 76.284C59.1208 76.3222 59.0593 76.354 58.9958 76.3816C58.9322 76.407 58.8643 76.4282 58.7966 76.4431C58.7285 76.4558 58.6586 76.4622 58.5907 76.4622Z" fill="white"/>
<path id="Vector_26" d="M47.299 64.4927C46.8838 64.4927 46.4897 64.2472 46.3198 63.8401L45.7209 62.4049C45.4954 61.8644 45.7509 61.2433 46.2911 61.0176C46.8325 60.7921 47.453 61.0475 47.6785 61.588L48.2773 63.0232C48.5028 63.5637 48.2474 64.1849 47.7071 64.4106C47.5735 64.4664 47.4352 64.4927 47.299 64.4927Z" fill="white"/>
<path id="Vector_27" d="M49.7643 70.3997C49.3491 70.3997 48.955 70.1542 48.7851 69.7471L47.5647 66.823C47.3392 66.2825 47.5944 65.6611 48.1349 65.4356C48.6754 65.2099 49.297 65.4655 49.5222 66.0058L50.7426 68.93C50.9681 69.4705 50.7129 70.0919 50.1724 70.3173C50.0388 70.3733 49.9003 70.3997 49.7643 70.3997Z" fill="white"/>
</g>
</g>
<defs>
<clipPath id="clip0_440_11868">
<rect width="80" height="80" fill="white"/>
</clipPath>
</defs>
</svg>
