<svg xmlns="http://www.w3.org/2000/svg" width="24" height="24" viewBox="0 0 24 24" fill="none">
  <path fill-rule="evenodd" clip-rule="evenodd" d="M2.75 11.4999C2.75 6.66739 6.66751 2.74988 11.5 2.74988C16.3325 2.74988 20.25 6.66739 20.25 11.4999C20.25 16.3324 16.3325 20.2499 11.5 20.2499C6.66751 20.2499 2.75 16.3324 2.75 11.4999ZM11.5 1.24988C5.83908 1.24988 1.25 5.83896 1.25 11.4999C1.25 17.1608 5.83908 21.7499 11.5 21.7499C17.1609 21.7499 21.75 17.1608 21.75 11.4999C21.75 5.83896 17.1609 1.24988 11.5 1.24988ZM20.5303 19.4695C20.2374 19.1767 19.7626 19.1767 19.4697 19.4695C19.1768 19.7624 19.1768 20.2373 19.4697 20.5302L21.4697 22.5302C21.7626 22.8231 22.2374 22.8231 22.5303 22.5302C22.8232 22.2373 22.8232 21.7624 22.5303 21.4695L20.5303 19.4695Z" fill="#232D33"/>
</svg>