<svg width="24" height="24" viewBox="0 0 24 24" fill="none" xmlns="http://www.w3.org/2000/svg">
<g id="send">
<g id="Vector">
<path fill-rule="evenodd" clip-rule="evenodd" d="M3.82019 5.73929C3.90206 6.59797 4.25334 7.73054 4.95057 9.12257L5.8208 10.863C5.99736 11.2162 6.06498 11.6319 6.06498 12.0035C6.06498 12.375 5.99736 12.7907 5.8208 13.1439L5.82002 13.1454L4.95057 14.8743C4.25348 16.2662 3.90129 17.3994 3.81873 18.2582C3.73583 19.1204 3.92951 19.6032 4.18566 19.8597C4.44173 20.1161 4.92414 20.3104 5.78664 20.2282C6.64592 20.1463 7.77986 19.795 9.17457 19.0976L17.7346 14.8176C19.5458 13.912 20.2 12.8469 20.2 11.9985C20.2 11.15 19.5458 10.0849 17.7346 9.17927L9.17457 4.89927C7.78254 4.20204 6.6495 3.85053 5.79082 3.76866C4.92901 3.68648 4.44592 3.88067 4.18906 4.13753C3.9322 4.39439 3.73801 4.87748 3.82019 5.73929ZM9.84565 3.55776C8.36277 2.81505 7.04416 2.38136 5.9332 2.27543C4.82533 2.16979 3.82029 2.38498 3.1284 3.07687C2.43651 3.76876 2.22132 4.7738 2.32696 5.88167C2.43289 6.99256 2.86653 8.31108 3.60916 9.79386L4.47916 11.5339C4.5226 11.6207 4.56498 11.79 4.56498 12.0035C4.56498 12.2165 4.52279 12.3854 4.47946 12.4724L3.60939 14.2026C2.8667 15.6854 2.43241 17.0039 2.32561 18.1146C2.21913 19.2221 2.43295 20.2274 3.1243 20.9197C3.81573 21.612 4.82082 21.8271 5.92895 21.7215C7.04029 21.6156 8.3601 21.1819 9.84539 20.4393L18.4054 16.1593C20.4342 15.1449 21.7 13.68 21.7 11.9985C21.7 10.3169 20.4342 8.85201 18.4054 7.83763L9.84565 3.55776Z" fill="#232D33"/>
<path fill-rule="evenodd" clip-rule="evenodd" d="M4.68998 11.9985C4.68998 11.5842 5.02577 11.2485 5.43998 11.2485H10.84C11.2542 11.2485 11.59 11.5842 11.59 11.9985C11.59 12.4127 11.2542 12.7485 10.84 12.7485H5.43998C5.02577 12.7485 4.68998 12.4127 4.68998 11.9985Z" fill="#232D33"/>
</g>
</g>
</svg>
