<svg width="20" height="20" viewBox="0 0 20 20" fill="none" xmlns="http://www.w3.org/2000/svg">
<path d="M20 11.25C20 11.9433 19.8667 12.5933 19.6 13.2C19.34 13.8 18.9833 14.3267 18.53 14.78C18.0767 15.2333 17.5467 15.5933 16.94 15.86C16.3333 16.12 15.6867 16.25 15 16.25C14.5733 16.25 14.15 16.1967 13.73 16.09C13.67 16.6433 13.5167 17.1567 13.27 17.63C13.0167 18.11 12.6933 18.5267 12.3 18.88C11.9133 19.2333 11.47 19.5067 10.97 19.7C10.4633 19.9 9.93333 20 9.38 20C8.77333 20 8.20333 19.8833 7.67 19.65C7.14333 19.4233 6.68 19.1133 6.28 18.72C5.88667 18.3267 5.57667 17.8633 5.35 17.33C5.11667 16.7967 5 16.23 5 15.63V15.31C5.02 15.21 5.03667 15.1067 5.05 15H0.83C0.61 15 0.413333 14.92 0.24 14.76C0.08 14.5867 0 14.39 0 14.17V5.83C0 5.61 0.08 5.41333 0.24 5.24C0.413333 5.08 0.61 5 0.83 5H3.78C3.86 4.29333 4.06333 3.62667 4.39 3C4.71 2.40667 5.12333 1.88667 5.63 1.44C6.13 0.986667 6.7 0.633333 7.34 0.38C7.98 0.126667 8.66 0 9.38 0C10.1533 0 10.88 0.146667 11.56 0.44C12.2467 0.74 12.8433 1.14333 13.35 1.65C13.8567 2.15667 14.26 2.75333 14.56 3.44C14.8533 4.12 15 4.85 15 5.63V5.94C15 6.04 14.9867 6.14333 14.96 6.25C15.6533 6.25 16.3033 6.38 16.91 6.64C17.5233 6.9 18.0533 7.25667 18.5 7.71C18.9733 8.15667 19.34 8.68333 19.6 9.29C19.8667 9.90333 20 10.5567 20 11.25ZM9.37 1.25C8.83 1.25 8.31667 1.34667 7.83 1.54C7.33667 1.72667 6.89333 1.98667 6.5 2.32C6.12667 2.65333 5.81 3.04667 5.55 3.5C5.29667 3.96667 5.13 4.46667 5.05 5H9.17C9.39 5 9.58667 5.08333 9.76 5.25C9.92 5.41667 10 5.61 10 5.83V9.95L10.18 9.92C10.2933 9.50667 10.46 9.11333 10.68 8.74C10.8933 8.36 11.1567 8.02 11.47 7.72C11.77 7.42 12.1133 7.15667 12.5 6.93C12.86 6.71 13.25 6.54333 13.67 6.43C13.7233 6.14333 13.75 5.87667 13.75 5.63C13.75 5.02333 13.6333 4.45333 13.4 3.92C13.1733 3.39333 12.86 2.93333 12.46 2.54C12.0667 2.14667 11.6067 1.83333 11.08 1.6C10.5467 1.36667 9.97667 1.25 9.37 1.25ZM5.1 13.25C5.4 13.25 5.7 13.22 6 13.16C6.28 13.1 6.53333 12.9967 6.76 12.85C6.98667 12.71 7.17 12.5233 7.31 12.29C7.43667 12.05 7.5 11.7567 7.5 11.41C7.5 11.0567 7.43333 10.7633 7.3 10.53C7.15333 10.2967 6.97 10.1 6.75 9.94C6.53 9.78667 6.29333 9.66 6.04 9.56L5.32 9.27C5.10667 9.18333 4.92333 9.09333 4.77 9C4.62333 8.9 4.55 8.77333 4.55 8.62C4.55 8.51333 4.59 8.42333 4.67 8.35C4.75 8.28333 4.84333 8.23333 4.95 8.2C5.05667 8.15333 5.16667 8.12333 5.28 8.11C5.4 8.10333 5.5 8.1 5.58 8.1C5.90667 8.1 6.2 8.14 6.46 8.22C6.71333 8.30667 6.97667 8.43333 7.25 8.6V7.12C7.08333 7.07333 6.93667 7.03333 6.81 7C6.67667 6.96667 6.54667 6.94 6.42 6.92C6.28667 6.9 6.14667 6.88333 6 6.87C5.86667 6.86333 5.71667 6.86 5.55 6.86C5.26333 6.86 4.97 6.89 4.67 6.95C4.37 7.01667 4.09667 7.12333 3.85 7.27C3.61667 7.42333 3.42 7.61 3.26 7.83C3.10667 8.06333 3.03 8.35 3.03 8.69C3.03 9.02333 3.10333 9.29333 3.25 9.5C3.39667 9.73333 3.58 9.93 3.8 10.09C4.02 10.2433 4.25333 10.38 4.5 10.5L5.22 10.79C5.44667 10.8833 5.63333 10.98 5.78 11.08C5.92667 11.1867 6 11.3133 6 11.46C6 11.5867 5.96333 11.6867 5.89 11.76C5.82333 11.8333 5.73667 11.8867 5.63 11.92C5.54333 11.9733 5.43667 12 5.31 12H5C4.60667 12 4.26 11.94 3.96 11.82C3.65333 11.6867 3.34667 11.5133 3.04 11.3V12.86C3.7 13.12 4.38667 13.25 5.1 13.25ZM9.37 18.75C9.79 18.75 10.1933 18.6667 10.58 18.5C10.96 18.34 11.2933 18.12 11.58 17.84C11.86 17.5533 12.0833 17.22 12.25 16.84C12.4167 16.46 12.5 16.0567 12.5 15.63C12.5 15.2567 12.4367 14.9 12.31 14.56C12.19 14.22 12.02 13.9167 11.8 13.65C11.5733 13.3767 11.3067 13.1467 11 12.96C10.7 12.7733 10.3667 12.64 10 12.56V14.17C10 14.39 9.92 14.5867 9.76 14.76C9.58667 14.92 9.39 15 9.17 15H6.31C6.27 15.2067 6.25 15.4167 6.25 15.63C6.25 16.0567 6.33333 16.46 6.5 16.84C6.66 17.22 6.88 17.5533 7.16 17.84C7.44667 18.12 7.78 18.34 8.16 18.5C8.54 18.6667 8.94333 18.75 9.37 18.75ZM15 15C15.5133 15 15.9967 14.9033 16.45 14.71C16.91 14.5167 17.31 14.2467 17.65 13.9C17.99 13.56 18.26 13.1633 18.46 12.71C18.6533 12.2567 18.75 11.77 18.75 11.25C18.75 10.75 18.6533 10.2667 18.46 9.8C18.26 9.34 17.99 8.94 17.65 8.6C17.31 8.26 16.91 7.99 16.45 7.79C15.9967 7.59667 15.5133 7.5 15 7.5C14.4867 7.5 14.0033 7.6 13.55 7.8C13.0967 8 12.7 8.27 12.36 8.61C12.02 8.95 11.75 9.34667 11.55 9.8C11.35 10.2667 11.25 10.75 11.25 11.25V11.46L11.27 11.68C11.5767 11.8267 11.86 12.0067 12.12 12.22C12.3733 12.4333 12.6067 12.67 12.82 12.93C13.02 13.1967 13.1933 13.4833 13.34 13.79C13.48 14.0967 13.5867 14.4133 13.66 14.74C14.1 14.9133 14.5467 15 15 15Z" fill="#1575F3"/>
</svg>
