<svg width="24" height="24" viewBox="0 0 24 24" fill="none" xmlns="http://www.w3.org/2000/svg">
<g id="star-outlined">
<path id="Vector (Stroke)" fill-rule="evenodd" clip-rule="evenodd" d="M10.931 3.84671L9.17295 7.36282C8.9856 7.74366 8.6727 8.06908 8.35134 8.30735C8.02905 8.54632 7.62856 8.74933 7.21645 8.81931L7.21381 8.81976L4.02418 9.34969C3.13458 9.49804 2.84479 9.84839 2.77784 10.058C2.71066 10.2684 2.74422 10.7226 3.38121 11.3596L5.86121 13.8396C6.18361 14.162 6.39926 14.5931 6.51817 15.0085C6.63719 15.4243 6.68169 15.9024 6.58273 16.3439L6.58161 16.3489L5.8716 19.4189C5.60717 20.5616 5.87463 20.9787 6.01046 21.0778C6.14687 21.1773 6.62724 21.3048 7.63812 20.7049L10.6337 18.9316C11.0497 18.6896 11.5477 18.5899 12.0046 18.5899C12.4607 18.5899 12.9591 18.6893 13.3729 18.9345L16.3623 20.7041C17.3814 21.306 17.8613 21.179 17.9953 21.0813C18.128 20.9846 18.3955 20.57 18.13 19.4183L17.419 16.3439C17.3201 15.9024 17.3646 15.4243 17.4836 15.0085C17.6025 14.5931 17.8182 14.162 18.1406 13.8396L20.6206 11.3596L20.6224 11.3578C21.2636 10.7209 21.2952 10.268 21.2281 10.0594C21.1605 9.84913 20.8683 9.49823 19.978 9.34975L16.788 8.81975C16.3716 8.75036 15.968 8.54812 15.6431 8.30839C15.3195 8.06965 15.0063 7.74392 14.8189 7.36288L13.0594 3.8439C12.6386 2.99788 12.2109 2.82739 11.9996 2.82739C11.787 2.82739 11.3567 3.00003 10.931 3.84671ZM14.4021 3.17523C13.8729 2.11159 13.0456 1.32739 11.9996 1.32739C10.9548 1.32739 10.125 2.11025 9.59077 3.17308L7.83006 6.69448L7.82734 6.69999C7.77451 6.80785 7.64822 6.96134 7.45793 7.10243C7.26829 7.24305 7.08432 7.32 6.96638 7.3403L6.96532 7.34048L3.77796 7.87003C2.62786 8.06172 1.66197 8.62142 1.34893 9.60175C1.03611 10.5814 1.49755 11.5972 2.32055 12.4202L4.80055 14.9002C4.89816 14.9978 5.00751 15.1817 5.0761 15.4213C5.14426 15.6594 5.15002 15.8754 5.11948 16.0139L5.11904 16.0159L4.41019 19.0808C4.11464 20.3581 4.21716 21.6261 5.12631 22.2895C6.03489 22.9525 7.27453 22.665 8.40365 21.9949L11.3881 20.2282L11.3899 20.2271C11.5242 20.1496 11.7452 20.0899 12.0046 20.0899C12.2659 20.0899 12.4825 20.1504 12.6085 20.2251L15.5988 21.9953C16.7293 22.6631 17.9704 22.9558 18.879 22.2934C19.7888 21.6302 19.8863 20.3597 19.5917 19.0815L18.8827 16.0159L18.8823 16.0139C18.8517 15.8754 18.8575 15.6594 18.9257 15.4213C18.9943 15.1817 19.1036 14.9978 19.2012 14.9002L21.6794 12.422L21.6804 12.421C22.5086 11.598 22.9715 10.5814 22.6562 9.60039C22.3412 8.62068 21.3735 8.06166 20.2242 7.8701L17.0342 7.3401" fill="white"/>
</g>
</svg>
